<svg width="69" height="19" viewBox="0 0 69 19" fill="none" xmlns="http://www.w3.org/2000/svg">
<path d="M8.10081 17.0464C8.10081 16.1921 8.10081 15.765 8.06948 15.765C8.03815 15.8205 7.97548 16.1139 7.85051 16.6291C7.78221 16.7924 7.72659 16.9616 7.68435 17.1348C7.70653 17.1359 7.728 17.1428 7.74701 17.1553C7.8315 17.1348 7.95647 17.0793 8.10116 17.0361V17.0464H8.10081ZM67.4468 16.6295C67.4246 16.6094 67.363 16.6295 67.3313 16.685C67.3285 16.8505 67.3422 17.0153 67.3722 17.1783C67.4207 16.9992 67.4454 16.8151 67.4468 16.6295ZM68.668 12.0801C68.6363 12.1356 68.6363 12.2112 68.668 12.353C68.6969 12.2646 68.6969 12.1685 68.668 12.0801ZM67.7478 13.6571L67.6035 13.7126C67.5718 13.6797 67.5718 13.6797 67.5408 13.6797V13.5683H67.4831C67.4947 13.7681 67.5633 13.9589 67.6805 14.1171C67.6915 13.9622 67.7126 13.8087 67.7432 13.6567H67.7478V13.6571ZM66.2981 15.2015C66.3586 15.2059 66.4181 15.2169 66.4762 15.2344C66.4452 15.2878 66.4452 15.3203 66.4139 15.3203C66.3294 15.2874 66.2981 15.2341 66.2981 15.2015ZM64.3721 18.0475C64.3404 18.0475 64.3721 18.0676 64.5185 18.156C64.4875 18.1889 64.4875 18.1889 64.4559 18.1791C64.4192 18.1414 64.3907 18.0969 64.3721 18.0475ZM65.3349 17.0847C64.834 17.0847 64.533 17.1505 64.502 17.3372C64.678 17.2941 64.9498 17.2181 65.3349 17.0847ZM67.5021 12.1027L67.4081 12.2668H67.3454C67.3972 12.5521 67.4317 12.8412 67.4493 13.1313C67.5591 12.8006 67.5774 12.444 67.5021 12.1027ZM67.8249 10.8538C67.7953 10.7738 67.7848 10.6869 67.7936 10.6014C67.6031 10.5498 67.4074 10.5243 67.2109 10.5257V10.6671C67.2222 10.677 67.2349 10.6839 67.2493 10.688C67.263 10.692 67.2782 10.6927 67.2926 10.6901C67.3236 10.7786 67.3236 10.8319 67.3454 10.8542C67.3873 10.768 67.4398 10.6869 67.5017 10.6145C67.526 10.6167 67.5482 10.6284 67.5644 10.6474C67.6006 10.7439 67.6577 10.8301 67.7305 10.8999C67.7429 10.8878 67.758 10.878 67.7745 10.8725C67.7904 10.8666 67.8076 10.8648 67.8249 10.867V10.8538ZM64.2587 14.6579C64.2274 14.6579 64.1742 14.625 64.1647 15.085C64.2235 14.9509 64.2548 14.8058 64.2587 14.6579ZM64.4995 14.1978C64.6671 14.2022 64.8343 14.2165 65.0005 14.2406C65.1589 14.2464 65.3141 14.1924 65.4384 14.0893C65.1476 14.0893 64.716 14.0663 64.114 14.0893C64.1126 14.1565 64.1235 14.223 64.1454 14.2863C64.2647 14.2676 64.3826 14.242 64.4995 14.2106V14.1978ZM66.2791 11.5291C66.2569 11.3321 66.2379 11.0895 66.2062 10.7709H66.1537C66.1224 10.9554 66.0816 11.1955 66.0503 11.5568C66.0098 11.5758 65.9746 11.6047 65.9471 11.6412C65.92 11.6781 65.9013 11.7209 65.8936 11.7666C65.9496 11.7896 66.0094 11.8005 66.0693 11.7995C66.1851 11.7764 66.2477 11.7008 66.2794 11.547V11.5291H66.2791ZM65.9126 10.5835C65.8932 10.5835 65.8932 10.5835 65.8816 10.6043C65.9126 10.5835 65.9126 10.5506 65.9126 10.5835ZM65.4771 10.5835H65.236C65.2395 10.6956 65.2575 10.8056 65.2888 10.9123C65.3419 10.7968 65.405 10.6869 65.4771 10.5835ZM65.7468 11.6781C65.7376 11.449 65.681 11.2247 65.5806 11.0208C65.5278 11.2346 65.4229 11.4304 65.2772 11.5897C64.9544 11.5897 64.9955 11.1524 64.9642 10.8469C64.9445 10.8239 64.9445 10.8239 64.9135 10.8239C64.8868 10.92 64.8723 11.0194 64.8702 11.1195C64.9012 11.1425 64.9012 11.251 64.8702 11.4154C64.8332 11.5305 64.8019 11.6482 64.7759 11.7669C65.0385 11.7439 65.361 11.734 65.739 11.6785H65.7468V11.6781ZM64.4368 11.7867V11.6226C64.3397 11.5784 64.2594 11.502 64.2084 11.4052C64.1718 11.536 64.157 11.673 64.1651 11.8093C64.2517 11.7929 64.339 11.7852 64.427 11.7863H64.4368V11.7867ZM64.697 10.5407H64.5404C64.5506 10.6163 64.572 10.689 64.603 10.7585C64.6347 10.7581 64.6558 10.6821 64.697 10.5407ZM61.015 17.7541L61.0266 17.6456C60.9629 17.6321 60.9024 17.6058 60.8485 17.567C60.8172 17.567 60.8172 17.567 60.7858 17.5901C60.8172 17.5901 60.8485 17.6456 60.87 17.787C60.9154 17.7633 60.965 17.7523 61.015 17.7541ZM61.3399 17.7541C61.3399 17.7011 61.3399 17.6456 61.3181 17.6229C61.0907 17.4417 60.8492 17.2806 60.5957 17.1428C60.6323 17.2302 60.6602 17.3219 60.6771 17.4161C60.7098 17.4154 60.7411 17.426 60.7675 17.4454C60.7939 17.4647 60.8136 17.4925 60.8242 17.5247C60.8855 17.5082 60.9495 17.5174 61.0044 17.5506C61.0587 17.5839 61.0988 17.6379 61.1157 17.7015C61.1706 17.7373 61.2305 17.7629 61.2938 17.7771C61.3252 17.7541 61.3252 17.7541 61.3466 17.7541H61.3399ZM60.5429 17.1096C60.4929 17.0069 60.4172 16.92 60.3229 16.8597C60.2289 16.7997 60.1208 16.7676 60.0106 16.7683C60.105 16.8567 60.1895 16.9653 60.3359 17.1293C60.4056 17.1374 60.4757 17.1304 60.5429 17.1096ZM58.6363 15.1939L58.6046 15.2143C58.6342 15.2596 58.6725 15.298 58.7176 15.3258C58.7489 15.3028 58.7176 15.2699 58.6363 15.1939ZM60.3965 10.8769V10.7683C60.2398 10.7683 60.1553 10.8769 60.0832 11.0946C60.1779 11.0124 60.2796 10.9397 60.3866 10.8769H60.3965ZM59.6135 11.4355L59.666 11.3044C59.6445 11.3044 59.6445 11.3044 59.6135 11.3245C59.6135 11.2488 59.5822 11.2916 59.5509 11.4556C59.5593 11.448 59.5695 11.4421 59.5801 11.4388C59.591 11.4352 59.6023 11.4341 59.6135 11.4355ZM59.5509 11.4556C59.4907 11.4881 59.4375 11.5327 59.3942 11.5872C59.4879 11.5667 59.5509 11.544 59.5509 11.4556ZM57.3837 14.9158H57.2897C57.3837 15.0042 57.5305 15.1456 57.6939 15.3327C57.7259 15.2015 57.4126 14.9487 57.3837 14.9158ZM59.1964 11.2386H59.1439C59.1657 11.2587 59.1657 11.2916 59.1657 11.3372C59.1964 11.3142 59.1964 11.2912 59.1964 11.2386ZM58.2793 13.0655C58.0385 13.0655 57.6847 13.3184 57.6749 13.5157C57.6734 13.5299 57.6756 13.5442 57.6812 13.5577C57.6868 13.5708 57.6956 13.5825 57.7062 13.5913C57.9083 13.4294 58.0994 13.2537 58.2793 13.0655ZM58.8021 11.9284C58.8848 11.7896 58.9866 11.6639 59.1027 11.5546C59.1249 11.5028 59.1351 11.4465 59.1344 11.3902H59.0211C58.9556 11.4808 58.9035 11.5806 58.8644 11.6862C58.7327 11.7487 58.6123 11.8338 58.5081 11.939C58.6014 11.8985 58.7046 11.8912 58.8021 11.9186V11.9284ZM58.6141 11.2386C58.6106 11.2605 58.5993 11.2799 58.5828 11.2941C58.6141 11.2941 58.6141 11.2609 58.6141 11.2386ZM58.5514 11.3142H58.4673C58.436 11.3372 58.436 11.3698 58.4265 11.3928C58.474 11.3778 58.5173 11.3508 58.5514 11.3142ZM58.4043 11.4454C58.2913 11.5181 58.1973 11.6197 58.1325 11.7414C58.248 11.7209 58.342 11.6095 58.4043 11.4454ZM56.2663 14.7744V14.7189C55.9315 14.9063 55.7847 15.0605 55.7559 15.2015C55.915 15.0452 56.0857 14.9023 56.2663 14.7744ZM56.0882 14.4456H56.0375C55.9942 14.4876 55.9615 14.5409 55.9432 14.5998C55.9762 14.5862 56.0062 14.5654 56.0308 14.5387C56.0562 14.5121 56.0755 14.4806 56.0882 14.4456ZM55.1081 14.9513C55.08 14.7441 55.08 14.534 55.1081 14.3272H55.0455C55.0032 14.5585 55.0032 14.796 55.0455 15.0273C55.0768 15.0064 55.0768 14.9735 55.1081 14.9513ZM54.4414 14.5241C54.435 14.5727 54.4428 14.6217 54.4632 14.6655C54.4424 14.6217 54.435 14.5727 54.4414 14.5241ZM55.4042 10.7709C55.4042 10.5736 55.3729 10.4625 55.32 10.4625C55.3042 10.5721 55.312 10.6843 55.3419 10.791C55.3503 10.7833 55.3605 10.7775 55.3711 10.7738C55.3817 10.7705 55.3929 10.7694 55.4042 10.7709ZM55.7481 10.9324C55.8111 9.66889 55.8302 11.2609 55.6643 10.8034C55.6235 11.5364 55.5394 9.52201 55.6235 9.70653C55.5387 10.4296 55.5387 11.1615 55.6235 11.885C55.6235 11.9182 55.6545 11.9405 55.6742 11.9734C55.7189 11.6281 55.7471 11.2806 55.7587 10.932H55.7481V10.9324ZM54.1206 10.3306C54.089 10.2451 54.089 10.2221 54.0678 10.2221C54.0523 10.2462 54.0446 10.2751 54.0446 10.3043C54.0446 10.3335 54.0523 10.362 54.0678 10.3865C54.0678 10.3536 54.0992 10.3536 54.1305 10.331H54.1206V10.3306ZM54.453 9.08501C54.4421 9.09305 54.4326 9.10474 54.4269 9.11826C54.4216 9.13178 54.4195 9.14639 54.4216 9.16101C54.4195 9.14639 54.4216 9.13178 54.4269 9.11826C54.4326 9.10474 54.4417 9.09305 54.453 9.08501ZM55.2574 11.251C55.3648 10.9572 55.3824 10.6353 55.3077 10.3306C55.2838 10.3083 55.2563 10.2908 55.2264 10.2776C55.1828 10.6123 55.175 10.9518 55.2046 11.2886C55.2356 11.2886 55.2356 11.2886 55.2574 11.2558V11.251ZM38.6203 12.8002H38.6636C38.7196 12.3815 38.7463 11.9591 38.7449 11.5364C38.7453 11.5364 38.5791 11.6781 38.6203 12.8002ZM39.8098 10.7102H39.882C39.9133 10.6649 39.9038 10.5659 39.882 10.4245C39.85 10.4636 39.826 10.5089 39.8116 10.5582C39.7968 10.6072 39.7922 10.6591 39.7979 10.7102H39.8098ZM39.3599 14.0159C39.3543 13.9567 39.3585 13.8968 39.3715 13.839C39.3402 13.8719 39.3494 13.9048 39.3599 14.0159ZM40.277 15.9323C40.1879 16.4523 40.1816 16.9843 40.2576 17.5068C40.3608 17.5068 40.3516 17.7592 40.5273 16.3795C40.4865 16.2707 40.4762 16.1395 40.4143 15.8866C40.365 15.8866 40.3168 15.902 40.277 15.9323ZM41.6014 16.6423L41.4665 16.6751C41.4352 16.708 41.3944 16.708 41.4352 16.7508C41.2631 16.7164 41.0856 16.7208 40.9149 16.7636C40.8832 16.7965 40.8931 16.8947 40.9149 17.1023C40.9381 17.1074 40.9624 17.107 40.9856 17.1012C41.0089 17.0953 41.0307 17.0847 41.0497 17.069C41.0085 16.9704 40.9969 16.8947 41.0279 16.8622C41.0589 16.8297 41.4035 16.8165 42.1333 16.731C42.1136 16.6825 42.0858 16.6375 42.0516 16.5999C41.9024 16.6214 41.752 16.6357 41.6014 16.6423ZM43.9706 10.3028L44.0023 10.9371C44.0428 10.97 44.0745 10.97 44.1149 11.0029C44.084 11.0358 44.084 11.4205 44.1273 12.2313H44.1681C44.3589 11.5609 44.4188 10.8564 44.3438 10.1614C44.2156 10.1947 44.0903 10.2422 43.9706 10.3028ZM44.97 10.1845C44.951 10.632 44.907 10.9423 44.8884 11.1242L44.9605 11.1571C44.9919 11.1242 44.9919 11.0585 44.9605 10.9046C45.0676 10.8454 45.1661 10.772 45.2541 10.6847C45.2957 10.6795 45.3379 10.6861 45.3763 10.7037C45.4147 10.7212 45.4485 10.7482 45.4735 10.7833C45.4985 10.8319 45.5143 10.8845 45.5196 10.9397C45.5249 10.9938 45.5199 11.0497 45.5048 11.1019C45.4886 11.1988 45.4636 11.2934 45.4302 11.3847C45.3048 11.9105 45.1485 12.722 44.9292 13.7831C44.8979 13.8631 44.8838 13.9494 44.8884 14.0356C45.0855 13.3209 45.3809 12.6398 45.765 12.0139C45.7019 11.6321 45.6087 11.0285 45.4932 10.2294C45.4203 10.1965 45.3172 10.1636 45.1609 10.0982C45.0669 10.1311 44.9922 10.1311 44.9609 10.1764L44.97 10.1845ZM44.1491 15.7372H44.1899C44.2621 15.5231 44.2973 15.2969 44.2931 15.07C44.2283 15.1657 44.1822 15.2739 44.1575 15.3883C44.1322 15.503 44.1297 15.6217 44.1491 15.7372ZM44.8257 14.1069L44.8475 14.2815C44.8669 14.173 44.8884 14.0743 44.8884 14.0415C44.8884 14.0743 44.857 14.0743 44.8257 14.1069ZM45.4302 13.5686C45.1073 14.4558 44.9486 14.9816 44.9605 15.1559H45.1073L45.3481 14.0948C45.3886 13.9015 45.4407 13.7115 45.5048 13.5259C45.4735 13.5686 45.4735 13.5686 45.4302 13.5686ZM44.6789 15.9323C44.5004 16.2476 44.4909 16.5337 44.6476 16.7409C44.7828 16.3598 44.8394 15.9535 44.8137 15.5476C44.7384 15.6616 44.6919 15.7938 44.6789 15.9323ZM45.784 13.7634C45.8156 13.7305 45.9188 13.7305 46.066 13.7305C46.0424 13.4948 46.0068 13.2617 45.96 13.0304C45.8181 13.2438 45.7558 13.5047 45.784 13.7634ZM45.9406 14.9889C46.0395 14.7857 46.1202 14.5731 46.1814 14.3546C46.1952 14.2223 46.1691 14.0886 46.1071 13.9731C45.9441 14.2808 45.8822 14.6359 45.9311 14.9841L45.9406 14.9889ZM49.4878 11.0866C49.5248 11.422 49.5357 11.7604 49.5191 12.098C49.5145 12.1849 49.5321 12.2723 49.5698 12.3505C49.6948 12.3369 49.8141 12.2869 49.9141 12.2061C49.8828 11.9536 49.7265 11.4483 49.7163 11.2664C49.774 10.913 49.7603 10.5513 49.6758 10.2045C49.5071 10.2473 49.466 10.5659 49.4881 11.0895V11.0866H49.4878ZM50.2102 12.4816V12.5905H50.2732C50.2732 12.5576 50.3042 12.5244 50.3352 12.459C50.294 12.482 50.2471 12.493 50.2003 12.4919L50.2102 12.4816ZM48.1926 16.9426L48.4954 16.8315C48.4158 16.7709 48.3285 16.7234 48.2359 16.6898C48.2042 16.7329 48.2138 16.8315 48.1926 16.9426ZM49.7353 13.5716C49.7247 13.8058 49.7391 14.0404 49.7786 14.2716C49.8356 14.2738 49.8926 14.2629 49.9451 14.2388C50.1232 13.953 50.1017 13.713 49.9138 13.5387C49.8529 13.5358 49.7923 13.5471 49.7353 13.5716ZM48.8499 16.5359C48.8664 16.5381 48.8837 16.5363 48.9002 16.5305C48.9164 16.525 48.9316 16.5155 48.9435 16.503C48.9435 16.4702 48.9435 16.4702 48.9027 16.4373C48.8714 16.4702 48.8809 16.503 48.8499 16.5359ZM49.8127 14.5873C49.8441 14.5873 49.8441 14.5873 49.8754 14.5545C49.8321 14.5212 49.8321 14.4883 49.8222 14.4456C49.805 14.4912 49.805 14.542 49.8222 14.5873H49.8127ZM50.2799 15.07C50.3499 15.1022 50.4235 15.1241 50.4992 15.1358C50.4992 15.1029 50.4992 15.07 50.5207 14.9611C50.4323 14.9735 50.3489 15.0108 50.2799 15.07ZM50.2077 15.7043C50.3112 15.6908 50.4129 15.666 50.5108 15.6287C50.5108 15.5954 50.4675 15.5297 50.27 15.4211C50.2387 15.4211 50.1757 15.53 50.1975 15.7043H50.2077ZM51.3029 15.267C51.323 15.1705 51.3117 15.0707 51.2719 14.9816C51.2332 14.8939 51.2019 14.8025 51.1776 14.7086C51.148 14.7532 51.1272 14.8033 51.1177 14.8566C51.1082 14.91 51.1096 14.9644 51.1209 15.017C51.1329 15.07 51.1551 15.1193 51.1867 15.1625C51.2177 15.2056 51.2578 15.2414 51.3029 15.267ZM50.4386 17.4885C50.6333 17.5572 50.8396 17.5795 51.0431 17.5543C50.9048 17.4863 50.7569 17.4421 50.6048 17.4231C50.5439 17.4245 50.4855 17.4479 50.4386 17.4885ZM51.2093 17.5115C51.1156 17.6204 51.2093 17.6862 51.5441 17.7848C51.5659 17.6193 51.5515 17.4501 51.5008 17.2915C51.3659 17.3372 51.3754 17.4688 51.2093 17.5115ZM33.3224 17.6427C33.245 17.5473 33.1883 17.4351 33.1563 17.3146H33.0936C33.0102 17.4658 32.9369 17.623 32.8743 17.7848C32.9056 17.7848 32.9056 17.7848 32.9369 17.8177C33.1971 17.7947 33.3224 17.7417 33.3224 17.6533V17.6427ZM34.2085 16.1643C34.2803 15.8377 34.3159 15.5037 34.3145 15.1683L34.2518 15.2216L34.2831 15.2545C34.1392 15.5439 34.0909 15.8757 34.1458 16.1972C34.1772 16.1643 34.1772 16.1643 34.2085 16.1643ZM33.3224 16.2301H33.2598C33.2323 16.271 33.221 16.3218 33.2284 16.3719C33.2284 16.3489 33.2601 16.316 33.3224 16.2301ZM34.594 16.0328V15.826C34.7637 15.5417 34.8647 15.218 34.888 14.8833H34.763C35.1076 14.0407 35.3833 13.1693 35.5864 12.277H35.5237C35.4297 12.5072 35.2826 12.8357 35.095 13.2076C35.0717 13.3523 35.0059 13.4868 34.9073 13.5917C34.9003 13.6969 34.8682 13.7985 34.813 13.8873C34.6767 14.3038 34.5789 14.7328 34.5218 15.169C34.5218 15.2348 34.5218 15.2549 34.5532 15.2878C34.5841 15.256 34.6253 15.2366 34.669 15.2344C34.6341 15.3751 34.5922 15.5136 34.5437 15.6491C34.5155 15.7127 34.5011 15.7814 34.5011 15.8512C34.5011 15.921 34.5155 15.9904 34.5437 16.054C34.5521 16.0463 34.5623 16.0405 34.5729 16.0368C34.5838 16.0332 34.5951 16.0321 34.6063 16.0332H34.594V16.0328ZM34.6905 13.4046C34.6591 13.4046 34.6591 13.4601 34.5651 13.6143C34.5651 13.6344 34.5651 13.6344 34.5965 13.6673C34.6447 13.5909 34.6767 13.5054 34.6908 13.4148V13.4046H34.6905ZM33.3756 15.3532C33.2309 15.3861 33.1348 15.6491 33.1348 16.0865C33.2601 15.9999 33.3538 15.7701 33.3756 15.3532ZM33.4069 15.2772C33.4495 15.1537 33.4745 15.0247 33.4815 14.8932C33.446 15.0346 33.3935 15.1701 33.3252 15.2976C33.334 15.2841 33.3474 15.2746 33.3622 15.2706C33.3773 15.267 33.3932 15.2691 33.4069 15.2772ZM36.6605 9.55745C36.658 9.54101 36.6598 9.52457 36.6654 9.50922C36.671 9.49387 36.6798 9.47999 36.6915 9.46903H36.6098C36.5904 9.4873 36.5746 9.50959 36.5644 9.53443C36.5535 9.55928 36.5478 9.58595 36.5471 9.61299C36.5834 9.59216 36.621 9.57389 36.6605 9.55745ZM35.9377 10.3894H35.9064C35.8152 10.5254 35.7416 10.673 35.6871 10.829C35.7607 10.7844 35.8216 10.7205 35.8638 10.643C35.9061 10.5655 35.9282 10.4782 35.9282 10.3894H35.9377ZM35.3646 10.2374C35.3333 10.2374 35.3016 10.2374 35.3016 10.2579C35.3016 10.2784 35.3646 10.2575 35.3646 10.2374ZM36.2387 9.37037C36.031 9.39339 35.8846 9.39339 35.7568 9.41605V9.56768C35.8508 9.60057 35.8723 9.62322 35.8723 9.71164C35.8518 9.79422 35.8413 9.87899 35.8413 9.96449C36.0187 9.80957 36.1546 9.60934 36.2359 9.3828L36.2387 9.37037ZM34.8925 10.3485L34.8608 10.3255C34.8299 10.3485 34.8299 10.3485 34.8299 10.381C34.8608 10.3485 34.8608 10.3485 34.8925 10.3485ZM34.0881 11.8371C34.0019 11.8327 33.917 11.8597 33.8473 11.9127C33.6692 11.9127 33.5847 11.9127 33.5537 11.9456V12.0011C33.6065 12.034 33.7318 12.0874 33.8787 12.1531C33.9392 12.1283 33.9913 12.0845 34.0283 12.0282C34.0652 11.9719 34.0853 11.9054 34.0856 11.8371H34.0881ZM34.8999 9.49424C34.9386 9.46501 34.9707 9.42701 34.9939 9.3828C35.0101 9.42153 35.0207 9.46245 35.0252 9.5041C34.9925 9.50082 34.9594 9.50849 34.9313 9.52712C34.9313 9.49424 34.9313 9.49424 34.8999 9.49424ZM33.5344 12.9749C33.5657 12.8865 33.6283 12.8002 33.6907 12.6563C33.5245 12.5609 33.345 12.4955 33.1584 12.4619C33.2337 12.5247 33.3235 12.5657 33.4185 12.5803C33.3932 12.7195 33.4006 12.8624 33.4404 12.9979C33.4685 12.9789 33.5016 12.9712 33.5344 12.9749ZM35.0562 8.96845C35.089 8.98928 35.1133 9.02143 35.1249 9.0598C35.1361 9.0978 35.134 9.13909 35.1185 9.17599C35.1023 9.25893 35.058 9.33237 34.9936 9.38316C34.9936 9.13032 35.0249 9.00134 35.0562 8.96845ZM32.8648 12.3077C32.7535 12.2569 32.6321 12.2343 32.511 12.2419C32.6286 12.2825 32.738 12.3461 32.8338 12.429C32.8648 12.3961 32.8648 12.3632 32.8648 12.3077ZM32.4388 10.4143L32.4075 10.4347C32.4286 10.4388 32.4473 10.4501 32.4603 10.4676C32.4289 10.4347 32.4289 10.4347 32.4388 10.4143ZM31.1215 9.91882C31.0317 9.9137 30.9423 9.93307 30.8613 9.97435C30.8807 10.0599 31.1215 10.2469 31.5837 10.5202C31.615 10.3785 31.1577 10.0145 31.1264 9.91882H31.1215ZM30.6976 10.7077C30.517 10.5791 30.3547 10.4245 30.216 10.2473C30.1847 10.2473 30.091 10.2802 29.9439 10.3028C29.9752 10.3357 30.0066 10.3891 30.0379 10.422C30.2628 10.5064 30.4765 10.6211 30.6737 10.7632C30.6737 10.7303 30.6737 10.7303 30.705 10.7077H30.6976ZM29.1419 16.3569C29.13 16.685 29.1106 17.0014 29.1106 17.2967C29.2553 17.1783 29.2673 16.8597 29.1419 16.3569ZM27.8588 15.7222C27.8464 15.7387 27.838 15.758 27.8345 15.7785C27.8309 15.799 27.8316 15.8205 27.8373 15.8406C27.8545 15.8044 27.8619 15.7631 27.8588 15.7222ZM27.8802 15.5578L27.8683 15.3375C27.851 15.4138 27.8373 15.4902 27.8274 15.568C27.8274 15.545 27.8492 15.545 27.8802 15.568V15.5578ZM27.8802 12.6665C27.8598 12.649 27.8341 12.6409 27.8081 12.6435C27.7855 12.836 27.7855 13.0319 27.8081 13.2248C27.8514 13.0421 27.8725 12.8543 27.8707 12.6665H27.8802ZM28.2245 12.775C28.2027 11.7896 28.1932 11.2207 28.1717 11.0895C28.0777 11.1882 28.0369 11.4834 28.0682 11.9438C28.0555 12.2416 28.1017 12.5397 28.203 12.8181C28.203 12.7977 28.203 12.7977 28.2245 12.775ZM28.8096 12.239C28.792 12.0231 28.7389 11.8122 28.6533 11.6149C28.5871 11.4454 28.5382 11.2693 28.5065 11.0895H28.4343C28.4657 11.2963 28.516 11.5163 28.5378 11.7465C28.5906 11.962 28.5906 12.1879 28.5378 12.4038C28.5498 12.4367 28.5692 12.5025 28.5906 12.5883C28.6572 12.5653 28.7146 12.5196 28.7526 12.4579C28.7906 12.3965 28.8075 12.323 28.8001 12.2496L28.8096 12.239ZM26.4309 13.2226C26.3897 13.2226 26.3584 13.2226 26.3369 13.2354C26.2003 13.4674 26.0859 13.713 25.995 13.9684C26.1658 13.7323 26.3119 13.478 26.4309 13.2098V13.2226ZM24.5862 15.7372C24.6253 15.7672 24.6671 15.7924 24.7112 15.8128C24.9182 15.7142 25.0121 15.5172 25.0026 15.1785C24.627 15.3203 24.439 15.5176 24.4513 15.7902C24.476 15.7924 24.501 15.7884 24.5246 15.7796C24.5475 15.7701 24.5686 15.7558 24.5862 15.7372ZM26.3679 11.2357H26.4207C26.4207 11.2126 26.4207 11.2126 26.4425 11.1904C26.3679 11.1904 26.2957 11.3117 26.2545 11.5517C26.3267 11.4984 26.3485 11.3771 26.3675 11.2232V11.2357H26.3679ZM20.5261 17.6482C20.4712 17.642 20.4184 17.6226 20.3708 17.5926C20.3233 17.5627 20.2828 17.5228 20.2519 17.4742C20.2209 17.4264 20.2005 17.3716 20.1917 17.3142C20.1829 17.2568 20.186 17.198 20.2012 17.1421L20.1072 17.1293C20.0501 17.327 20.0082 17.529 19.9822 17.7337C20.0086 17.7315 20.0346 17.7388 20.0568 17.7538C20.3578 17.7337 20.5384 17.7008 20.5384 17.6452L20.5261 17.6482ZM26.503 11.0742C26.5259 11.0146 26.5397 10.951 26.5439 10.8871C26.5203 10.8929 26.4953 10.8929 26.4717 10.8871C26.4854 10.9485 26.4854 11.0124 26.4717 11.0742C26.4851 11.0789 26.4992 11.0789 26.5125 11.0742H26.503ZM27.035 10.0986C27.035 10.1212 27.0663 10.1644 27.0857 10.2298H27.1797C27.3247 10.0295 27.3958 9.7807 27.3796 9.52968C27.211 9.4968 27.0762 9.48657 27.004 9.46391C26.9931 9.64003 26.9723 9.81578 26.9413 9.98934C26.9001 10.0178 26.8649 10.0551 26.8378 10.0986C26.8107 10.1421 26.7928 10.191 26.785 10.2422C26.8044 10.2422 26.9199 10.0781 27.0258 10.088L27.035 10.0986ZM26.3464 10.0452H26.2957C26.2739 10.088 26.2739 10.1538 26.2524 10.2093C26.2742 10.2093 26.2957 10.1538 26.3464 10.0551V10.0452ZM26.409 9.86839V9.78289C26.3872 9.80299 26.3872 9.84866 26.3562 9.88155C26.3724 9.87205 26.3904 9.86766 26.409 9.86839ZM23.322 14.8603C23.2907 14.7744 23.2498 14.7744 23.2185 14.7518C23.2181 14.7974 23.2287 14.8424 23.2498 14.8829C23.2688 14.8603 23.2907 14.8603 23.322 14.8603ZM22.4525 14.572C22.425 14.5512 22.3923 14.5398 22.3585 14.5391C22.3944 14.6538 22.4542 14.7583 22.5341 14.8453C22.513 14.7521 22.4859 14.6611 22.4525 14.572ZM21.9515 14.2665C21.9297 14.2665 21.9297 14.2665 21.9297 14.3195C21.93 14.2994 21.93 14.2764 21.9515 14.2665ZM21.5136 13.5635L21.4699 13.5763C21.4699 13.5964 21.4699 13.5964 21.4917 13.6191C21.4995 13.6125 21.5058 13.6041 21.5093 13.5942C21.5136 13.5847 21.5146 13.5741 21.5136 13.5635ZM21.3161 13.2354H21.2728C21.2946 13.2683 21.3161 13.2906 21.3474 13.3341C21.3263 13.31 21.315 13.2782 21.3161 13.2456V13.2354ZM20.418 15.3912C20.418 15.4032 20.4398 15.1734 20.4493 14.6809C20.4842 14.4521 20.4627 14.2179 20.3867 14.0013C20.324 14.0795 20.3025 14.6027 20.324 15.5885C20.3768 15.568 20.3962 15.4898 20.418 15.3912ZM21.1401 11.8524C21.12 11.8908 21.114 11.9354 21.1235 11.9781C21.1327 12.0201 21.1566 12.0578 21.1904 12.083C21.2122 12.0271 21.1907 11.9613 21.1401 11.8524ZM22.1613 12.2796C22.1613 12.2565 22.1085 12.1254 22.0145 11.8623C21.9786 11.7176 21.9191 11.5806 21.8389 11.4582C21.7642 11.2609 21.7762 11.304 21.5572 10.7252C21.4826 10.6163 21.3791 10.4724 21.2657 10.2751C21.3009 10.4114 21.3492 10.5433 21.4101 10.6697C21.6114 11.2258 21.8487 11.7673 22.1205 12.2898C22.1205 12.2898 22.1398 12.2898 22.1613 12.2898V12.2796ZM20.4082 10.4168C20.4233 10.1172 20.4096 9.81614 20.367 9.51945H20.2515C20.2515 10.0452 20.2948 10.3613 20.367 10.4497C20.3888 10.4497 20.3888 10.4497 20.4082 10.4267V10.4168ZM18.0315 15.4818L18.0629 15.4489C18.1037 15.4489 18.1037 15.4489 18.1037 15.4818C18.1037 15.5147 18.1037 15.5147 18.0629 15.5476C18.0629 15.5147 18.0629 15.5147 18.0315 15.4818ZM17.6365 13.5635C17.6337 13.5105 17.6443 13.4587 17.6679 13.4119L17.3546 13.3995C17.3176 13.455 17.2926 13.5193 17.2824 13.5865C17.401 13.5884 17.5193 13.5814 17.6365 13.5635ZM16.3336 13.6191L16.2277 13.5635C16.1963 13.5865 16.1555 13.5865 16.1242 13.6191C16.0928 13.6516 16.1242 13.652 16.1555 13.6848C16.1868 13.652 16.259 13.652 16.3336 13.6191ZM14.9346 16.541C14.6938 16.5082 14.3083 16.4753 13.851 16.4654V16.521C13.851 16.5538 13.8824 16.5538 13.9137 16.5538C14.371 16.5308 14.6843 16.541 14.9346 16.541ZM11.2526 16.3766C11.2488 16.5199 11.2593 16.6627 11.284 16.8038C11.3899 16.5867 11.3899 16.4325 11.2526 16.3766ZM15.7485 10.0405C15.7742 9.99335 15.788 9.94074 15.7897 9.8863H15.8524V9.83076C15.4768 9.78801 15.2265 9.83076 15.0504 10.0507C15.0818 10.0507 15.1131 10.0507 15.2166 10.0935C15.3923 10.0624 15.5704 10.0445 15.7485 10.0405ZM11.9198 13.1817H11.8162C11.6786 13.5438 11.6568 13.9432 11.7536 14.3191C11.8691 14.2333 11.9102 13.8595 11.9198 13.1817ZM11.9631 13.0933V12.9391H11.8884C11.8729 12.9734 11.8645 13.0111 11.8645 13.0491C11.8645 13.0874 11.8726 13.1247 11.8884 13.159C11.8884 13.1262 11.9198 13.1262 11.9631 13.0933ZM13.3188 10.6649C13.4979 10.5944 13.6719 10.51 13.8391 10.4121C13.7873 10.381 13.731 10.3587 13.6729 10.3463C13.5659 10.354 13.4624 10.3876 13.3698 10.445C13.2776 10.5016 13.1991 10.5809 13.1406 10.6752C13.0276 10.8268 12.8998 10.9276 12.777 11.0899C12.7481 11.1476 12.7333 11.2115 12.7333 11.277C12.8801 11.2441 13.0586 11.0245 13.3188 10.6755V10.6649ZM10.9397 14.648C10.9203 14.3721 10.9203 14.0338 10.8988 13.637L10.7953 13.6596C10.7376 13.824 10.7151 14.0002 10.7295 14.1745C10.7436 14.3495 10.7939 14.5183 10.877 14.6703C10.9009 14.6681 10.9235 14.6564 10.9397 14.6374V14.648ZM10.9083 12.919C10.8048 12.9519 10.7636 13.0706 10.7636 13.2577C10.8675 13.2248 10.9083 13.1364 10.9083 12.919ZM11.9631 11.2433C11.9317 11.2203 11.9317 11.2433 11.9004 11.2762C11.9247 11.2737 11.9469 11.262 11.9631 11.2433ZM12.9431 9.78764H12.777C12.7481 9.84537 12.7333 9.90932 12.7333 9.97472C12.7808 9.96522 12.8248 9.94257 12.8615 9.90968C12.8988 9.87716 12.9266 9.83478 12.9431 9.78764ZM7.12073 16.1695C6.9426 16.225 6.8486 16.3339 6.87993 16.4979C6.94612 16.4738 7.0042 16.4292 7.04715 16.3711C7.0894 16.313 7.1151 16.2429 7.12073 16.1695ZM6.55958 17.3095C6.50642 17.1775 6.42369 17.0603 6.31878 16.9682C6.29414 17.0913 6.3128 17.2196 6.37159 17.3292C6.48741 17.3292 6.54972 17.3292 6.54972 17.3091H6.55958V17.3095ZM7.86213 15.0521C7.91493 15.0751 7.94627 15.1635 7.9776 15.2392H8.0304C8.0297 15.1456 8.01174 15.0528 7.9776 14.9666C7.83326 14.9359 7.68505 14.9315 7.53931 14.9538C7.57099 15.0594 7.60971 15.1621 7.65478 15.2622C7.69878 15.169 7.77201 15.0949 7.86213 15.0521ZM7.31083 15.8106C7.33231 15.5264 7.26647 15.2417 7.12284 14.9995H7.00737C6.94471 15.1409 6.88205 15.4032 6.76658 15.7573C7.15171 15.712 7.30837 15.6915 7.21437 15.6915C7.19219 15.7434 7.18163 15.7993 7.18304 15.856C7.21613 15.83 7.25767 15.8183 7.29886 15.8227L7.31083 15.8106ZM5.88049 17.4308L5.82768 16.9934C5.69813 17.0084 5.56964 17.0303 5.44255 17.0592C5.41333 17.1976 5.42002 17.3416 5.46191 17.4764C5.59991 17.4516 5.74003 17.4362 5.88049 17.4308ZM4.96307 17.3778H4.91027C4.91027 17.4107 4.91027 17.4636 4.87893 17.4867C4.90991 17.4863 4.96307 17.4103 4.96307 17.3778ZM5.89985 15.0017C5.81783 15.0346 5.75516 15.055 5.69285 15.0777C5.69285 15.0777 5.72418 15.2194 5.80586 15.5275C5.83719 15.3079 5.86817 15.1435 5.89985 15.0017ZM3.91047 17.1958C3.8809 17.1925 3.85062 17.2006 3.82633 17.2185C3.85062 17.251 3.86858 17.2875 3.87914 17.3277C3.91047 17.3043 3.91047 17.251 3.91047 17.1958ZM4.36812 15.1734C4.23681 15.1135 4.10057 15.066 3.96116 15.032C3.96116 15.0875 3.98053 15.1405 4.01186 15.2191C4.07452 15.2191 4.18999 15.1964 4.36812 15.1734ZM3.5014 17.0895C3.5014 16.8366 3.2606 16.8063 3.01981 16.6949C3.00044 16.6419 2.96911 16.5864 3.00044 16.5308C3.04586 16.4782 3.07789 16.4154 3.09444 16.3463C3.06311 16.3463 3.03178 16.3134 3.00044 16.2802C3.04128 16.0708 3.24124 15.9418 3.24124 15.9089C3.24124 15.876 3.18843 15.7774 3.09444 15.689C3.04163 15.2845 2.99094 15.0645 2.92828 15.0645L2.94764 15.7547C2.88955 15.9937 2.87547 16.2429 2.9068 16.4877C2.87688 16.5692 2.8554 16.6539 2.84414 16.7402C2.84414 16.9601 3.30426 17.0255 3.44859 17.1344C3.47077 17.1333 3.4926 17.1253 3.51126 17.1114L3.5014 17.0895ZM3.56406 14.3648C3.54223 14.223 3.48943 14.036 3.43909 13.786C3.43909 13.786 3.43909 13.9501 3.39543 14.2457C3.40036 14.337 3.42958 14.4244 3.47992 14.4985C3.47992 14.6856 3.47992 14.7945 3.50175 14.827C3.51231 14.6721 3.53308 14.5186 3.56441 14.3666V14.3648H3.56406ZM1.80139 13.5259C1.77006 13.5029 1.77957 13.4704 1.74823 13.4473C1.7169 13.4243 1.7169 13.5588 1.74823 13.7988C1.77957 13.6673 1.77957 13.5588 1.8109 13.5259H1.80139ZM1.8109 12.4641H1.7169C1.74823 12.497 1.74823 12.573 1.7676 12.6585C1.7676 12.573 1.7676 12.497 1.8109 12.4641ZM1.77957 12.2997H1.69508C1.71233 12.3245 1.72007 12.3552 1.7169 12.3859C1.74823 12.353 1.74823 12.3325 1.77957 12.2997ZM2.94764 8.32135V7.81603C2.92792 7.8153 2.90927 7.80726 2.89483 7.79301C2.8635 7.86901 1.98692 7.95743 1.95559 8.25303C1.98692 8.25303 2.88533 8.32903 2.93813 8.30857L2.94764 8.32135ZM1.60143 8.30893H1.50744C1.52046 8.39407 1.53771 8.47884 1.5606 8.56178C1.59158 8.52889 1.59158 8.45034 1.60143 8.30893ZM7.76356 1.80801C7.80475 1.36809 7.81425 1.04984 7.84558 0.796989C7.8051 0.763009 7.75757 0.739624 7.70723 0.728297C7.65689 0.71697 7.60408 0.718066 7.55409 0.73122C7.47242 1.10026 7.51642 1.48757 7.67907 1.82591C7.70829 1.82884 7.73821 1.82189 7.7632 1.80545V1.80801H7.76356ZM7.19994 1.95709C7.17811 1.59572 7.15664 1.35566 7.07496 1.26724C7.04363 1.26724 7.04363 1.26724 7.0123 1.28989C6.99224 1.52082 7.00596 1.75357 7.05314 1.9801C7.09785 1.95343 7.1503 1.94539 7.19994 1.95709ZM0.698449 8.58187C0.648459 9.57389 0.655852 10.5685 0.720276 11.5594C0.782587 11.4483 0.770617 10.4651 0.698449 8.58187ZM3.37607 5.06359H3.31341C3.31341 5.20535 3.31341 5.39207 3.33523 5.66501C3.37572 5.4677 3.38945 5.26528 3.37607 5.06359ZM6.16212 1.86135V1.07285C6.0463 1.12839 5.87063 1.20439 5.66117 1.28259C5.68652 1.52739 5.79811 1.75393 5.97413 1.91689C6.00546 1.88401 6.05827 1.88401 6.15227 1.86135H6.16212ZM0.946286 7.42178C0.935724 7.41228 0.927276 7.40022 0.921643 7.38634C0.916362 7.37282 0.913898 7.35784 0.914954 7.34322C0.883622 7.34322 0.883622 7.36587 0.883622 7.44187C0.883622 7.42178 0.914954 7.42178 0.946286 7.42178ZM2.99094 4.67189C3.08493 4.26778 3.12823 3.99447 3.04375 3.79753C3.00291 3.99484 2.97158 4.30285 2.89694 4.69491C2.92968 4.6982 2.96278 4.69016 2.99094 4.67189ZM6.12129 0.547066C5.75552 0.451701 5.37426 0.440374 5.00391 0.514182C5.32673 0.547066 5.37954 0.875547 5.50486 0.984432C5.7013 0.823662 5.91077 0.681528 6.13079 0.559855L6.12129 0.547066ZM3.11591 3.59255V3.37259C3.08458 3.39524 3.08458 3.47124 3.05325 3.62543C3.06452 3.62689 3.07578 3.6258 3.08669 3.62214C3.09761 3.61885 3.10746 3.61301 3.11591 3.60534V3.59255ZM0.821311 5.47574C0.804765 5.59303 0.812158 5.71287 0.843138 5.82687C0.805821 5.71397 0.798429 5.59266 0.821311 5.47574ZM4.36812 1.59864C4.33679 1.41412 4.33679 1.41412 4.12733 1.3257C4.09599 1.27016 4.09599 1.23728 4.06466 1.23728C4.05903 1.37832 4.07734 1.51935 4.11747 1.65418C4.26427 1.6213 4.32693 1.63153 4.35827 1.59864H4.36812ZM1.6039 1.44664C1.72887 1.12803 2.59595 1.15068 2.85611 1.12803C2.89694 1.05239 2.91877 0.96397 2.98108 0.832432C3.08282 0.841201 3.18527 0.833528 3.28454 0.809778C3.28454 0.460836 3.56371 1.22668 3.56371 1.52228C3.59293 1.52959 3.62144 1.54055 3.64785 1.55516C3.64855 1.27272 3.66651 0.991009 3.70065 0.710759C3.49119 0.263528 2.40761 0.842297 2.39564 0.842297C2.30059 0.942412 2.22631 1.06226 2.17632 1.19343C2.18864 1.20585 2.20342 1.21535 2.21997 1.22084C2.23652 1.22705 2.25377 1.22887 2.27066 1.22668C2.29249 1.30268 1.45921 1.3352 1.5099 1.47953C1.52222 1.4671 1.53701 1.4576 1.5532 1.45212C1.5694 1.44628 1.58665 1.44445 1.6039 1.44664ZM6.31878 15.7423C6.31737 15.7145 6.30857 15.6879 6.29379 15.6645C6.279 15.6415 6.25858 15.6232 6.23464 15.6111C6.23464 15.6667 6.23464 15.7226 6.26597 15.7423H6.31878ZM68.687 15.0978L68.6987 14.8453H68.636C68.6043 14.941 68.6043 15.0452 68.636 15.1409L68.687 15.0978ZM68.668 14.6809V14.6253V14.6809ZM68.48 14.1752C68.511 14.1423 68.511 14.1196 68.5424 14.0868C68.511 14.0111 68.511 13.9556 68.48 13.9556V14.1752ZM65.6408 18.1816H65.7662C65.7267 18.2003 65.6838 18.2079 65.6408 18.2043V18.1816ZM65.3997 17.9061V17.8528H65.4314L65.4194 17.9061H65.3997ZM64.8776 18.4443V18.4115H64.9716V18.4443H64.8776ZM66.5871 15.7624C66.5674 15.7624 66.5674 15.7624 66.5361 15.7295H66.6494L66.5871 15.7624ZM67.7911 13.6041C67.8221 13.6041 67.8221 13.5833 67.8538 13.5281H67.7911V13.6041ZM68.6796 11.9964H68.7113V11.9737H68.6796V11.9964ZM64.5861 18.3V18.2145H64.6386C64.6386 18.2474 64.6386 18.2474 64.6702 18.2675L64.5861 18.3ZM64.7738 16.6371C64.842 16.6181 64.911 16.6039 64.9811 16.594C64.9811 16.5611 64.9811 16.5611 65.0124 16.5385L64.7713 16.5816L64.7738 16.6371ZM63.0618 18.0497C63.0304 17.9839 63.0304 17.9613 63.0618 17.9386C63.0931 17.9613 63.0931 17.9942 63.1248 18.0497H63.0618ZM63.9697 17.0391C63.9384 16.8973 63.888 16.7658 63.8563 16.6218C63.8095 16.6879 63.7884 16.7705 63.7979 16.8524C63.8074 16.9342 63.8468 17.0091 63.9074 17.0617L63.9697 17.0391ZM64.7213 16.1848C64.9304 16.1618 65.1687 16.1417 65.4 16.0964L65.5563 16.1194C65.8165 15.9879 66.5875 16.0434 66.8279 15.9345C66.811 15.9367 66.7934 15.9352 66.7776 15.9294C66.761 15.9235 66.7459 15.914 66.7336 15.9016C66.7617 15.8834 66.7948 15.8753 66.8279 15.8786C66.8434 15.8771 66.8589 15.8797 66.8737 15.8855C66.8881 15.8914 66.9015 15.9002 66.9124 15.9115C66.9434 15.8786 67.006 15.8888 67.0877 15.8563C67.0863 15.439 67.1074 15.0225 67.1507 14.6078C67.0838 14.5848 67.0134 14.5735 66.9434 14.5749C66.9758 14.7043 66.9603 14.8413 66.9001 14.9589H66.6712C66.6403 14.9589 66.6403 14.9589 66.6403 14.9359C66.4783 14.8829 66.3076 14.868 66.1393 14.8932C66.1393 14.9787 66.2548 15.0901 66.2548 15.1661L66.0763 14.9688C65.7852 14.8047 65.3543 14.8701 64.7738 15.1661C64.6449 15.4803 64.6189 15.8304 64.6991 16.1621L64.7213 16.1848ZM63.3434 17.0818H63.3751V17.0288H63.3434V17.0818ZM63.719 17.3902C63.7 17.2788 63.5212 17.1933 63.2617 17.1604C63.2807 17.2689 63.5747 17.3018 63.6683 17.3902H63.719ZM63.2617 17.1048H63.3121L63.3244 17.072H63.2617V17.1048ZM64.6058 14.7061H64.6995V14.6505H64.6058V14.7061ZM66.6498 11.7414C66.6797 11.7446 66.7096 11.7366 66.7336 11.7183C66.748 11.5181 66.748 11.3168 66.7336 11.1169H66.6709L66.6498 11.7414ZM62.6041 16.1088V16.0328H62.6355V16.1088H62.6041ZM63.5529 14.4101C63.6155 14.4211 63.6793 14.4054 63.7314 14.367L63.7623 14.2256C63.6884 14.2742 63.6184 14.329 63.5529 14.3897V14.4101ZM64.3865 11.1929H64.4175V11.1173H64.3865V11.1929ZM64.3865 11.0614C64.4122 10.9185 64.3865 10.7705 64.3143 10.6467H64.2517C64.2334 10.7201 64.2344 10.7976 64.2552 10.8706C64.2756 10.9434 64.3143 11.0091 64.3668 11.061H64.3865V11.0614ZM67.4324 18.045C67.3919 18.0676 67.3919 18.1005 67.3697 18.1232C67.2796 18.1173 67.1888 18.1239 67.1 18.144L66.9846 18.0019C67.025 17.6244 67.0324 17.244 67.006 16.8648H66.9846C66.8121 16.9894 66.6167 17.0752 66.4111 17.1176C65.7119 17.4308 64.9741 17.6412 64.2196 17.7417C64.2196 17.8276 64.3862 18.0146 64.3862 18.0146C64.3552 18.0304 64.3203 18.0333 64.2879 18.023C64.2548 18.0125 64.2274 17.9894 64.2101 17.9587C64.114 17.9185 64.0257 17.8594 63.9503 17.7845L63.5747 17.7516C63.5434 17.696 63.3966 17.6631 63.0931 17.6631C62.8956 17.5769 62.7801 17.357 62.7295 16.996C62.7076 16.7226 62.7076 16.4599 62.6861 16.2075C62.6861 16.1844 62.6552 16.1844 62.6235 16.1519C62.6661 16.1526 62.7083 16.1457 62.7488 16.1311V15.8786C62.7291 15.8585 62.6981 15.8585 62.6668 15.8256C62.6414 15.8585 62.6203 15.8947 62.6041 15.9341C62.5728 15.9111 62.5728 15.8585 62.5513 15.803C62.6333 15.7843 62.7143 15.7595 62.7925 15.7273C62.8326 15.3086 62.9199 14.8961 63.0526 14.4989C63.1385 14.3096 63.2639 14.1434 63.4191 14.0122C63.5743 13.8814 63.756 13.7882 63.9507 13.7407C64.6407 13.7904 65.3338 13.7506 66.014 13.622C66.2822 13.6373 66.5505 13.6373 66.8184 13.622C66.9001 13.5891 67.0254 13.5438 67.2035 13.4678C67.1807 13.0198 67.0997 12.5781 66.9627 12.1535C66.591 12.1743 66.2182 12.163 65.8478 12.1206C65.494 12.1206 64.9617 12.1206 64.2827 12.1433C64.0992 12.1835 63.9183 12.235 63.7409 12.2978C63.8701 12.2953 63.9989 12.3062 64.126 12.3307V12.3636C64.0626 12.353 63.9975 12.3578 63.9355 12.3786C63.8743 12.3994 63.8187 12.4345 63.7725 12.482C63.6895 12.4849 63.6081 12.5039 63.5314 12.5375L63.5434 12.3176H63.6567V12.2975C63.449 12.209 63.3966 12.0446 63.5212 11.8042C63.5522 11.4235 63.5096 11.0398 63.3966 10.677C63.216 10.7066 63.0378 10.7501 62.8639 10.8082C62.8956 10.4998 63.3117 10.3481 64.0538 10.3025C64.1165 10.2696 64.1985 10.214 64.2946 10.1713C64.6245 10.2418 64.9607 10.2678 65.2969 10.2469C65.7975 10.2268 66.089 10.1812 66.1323 10.0726C66.1516 10.0496 66.214 10.0496 66.2766 10.0171C66.3312 10.0478 66.3727 10.0993 66.3921 10.1614C66.5861 10.1914 66.7832 10.1914 66.9772 10.1614C67.218 10.1614 67.57 10.1845 68.0396 10.217C68.3121 10.5268 68.5603 10.86 68.781 11.2126L68.9782 11.7914C69.0004 12.3731 68.9796 12.9555 68.9162 13.5332C68.9162 14.0816 68.9782 14.4861 69 14.7587C68.9567 15.4387 68.9254 15.7701 68.9567 15.7701C68.8486 16.1187 68.8099 16.487 68.8433 16.852C68.8757 17.2141 68.8578 17.5791 68.7905 17.9361C68.712 18.0304 68.6159 18.1075 68.5086 18.1615C68.4005 18.2163 68.2836 18.2478 68.1643 18.2547C67.9305 18.1601 67.6887 18.0903 67.4419 18.045H67.4324ZM60.2588 16.4223H60.2902V16.3993H60.2588V16.4223ZM59.4354 17.6858L59.4041 17.6306H59.2882C59.2882 17.6635 59.2882 17.719 59.3196 17.7417L59.4354 17.6858ZM60.1962 16.3489C60.1962 16.316 60.1451 16.2403 60.0296 16.119C59.9987 16.1519 60.0613 16.2403 60.1768 16.3489H60.1962ZM59.4977 15.9773V15.9243C59.4667 15.9243 59.4667 15.9243 59.4667 15.9444L59.4977 15.9773ZM59.4446 17.2261C59.0693 16.9203 58.8306 16.7764 58.7225 16.7764C58.9221 17.1048 58.9633 17.1377 59.3073 17.2261H59.4446ZM59.0548 15.6111H59.0862V15.5783H59.0548V15.6111ZM59.9529 16.0935C59.8631 15.9922 59.7825 15.8823 59.7121 15.7653C59.5206 15.6433 59.3421 15.5001 59.1798 15.3378H59.127C59.1622 15.3678 59.1911 15.4051 59.2108 15.4467C59.358 15.591 59.5868 15.8081 59.9093 16.0938H59.9529V16.0935ZM58.4409 15.0192V14.9662H58.3782C58.3782 14.9991 58.3782 14.9991 58.4096 15.0192H58.4409ZM59.0355 15.1939C59.0073 15.1756 58.9742 15.1679 58.9411 15.1709C58.8292 14.9706 58.6842 14.793 58.5127 14.6454C58.2529 14.3601 58.0744 14.2179 57.992 14.2179C58.1184 14.4072 58.2613 14.5826 58.4184 14.7437C58.6232 14.8771 58.8095 15.04 58.9725 15.2264L59.0355 15.1939ZM57.9618 14.1829C57.9927 14.1953 57.9927 14.1953 58.0244 14.1624H57.9618V14.1829ZM55.3218 17.6657C55.2799 17.5429 55.262 17.4125 55.2694 17.2817H55.3633C55.3827 17.2324 55.4116 17.1874 55.4475 17.1505H55.4788C55.4563 17.3233 55.414 17.4932 55.3538 17.6558L55.3218 17.6657ZM56.9599 14.2716H57.0127V14.2161L56.9599 14.1956V14.2716ZM55.0504 17.8732C55.2799 17.8667 55.5084 17.8298 55.7291 17.7618C55.6569 17.2159 55.6355 16.9631 55.6355 17.0033C55.6041 16.7508 55.551 16.4574 55.5006 16.0964L55.4162 16.1494V16.5009C55.4162 16.5337 55.3848 16.6982 55.3415 16.9379C55.3355 17.0124 55.306 17.0825 55.257 17.1363C55.2077 17.1903 55.1426 17.2247 55.0719 17.2338L55.0504 17.8732ZM54.7276 17.8732C54.761 17.472 54.7684 17.0694 54.7494 16.6671C54.7406 17.0716 54.7015 17.475 54.6339 17.8732H54.7276ZM54.7276 16.5915C54.7589 16.5915 54.7589 16.5915 54.7589 16.5586L54.7276 16.5915ZM55.5197 15.4971V15.3883L55.395 15.4869C55.4067 15.4975 55.4155 15.5107 55.4207 15.5256C55.426 15.541 55.4281 15.5567 55.426 15.5731L55.5197 15.4971ZM57.0753 12.7169H57.2003C57.1982 12.7023 57.2003 12.6881 57.2059 12.6745C57.2116 12.661 57.2204 12.6497 57.232 12.6409C57.1894 12.638 57.1464 12.645 57.1067 12.6618L57.0753 12.7169ZM57.0225 12.7929L57.0753 12.7396L57.0225 12.7929ZM55.0138 15.6791L54.9511 15.7018C54.9328 15.9151 54.9508 16.13 55.0043 16.3361L55.0138 15.6791ZM54.7012 15.1734H54.7328V15.1405H54.7012V15.1734ZM55.6182 13.6092C55.5872 13.5862 55.5872 13.5332 55.5989 13.4448C55.5679 13.4448 55.5679 13.5003 55.5556 13.6421L55.6182 13.6092ZM54.7328 14.8731C54.7328 14.85 54.7638 14.8175 54.7948 14.7415H54.7423L54.7328 14.8731ZM54.472 14.9282H54.5037C54.5037 14.8954 54.5037 14.8954 54.472 14.8731V14.9282ZM55.6087 12.6537H55.6837V12.4012L55.6615 12.4243L55.6087 12.6537ZM54.4818 14.4485C54.4818 14.5369 54.4604 14.0765 54.4505 13.1141C54.4192 13.1141 54.4192 13.1141 54.3878 13.147C54.3801 13.5814 54.4005 14.0166 54.4505 14.4489H54.4818V14.4485ZM55.0863 13.6293C55.118 13.5409 55.1613 13.0809 55.2334 12.2924H55.1806C55.2173 12.0735 55.1764 11.848 55.0673 11.6584C55.0138 11.809 54.9821 11.9675 54.9736 12.1279C54.9451 12.2317 54.9405 12.3413 54.9613 12.4469C55.024 12.4798 55.0458 12.8613 55.024 13.6169L55.0863 13.6293ZM54.535 12.1937L54.554 12.1732C54.554 12.1404 54.554 12.1404 54.535 12.1177V12.1937ZM55.3679 10.3894H55.3898C55.4211 10.3664 55.4211 10.3339 55.4211 10.278H55.3683V10.3894H55.3679ZM54.535 11.9208C54.535 11.8977 54.535 11.8977 54.5663 11.8977C54.5977 11.5696 54.6072 11.2404 54.6167 10.9123H54.554L54.535 11.9208ZM54.9831 10.1362H55.0141V10.0602H54.9923L54.9831 10.1362ZM54.4097 11.0764C54.409 11.0658 54.4058 11.0548 54.4009 11.0457C54.3952 11.0365 54.3878 11.0285 54.3787 11.0234C54.3787 11.0435 54.3787 11.0435 54.3474 11.0764H54.4097ZM54.9923 10.0273H55.0141V9.9718H54.9831L54.9923 10.0273ZM54.7223 9.99482H54.754V9.9718H54.7202L54.7223 9.99482ZM54.6698 9.80774H54.7012V9.7522H54.6698V9.80774ZM55.4619 10.202L55.4933 11.1549C55.4619 11.1319 55.4619 11.1319 55.4429 11.1319C55.3679 11.4501 55.3679 11.6146 55.3993 11.6372C55.3993 11.8901 55.3176 9.64295 55.3993 9.86803C55.3795 9.97655 55.3686 10.0865 55.3679 10.1965L55.4619 10.202ZM55.6812 10.639H55.6182C55.6499 10.6719 55.6499 10.7274 55.6812 10.7504V10.639ZM54.6385 9.75183L54.7328 9.66597C54.7012 9.64295 54.7012 9.61043 54.6793 9.53443C54.6484 9.53443 54.6484 9.53443 54.6484 9.55489L54.6385 9.75183ZM55.4429 10.8794C55.4271 10.8999 55.419 10.9251 55.419 10.9514C55.419 10.977 55.4271 11.0029 55.4429 11.0234V10.8794ZM54.0654 10.4651C54.0967 10.442 54.128 10.4223 54.128 10.3894C54.1168 10.388 54.1059 10.3887 54.0946 10.3924C54.084 10.396 54.0738 10.4015 54.0654 10.4095V10.4651ZM54.472 9.22641C54.472 9.20632 54.472 9.20632 54.4502 9.17343H54.3875C54.3871 9.2118 54.3981 9.2498 54.4188 9.28195L54.472 9.22641ZM54.554 11.2207V11.1323C54.523 11.1323 54.429 8.68053 54.3981 8.73607L54.554 11.2207ZM54.523 11.0237H54.554V10.9452H54.523V11.0237ZM54.9733 10.9576C55.0046 10.8158 55.0669 10.5403 55.1292 10.1362C54.8962 10.153 54.6617 10.153 54.4287 10.1362C54.3977 10.2732 54.3977 10.4165 54.4287 10.5535H54.4794C54.5051 10.4892 54.5266 10.4238 54.5424 10.3565H54.8121C54.8733 10.5528 54.9191 10.7537 54.9493 10.958H54.9733V10.9576ZM54.0559 18.0066C54.1393 17.8228 54.171 17.6178 54.147 17.4158C54.1692 16.6269 54.1594 15.8837 54.147 15.2596L54.1787 15.237C54.1569 15.0393 54.1379 14.5267 54.128 13.6494C54.128 13.6289 54.128 13.3008 54.1787 12.6208C54.147 12.4034 54.128 12.1605 54.0749 11.8879C53.9939 11.1535 53.9798 10.4132 54.0344 9.6762C54.0344 9.65318 54.0657 9.65318 54.0971 9.65318H53.9981C54.0393 9.43578 54.0707 9.14785 54.1115 8.72328C54.1115 8.42732 54.1643 10.4746 54.0802 9.8958C54.1115 9.76462 54.1742 9.68607 54.2674 9.68607C54.3618 9.68607 54.5811 9.79751 54.7061 9.80737C54.8972 9.80409 55.0877 9.77083 55.2697 9.70872C55.2697 9.70872 55.3852 9.70872 55.6239 9.6857C55.7348 9.66743 55.8499 9.69082 55.9463 9.75147C56.021 10.1914 56.0931 10.8484 56.1656 11.7457C56.1875 12.2058 56.115 10.1914 56.1026 10.6514C56.1245 10.7928 56.1245 10.8484 56.1026 10.8692C56.0618 11.4377 56.0308 11.7333 56.0308 11.7662L55.9995 13.212C56.0308 13.235 56.0308 13.235 56.0498 13.235C56.3082 13.0176 56.5501 12.7794 56.7726 12.5222C57.0091 12.3406 57.2285 12.1356 57.4274 11.9105C57.4767 11.8776 57.5288 11.8513 57.5837 11.832C57.9206 11.4063 58.2948 11.0146 58.701 10.6616C58.7637 10.4746 58.9105 10.3891 59.1707 10.4092C59.2361 10.4377 59.3073 10.4486 59.3777 10.442C59.5248 10.442 60.0881 10.278 60.2976 10.278C60.507 10.278 60.5574 10.3635 60.8274 10.3964C60.8492 10.4749 60.8805 10.5937 60.9115 10.7479C60.8161 10.9225 60.7116 11.0906 60.5982 11.2536C60.3053 11.5028 60.0328 11.7775 59.7843 12.075L59.5146 12.315C59.0404 12.7421 58.5877 13.1952 58.1586 13.672C58.4814 13.9746 58.7711 14.3137 59.0232 14.6834C59.3361 14.9666 59.6276 15.2195 59.9212 15.4416L60.6725 16.2407C61.0344 16.484 61.3318 16.8195 61.5371 17.2163H61.5902C61.6371 17.3248 61.6959 17.4275 61.7659 17.5217C61.7659 17.631 61.8719 17.9036 61.8719 18.0475L61.7779 18.1232C60.9052 18.0629 60.03 18.0629 59.158 18.1232L58.9823 18.0121C58.8795 17.6237 58.706 17.2594 58.4722 16.9404C58.2096 16.6342 57.9903 16.2933 57.7491 15.967C57.5717 15.7237 57.3608 15.5088 57.1232 15.3305C57.0292 15.2114 56.9137 15.0777 56.7789 14.8829C56.6222 14.8829 56.3311 15.1354 55.871 15.6407C55.8932 16.1468 55.871 16.351 55.9118 16.2981C55.9027 16.8381 55.9843 17.3752 56.1526 17.8853C56.0903 18.1031 55.6108 18.1915 54.6931 18.2014C54.5779 18.2244 54.3995 18.247 54.1608 18.2671C54.0974 18.1915 54.0611 18.095 54.0576 17.9945L54.0559 18.0066ZM38.7333 10.7504L38.6492 10.6518H38.7643C38.7629 10.6324 38.7569 10.6138 38.7477 10.597C38.7389 10.5798 38.7262 10.5648 38.7115 10.5535C38.7115 10.5864 38.6801 10.5864 38.6488 10.5864L38.6706 10.7607V10.7935H38.7424L38.7333 10.7504ZM38.7333 11.2108H38.7016V11.2437H38.7333V11.2108ZM38.7333 11.3091H38.6706V11.3822H38.7424L38.7333 11.3091ZM39.1909 10.2802C39.2015 10.9967 39.1776 11.7129 39.1188 12.4261H39.2223C39.2223 12.0421 39.2969 11.3321 39.3599 10.5992C39.3159 10.5659 39.3064 10.4548 39.2656 10.2802H39.1909ZM39.6725 11.779C39.6409 11.8243 39.6504 11.8575 39.6725 11.9664H39.7039L39.6725 11.779ZM39.0684 12.6007L38.9646 13.7276C38.9963 13.6947 38.9963 13.6947 39.0368 13.6947C39.0487 13.4422 39.1209 13.0933 39.1744 12.6007H39.0684ZM39.0174 13.839H38.9741L38.9861 13.8719H39.0174V13.839ZM39.6004 12.0322C39.5592 12.3176 39.506 12.775 39.4532 13.3666H39.5493C39.5902 13.0505 39.6532 12.6234 39.6937 12.0322H39.6004ZM39.6317 14.4178H39.5905V14.4938H39.6218L39.6317 14.4178ZM40.1323 14.5819C40.1305 14.679 40.1168 14.7744 40.0915 14.8676H40.2263C40.2284 14.7686 40.2066 14.6703 40.1636 14.5819H40.1323ZM39.6317 14.4938C39.6004 14.5267 39.5687 14.5267 39.5377 14.5596C39.3726 15.1847 39.2515 15.8216 39.174 16.4654L39.3402 16.8165C39.3694 16.8407 39.4064 16.8531 39.4437 16.8494C39.4124 16.7351 39.4124 16.6134 39.4437 16.4983L39.6317 14.4938ZM40.4041 15.568H40.3608L40.3731 15.6338H40.4139L40.4041 15.568ZM43.7618 9.31739H43.8361C43.8333 9.40472 43.8506 9.49132 43.8868 9.57024H43.6798C43.7111 9.53735 43.6992 9.42847 43.7305 9.31739H43.7618ZM40.7537 17.4487L40.7223 17.4815C40.7223 17.5144 40.7223 17.5144 40.7632 17.5144L40.7537 17.4487ZM44.9148 11.2178C44.8834 11.251 44.8926 11.2839 44.862 11.3292C44.8929 11.3292 44.9246 11.3292 44.9246 11.2839L44.9148 11.2178ZM44.8475 11.6354H44.8166V11.7012H44.8475V11.6354ZM44.8475 11.8879H44.8166V11.9208H44.8475V11.8879ZM44.8042 12.095H44.763V12.1382H44.7947L44.8042 12.095ZM43.0729 16.4851C43.0729 16.518 43.0412 16.518 43.0007 16.5283H43.0729V16.4851ZM43.4387 16.2981C43.419 16.3693 43.4119 16.4439 43.4168 16.518C43.5228 16.518 43.5855 16.4398 43.6165 16.2981H43.4387ZM44.5342 14.3824H44.5029V14.4255H44.5441L44.5342 14.3824ZM44.4818 14.557L44.4501 14.5698V14.6027H44.4909L44.4818 14.557ZM45.0542 17.1852C45.0232 17.1852 45.0232 17.1852 44.9915 17.2181L45.0232 17.251L45.0542 17.1852ZM45.1605 16.8341H45.1292V16.9327H45.1605V16.8341ZM46.0466 15.9042H46.0033L46.0153 15.9371H46.0466V15.9042ZM45.9118 16.0028C45.6924 16.5717 45.3795 17.2842 45.4302 17.7011C45.4302 17.7439 45.471 17.734 45.5023 17.7768L45.6491 17.764C45.7213 17.1754 45.8371 16.8896 46.0244 15.9371L45.9118 16.0028ZM46.4729 15.2596C46.3782 15.53 46.3222 15.8139 46.3067 16.1015C46.3856 15.9119 46.5159 15.7518 46.6824 15.6411C46.6225 15.5191 46.5729 15.3912 46.5352 15.2596H46.4729ZM49.9043 8.97868C49.9043 9.01157 49.9043 9.01157 49.9451 9.01157C49.9314 9.02472 49.9148 9.03459 49.8969 9.04043C49.8789 9.04628 49.8602 9.04774 49.8416 9.04445L49.9043 8.97868ZM46.1476 17.4837C46.1283 17.5824 46.066 17.6913 46.0441 17.7998C46.1476 17.757 46.2004 17.658 46.1909 17.4837H46.1476ZM49.9043 9.26186C49.9043 9.29474 49.9043 9.29474 49.8729 9.29474C49.905 9.26697 49.9264 9.22861 49.9356 9.18622L49.9043 9.26186ZM49.9979 9.07734V9.15334H49.8606V9.08757L49.9979 9.07734ZM46.8366 16.6901C46.8088 16.8162 46.7982 16.9455 46.8052 17.0745C46.7155 17.2649 46.6521 17.4673 46.6172 17.6759C46.77 17.6529 46.9207 17.6164 47.0675 17.567C47.0555 17.4556 46.9422 16.9634 46.9112 16.6901H46.8366ZM47.672 16.9426C47.6287 16.9426 47.5973 16.9755 47.5252 17.2612C47.5565 17.2283 47.5878 17.2283 47.6913 17.183L47.672 16.9426ZM49.6321 12.8583C49.648 12.9526 49.648 13.0494 49.6321 13.1437C49.8416 13.1437 49.9352 13.0352 49.9039 12.7926L49.6321 12.8583ZM50.3112 12.957H50.2366L50.2482 13.0228H50.3112V12.957ZM49.8824 14.6096H49.8103C49.8507 14.6553 49.8507 14.6553 49.8507 14.6882L49.8824 14.6096ZM49.1122 16.0657C49.1122 16.1442 49.1629 16.1771 49.266 16.1771C49.266 16.1315 49.266 16.0986 49.2157 16.0657H49.1122ZM49.9546 14.7211C49.8919 14.754 49.8507 14.754 49.8606 14.7868H49.9669L49.9546 14.7211ZM50.3306 13.5157C50.3112 13.6925 50.3306 13.801 50.3619 13.8339C50.3619 13.8668 50.3619 13.8668 50.3306 13.8997H50.258V14.0082C50.3049 13.9581 50.3633 13.9205 50.4267 13.8997C50.4411 13.7718 50.4411 13.6432 50.4267 13.5157H50.3306ZM50.947 12.3453C50.8002 12.5978 50.8122 12.7725 50.9878 12.8054L50.947 12.3453ZM50.947 13.1868C50.9252 13.2983 50.9685 13.3637 51.0413 13.4623H51.1135C51.0723 13.3965 51.0625 13.2858 51.0192 13.1868H50.947ZM49.8201 16.5816H49.7163V16.6145H49.8201V16.5816ZM51.1033 14.0539C51.072 14.0868 51.072 14.1196 51.0508 14.1956C51.0818 14.1956 51.0818 14.1956 51.1251 14.2285L51.1033 14.0539ZM51.1251 14.3699V14.5143V14.3699ZM50.4267 16.1768C50.1855 16.2096 50.1979 16.2856 50.1669 16.3185C50.2704 16.2754 50.3739 16.2754 50.4369 16.2425L50.4267 16.1768ZM50.8241 14.8628C50.8023 15.0046 50.8023 15.1486 50.8241 15.29H50.9903C50.9642 15.1329 50.9146 14.9809 50.8435 14.8405L50.8241 14.8628ZM50.1859 16.8443C50.1859 16.8772 50.1979 16.9558 50.1669 16.9886C50.3021 16.943 50.408 16.943 50.4675 16.9101C50.4267 16.8772 50.3545 16.8772 50.3232 16.8443H50.1859ZM51.022 15.8055H50.8435C50.8435 15.8384 50.9998 15.9045 51.0311 15.9045L51.022 15.8055ZM49.9043 16.882H49.8321C49.7789 17.057 49.9476 16.662 50.1232 17.3295C50.1546 18.4038 50.364 17.4607 50.3232 17.6379C50.1042 17.5722 50.0102 17.3295 50.0511 16.9481L49.9043 16.882ZM51.1779 16.4325C51.0896 16.4581 50.9977 16.4698 50.9065 16.4654V16.6397C50.9875 16.7241 51.0956 16.7753 51.2093 16.784L51.1779 16.4325ZM51.1779 17.582H51.1156C51.173 17.6098 51.2321 17.6321 51.2938 17.6482L51.2818 17.5722L51.1779 17.582ZM50.6745 9.61299C50.7516 9.64295 50.834 9.65428 50.9157 9.64587C51.0625 9.74453 51.1568 10.0303 51.2381 10.4446C51.2381 10.4779 51.2381 10.4779 51.2072 10.5232C51.2191 10.6218 51.2596 11.0135 51.2818 11.6047C51.2867 11.9672 51.3103 12.3293 51.354 12.6895C51.3948 13.1949 51.5205 14.059 51.6764 15.3506C51.8331 16.6423 52.4492 18.3154 51.6571 17.954C51.1132 18.1509 49.6948 18.2295 49.6004 17.2539C49.5695 16.9379 49.4251 17.582 49.3818 17.4739L49.3406 17.0139C49.2752 17.0022 49.2121 16.9799 49.153 16.9481C48.7893 17.1352 48.2666 17.4308 47.5685 17.8553C47.4023 17.9339 47.1397 18.0424 46.8074 18.1966C46.2832 18.3135 45.7445 18.3468 45.2108 18.2953C44.9292 17.9112 44.5754 17.4311 44.1276 16.7789C44.0864 16.784 44.0452 16.7723 44.0121 16.746C43.1687 17.2393 42.2724 17.6244 41.3416 17.8937C41.1849 18.038 40.8403 18.1137 40.289 18.1235C40.0482 17.9492 39.7567 17.7523 39.3497 17.479L39.1089 17.2722C38.8917 16.9225 38.6932 16.5608 38.5143 16.1874C38.4453 15.8443 38.3996 15.4964 38.3774 15.146C38.2915 15.0854 38.2214 15.0024 38.1739 14.906C38.126 14.8091 38.1024 14.7013 38.1053 14.5928C38.0954 14.3696 38.1091 14.1456 38.1457 13.9256C38.1774 13.577 38.1989 13.3571 38.1989 13.3242C38.1732 12.5657 38.1904 11.806 38.2496 11.0493L38.2014 10.6247C38.145 10.6014 38.0838 10.5897 38.0229 10.5919C37.9722 10.4607 37.7821 10.21 37.7634 10.0865C37.7944 10.0533 37.8983 10.0409 38.1387 10.0409C38.4548 9.86255 38.8037 9.75841 39.1621 9.73503C39.5226 9.66926 39.8943 9.73539 40.2143 9.9221C40.2668 10.031 40.3298 10.6653 40.4551 11.848C40.383 13.6176 40.5611 15.0126 40.9776 16.0942C41.1948 16.2078 41.4451 16.2275 41.6757 16.1497C41.9133 16.0788 42.1541 16.024 42.398 15.9857C42.5135 16.0942 42.7832 16.0514 43.2528 15.8998C43.3105 15.5132 43.4577 15.1478 43.6819 14.8358C43.6893 14.1226 43.7347 13.4104 43.8168 12.7023C43.7854 12.3841 43.7446 11.9898 43.67 11.5426C43.5253 10.4249 43.3693 10.2787 43.4288 9.85634C43.5862 9.78837 43.739 9.70726 43.884 9.61372L45.1028 9.59107C45.7914 9.61372 45.7914 9.61372 45.9888 10.2053C46.1452 11.3657 46.3335 12.5912 46.5644 13.8825C46.6056 13.9154 46.6151 14.014 46.6584 14.158C46.7137 14.4704 46.8045 14.7751 46.9281 15.0656C47.1474 15.6239 47.2847 15.9425 47.2942 16.0083C47.328 15.929 47.3836 15.8625 47.454 15.8172C47.5248 15.7723 47.6072 15.7507 47.6892 15.7558C47.7385 15.8428 47.7804 15.9341 47.8145 16.0284C48.2303 15.8373 48.6556 15.6681 49.0879 15.5231C49.2445 15.3031 49.2762 14.9191 49.2544 14.3604C49.2227 13.9687 49.1917 13.3772 49.1822 12.4999C49.1294 11.6584 49.0977 10.9835 49.0572 10.5411C49.1301 10.4125 49.1523 10.2594 49.1199 10.1143C49.0791 9.69666 49.1921 9.76243 49.912 9.64368C49.9106 9.60532 49.9215 9.56732 49.9423 9.53553C49.9634 9.50374 49.993 9.47962 50.0275 9.46684C50.0782 9.56549 50.288 9.63126 50.6731 9.62103L50.6745 9.61299ZM34.4254 17.1023C34.4666 16.977 34.4982 16.8487 34.5194 16.7179H34.4254C34.3817 16.8407 34.3606 16.9711 34.3627 17.1023H34.4254ZM33.9677 17.7366H34.2085C34.3279 17.566 34.3835 17.3559 34.3652 17.1454H34.2712C34.2677 17.1695 34.2585 17.1925 34.2441 17.2119C34.2296 17.2316 34.211 17.247 34.1895 17.2565C34.0642 17.2009 34.0114 17.1352 34.0114 17.0467C33.9487 17.0796 33.8864 17.2236 33.8551 17.4867C33.8075 17.5594 33.766 17.6365 33.7297 17.7165C33.8079 17.6931 33.8896 17.6851 33.9705 17.6935L33.9677 17.7366ZM34.9168 14.7262C34.8851 14.7466 34.8851 14.7795 34.9168 14.868V14.7262ZM34.613 15.1734C34.6461 15.0989 34.6743 15.0221 34.6971 14.9436H34.7598C34.7535 15.0273 34.7323 15.1084 34.6971 15.1833L34.613 15.1734ZM33.101 16.7606C33.195 16.738 33.195 16.7051 33.226 16.6722H33.101V16.7606ZM33.1323 16.617C33.1446 16.6046 33.1594 16.5951 33.176 16.5896C33.1922 16.5838 33.2094 16.582 33.2263 16.5842V16.4983H33.195L33.1323 16.617ZM33.5079 16.8038C33.6523 16.3225 33.7706 15.8329 33.8621 15.3375H33.8427C33.6368 15.8008 33.5055 16.2959 33.4548 16.8038H33.5079ZM34.5817 13.7934V13.7276C34.5503 13.7605 34.519 13.7605 34.5503 13.7934H34.5817ZM35.9497 11.5594C35.9184 11.5265 35.9279 11.4406 35.9497 11.3065H35.8867C35.8187 11.3994 35.7754 11.5093 35.7617 11.6252C35.793 11.6252 35.793 11.6252 35.8244 11.6584L35.9497 11.5594ZM33.1105 16.2553V16.1468H33.0792C33.0478 16.1695 33.0478 16.202 33.0478 16.2553H33.1105ZM33.8329 14.888C33.8642 14.865 33.8642 14.7996 33.8955 14.7463C33.8642 14.7463 33.8642 14.7463 33.8329 14.7792V14.888ZM33.9269 14.5369C33.9895 14.5369 34.011 14.4836 34.0423 14.3948C34.0269 14.3962 34.0114 14.394 33.9969 14.3882C33.9825 14.3824 33.9691 14.3736 33.9582 14.3619L33.9269 14.5369ZM36.3781 9.9718H36.4193C36.388 9.9718 36.388 9.9718 36.388 9.93891L36.3781 9.9718ZM33.5611 14.8325C33.5611 14.7667 33.5611 14.7138 33.5924 14.6809H33.5298C33.4984 14.7013 33.4984 14.7667 33.4984 14.8226L33.5611 14.8325ZM35.68 10.9905H35.6973V10.9247H35.6656L35.68 10.9905ZM34.7165 13.3567C34.8615 12.9453 35.0362 12.5463 35.2389 12.1634C35.3023 11.973 35.3752 11.7867 35.4583 11.6047C35.5438 11.4428 35.5973 11.2634 35.6146 11.0793H35.5515C35.4678 11.2766 35.3424 11.4509 35.2484 11.6584C35.0921 11.9438 35.0295 12.1637 35.0608 12.2394C34.82 12.4469 34.695 12.8181 34.6855 13.3768L34.7165 13.3567ZM33.1323 15.4694V15.085C33.1485 15.0466 33.1591 15.0057 33.1637 14.9637C33.0693 15.1146 33.0154 15.2892 33.0073 15.4694H33.1323ZM34.1532 13.1364H34.2159C34.1846 13.1364 34.1846 13.1364 34.1846 13.1035L34.1532 13.1364ZM35.3576 10.6847H35.3886V10.662H35.3576V10.6847ZM35.1502 11.1904C35.2319 11.1118 35.2632 11.0135 35.2319 10.9602C35.2129 10.993 35.1812 10.993 35.1502 11.0135V11.1904ZM33.226 14.9209C33.4259 14.4193 33.5931 13.9044 33.7269 13.379C33.4689 13.8653 33.2689 14.3831 33.1323 14.9209H33.226ZM35.114 10.7303L35.1668 10.6748H35.114V10.7303ZM33.32 13.3666H33.3728V13.2804H33.32V13.3666ZM32.6433 9.92905C32.6289 9.92576 32.6159 9.91772 32.6064 9.90566C32.5969 9.89397 32.5912 9.87936 32.5905 9.86364C32.4437 9.81066 32.3811 9.74489 32.4124 9.65647C32.5592 9.65647 32.6532 9.75549 32.706 9.92941H32.6433V9.92905ZM32.0174 11.7359L31.9956 11.7132C31.8703 11.6475 31.7861 11.6146 31.7235 11.5817C31.526 11.3292 31.3792 11.2207 31.2419 11.2207C31.2105 11.3091 31.4394 11.4962 31.909 11.726L32.0174 11.7359ZM31.6031 10.5535H31.6657V10.5206H31.6031V10.5535ZM30.8328 10.9145C30.8328 10.8816 30.8328 10.8816 30.8641 10.8615C30.8557 10.8692 30.8455 10.875 30.8349 10.8787C30.8243 10.8823 30.8127 10.8831 30.8015 10.8816L30.8328 10.9145ZM31.8439 17.8126C31.9065 17.5597 31.9692 17.2868 32.01 17.0241C32.2248 16.503 32.4106 15.97 32.5662 15.4263C32.7662 14.4152 32.901 13.5537 32.9732 12.8989C32.7324 12.7239 32.4779 12.5697 32.2124 12.4389C31.6446 12.0947 31.1162 11.6833 30.6374 11.213C30.2861 10.9569 29.9168 10.7296 29.532 10.5334C29.463 10.4512 29.4222 10.347 29.4165 10.2374C29.4165 10.119 29.6355 9.98495 30.0738 9.84355C30.0738 9.72443 30.2301 9.66889 30.5554 9.64587C31.244 9.34005 31.6295 9.17599 31.6823 9.20887L32.0361 9.41605C32.1202 9.62578 32.4117 9.89872 32.9028 10.27C33.1218 10.4921 33.364 10.6876 33.6252 10.8516C34.0635 11.1571 34.3233 11.2784 34.4173 11.2455C34.4549 11.1535 34.5169 11.0734 34.5954 11.0157C34.6204 10.734 34.6838 10.4574 34.783 10.1943H34.7327C34.763 10.0836 34.8049 9.97655 34.8577 9.87607C34.8894 9.76901 34.8894 9.65428 34.8577 9.54722L35.014 9.56001C34.9883 9.78947 34.9327 10.0138 34.8478 10.2272C34.9608 10.2601 35.0235 10.1187 35.0548 9.99737C35.1488 9.80007 35.2741 9.50411 35.4931 9.09999C35.5477 9.00353 35.6329 8.93045 35.7339 8.89282C35.9434 8.89282 36.2665 8.93593 36.6971 8.97868L37.1037 9.16576C37.1449 9.25418 37.1931 9.33895 37.2487 9.4186C37.178 9.51361 37.1248 9.62176 37.0921 9.73722C36.9379 9.86291 36.8312 10.042 36.7911 10.2425C36.7309 10.4238 36.6577 10.5995 36.5718 10.7683C36.4221 11.4224 36.2127 12.06 35.9462 12.6716C35.6015 13.5701 35.3093 14.4905 35.0721 15.4263C35.0055 15.9743 34.8862 16.514 34.7155 17.0361C34.7918 17.4359 34.7443 17.8502 34.5806 18.2193C34.5264 18.2605 34.4595 18.2799 34.393 18.2722C34.1328 18.1539 33.3407 18.1308 32.004 18.2394C31.9224 18.2065 31.828 18.1539 31.8379 17.8246L31.8439 17.8126ZM28.203 18.7651L28.1309 18.634C28.203 18.6669 28.2657 18.6669 28.297 18.687V18.7754L28.203 18.7651ZM28.0777 18.5455V18.5225H28.0995V18.5455H28.0777ZM28.1091 17.757H28.6846C28.6586 17.6748 28.6406 17.5901 28.6318 17.5042H28.4657C28.428 17.5426 28.402 17.5919 28.391 17.646C28.2974 17.6558 28.203 17.6558 28.1094 17.646V17.757H28.1091ZM27.8299 16.3437H27.8492V16.3109H27.8179L27.8299 16.3437ZM27.8179 16.2681H27.8492V16.202H27.8179V16.2681ZM27.8179 15.9948H27.8397V15.932H27.8179V15.9948ZM27.8394 14.8782C27.8612 14.8453 27.8612 14.8226 27.8922 14.8022L27.8394 14.7898V14.8782ZM27.8802 14.549H27.9021V14.5062H27.8802V14.549ZM28.6727 11.2207C28.6811 11.0157 28.6674 10.8104 28.6318 10.609C28.5994 10.8115 28.5994 11.0179 28.6318 11.2207H28.6727ZM27.4011 11.6602L27.4229 11.6372C27.4229 11.6146 27.4229 11.6146 27.4011 11.6146V11.6602ZM28.6846 9.5801C28.8409 9.10985 28.7976 13.083 28.7976 12.8532C28.704 12.8631 28.6097 12.8631 28.516 12.8532C28.4533 13.2902 28.5787 9.32726 28.61 9.5801H28.6846ZM28.1404 12.1078C28.121 12.0848 28.121 12.0651 28.0995 12.0421C28.0886 12.0578 28.083 12.0771 28.083 12.0961C28.083 12.1159 28.089 12.1345 28.0995 12.1502L28.1404 12.1078ZM24.6583 17.5163C24.6425 17.4903 24.6348 17.4593 24.6365 17.4278C24.6583 17.4278 24.6774 17.4278 24.6774 17.4607V17.5269L24.6583 17.5163ZM28.1404 11.9865C28.1552 11.8287 28.1443 11.6705 28.1091 11.5163H28.0584C28.0559 11.6712 28.0696 11.8254 28.0992 11.9767L28.1404 11.9865ZM27.7503 13.5865C27.8137 13.3768 27.8485 13.159 27.8538 12.9395C27.8345 12.7553 27.8345 12.558 27.8031 12.3705C27.7718 12.098 27.6972 11.9438 27.5838 11.9339C27.656 12.0881 27.6873 12.634 27.7088 13.5865H27.7503ZM25.9658 14.0462H25.9877V13.9804H25.9658V14.0462ZM26.5076 13.0355H26.5389V12.9928H26.5076V13.0355ZM25.1639 15.0824C25.1428 15.0422 25.1322 14.9973 25.1325 14.9513C25.1107 15.017 25.0892 15.0623 25.1107 15.0824H25.1639ZM28.8652 10.9682C28.8339 10.6496 28.7712 10.1691 28.6677 9.53224C28.6199 9.51616 28.5685 9.51616 28.5209 9.53224C28.4984 9.66232 28.4878 9.79422 28.4896 9.92649C28.5642 10.1567 28.6896 10.5056 28.8145 10.955L28.8652 10.9682ZM27.7912 10.8363C27.7975 10.7274 27.7802 10.6185 27.7405 10.5177C27.6898 10.6112 27.6679 10.719 27.6778 10.8264L27.7912 10.8363ZM26.3464 12.5452H26.3679V12.5222H26.346V12.5452H26.3464ZM26.6812 11.8093H26.7005V11.7892H26.6812V11.8093ZM23.5505 16.67C23.6131 16.6514 23.6688 16.6138 23.7099 16.56C23.7511 16.5071 23.7754 16.4424 23.7793 16.3741C23.7152 16.3624 23.6526 16.3445 23.5913 16.3207C23.567 16.3843 23.5279 16.4406 23.4783 16.4848L23.5505 16.67ZM23.353 14.9841H23.3723V14.9637H23.353V14.9841ZM26.1489 10.5305C26.1637 10.445 26.1848 10.3602 26.2116 10.278C26.1683 10.278 26.1271 10.3766 26.1056 10.5305H26.1489ZM26.5752 9.48912C26.597 9.48912 26.597 9.46647 26.628 9.45624L26.5752 9.42336V9.48912ZM19.6185 16.5056C19.7847 16.4523 19.8787 16.354 19.8787 16.2531C19.7872 16.0259 19.728 15.7858 19.7027 15.5406C19.6305 15.5406 19.6087 15.5859 19.6087 15.6619L19.6185 16.5056ZM19.4833 13.9355C19.5055 13.9278 19.5266 13.9161 19.546 13.9026L19.7122 17.4815C19.6861 17.483 19.6608 17.4746 19.64 17.4585L19.4833 13.9355ZM21.8505 14.1324C21.7663 13.9355 21.6723 13.8471 21.6097 13.8365C21.641 13.9026 21.7132 13.9881 21.7878 14.1193L21.8505 14.1324ZM21.528 13.7484H21.5787V13.7254H21.528V13.7484ZM21.3808 13.3765H21.4027V13.3534H21.3808V13.3765ZM22.8256 14.4383C22.7982 14.3093 22.7482 14.1869 22.6788 14.0769C22.6595 14.0539 22.4595 13.7488 22.137 13.2C21.8142 12.6515 21.6554 12.3687 21.6047 12.3687C21.6635 12.6935 21.7586 13.0096 21.8864 13.3114C22.0744 13.5639 22.368 13.956 22.7844 14.4386H22.8256V14.4383ZM21.2196 13.0809V13.0151C21.1971 13.0012 21.1728 12.9902 21.1474 12.9822C21.1467 13.0118 21.1534 13.0418 21.1668 13.0681L21.2196 13.0809ZM19.4355 15.3554H19.4668V15.3126H19.4355V15.3554ZM20.2853 12.646C20.4515 12.646 20.4733 12.5372 20.348 12.3402C20.348 12.292 20.3554 12.2441 20.3698 12.1985V12.034C20.3497 11.9756 20.3128 11.9255 20.2638 11.8901C20.223 12.0443 20.2012 12.1425 20.223 12.1656L20.2853 12.646ZM20.7021 10.3259C20.7239 10.3028 20.7239 10.3028 20.7454 10.3028C20.7454 10.073 20.7141 9.92137 20.6394 9.89872L20.5986 9.94184L20.7021 10.3259ZM19.6185 13.8847C19.6333 13.3582 19.6157 12.8313 19.5654 12.3077C19.5587 12.0852 19.5626 11.8623 19.5777 11.6405C19.571 11.4048 19.5098 11.1754 19.3996 10.9704C19.3274 11.0161 19.3369 11.1801 19.3996 11.4534C19.4415 11.6471 19.452 11.847 19.4309 12.0446C19.4717 12.7447 19.5249 13.402 19.5657 14.0031L19.6185 13.8847ZM20.3071 11.357C20.2487 10.9982 20.1579 10.6463 20.035 10.3058C20.0086 10.3986 19.9949 10.4947 19.9942 10.5911C19.9942 10.7325 19.8882 10.5027 19.9628 10.7654C19.9994 10.9638 20.0519 11.1578 20.1191 11.3471L20.3071 11.357ZM19.64 10.6141H19.7122V10.5911H19.64V10.6141ZM19.6185 10.3942H19.6404V10.3284H19.6087L19.6185 10.3942ZM28.0753 18.3307C28.0471 18.2686 28.0302 18.2014 28.0246 18.1334C27.776 18.1188 27.5282 18.0895 27.2832 18.045C27.2106 17.9591 27.2325 17.6409 27.3145 17.1048C27.3145 16.5359 27.3578 15.7705 27.4085 14.7846C27.4483 14.4795 27.4588 14.1715 27.4398 13.8642C27.4564 13.5584 27.4289 13.2515 27.3581 12.9544C27.3775 12.934 27.399 12.934 27.4208 12.9113C27.3877 12.8006 27.3627 12.6877 27.3462 12.573C27.3895 12.5401 27.4208 12.497 27.4088 12.474C27.3969 12.4513 27.3367 12.178 27.3462 11.6526C27.368 11.084 27.2332 15.1003 27.2332 15.0799C27.2332 15.0598 27.2332 14.9487 27.2018 14.7945C27.2004 14.439 27.2244 14.0846 27.2744 13.7327C27.2525 12.79 27.2525 12.3428 27.2744 12.4517L27.2212 12.3428C26.9737 12.8963 26.6956 13.4335 26.3879 13.9527C26.3545 14.2172 26.2232 14.4569 26.0218 14.6199C25.793 15.1 25.6367 15.4946 25.5208 15.7569C25.3614 15.9995 25.2448 16.2699 25.1766 16.556C25.1378 16.8293 25.0378 17.0891 24.8851 17.3142L23.7075 17.2484C23.6226 17.2784 23.5343 17.2974 23.4449 17.304C23.2569 17.281 23.2041 16.8436 23.1002 16.6894C23.0809 16.5378 22.8306 16.1841 22.4236 15.6784C22.1008 15.1727 21.6192 14.4299 21.0052 13.444C20.9834 13.444 20.9834 13.444 20.9644 13.4671C20.945 13.4897 20.9426 13.7499 20.9331 14.2C20.9193 14.4372 20.9299 14.6758 20.9644 14.9103C20.9704 15.0857 20.9598 15.2622 20.9331 15.4358C21.027 16.5531 20.8704 13.9366 20.7958 14.9301C20.7943 15.1763 20.8334 15.4211 20.9112 15.6532C20.8845 15.7752 20.8707 15.8998 20.8704 16.0251C20.8802 16.3313 20.9183 16.636 20.9837 16.9349C21.0517 17.2393 21.0799 17.5521 21.0679 17.8648C21.0461 17.8849 21.0461 17.9507 21.0461 18.0494C20.6704 18.0724 20.1286 18.1155 19.4207 18.2138C19.3077 18.2061 19.1993 18.1644 19.1077 18.0947C19.1077 18.072 19.1486 17.7764 19.264 17.2177C19.2834 17.1976 19.2834 17.175 19.3049 17.1648C19.3035 17.1472 19.2957 17.1311 19.283 17.1191L19.2422 15.1171C19.2014 14.3385 19.3147 17.3387 19.1795 16.803C19.2014 16.7577 19.2014 16.7373 19.2323 16.7248C19.201 16.4844 19.1577 15.8172 19.1169 14.7024C19.1348 14.3743 19.1274 14.0444 19.095 13.717C19.0444 13.1583 19.0134 12.8298 19.0134 12.706C18.9965 12.4265 19.0208 12.1462 19.0855 11.8744L19.0637 10.9346C19.0855 10.6613 19.2633 10.6817 19.3045 10.156V9.84976C19.3239 9.84976 19.3239 9.84976 19.3457 9.8271C19.3689 9.72955 19.3869 9.63089 19.3985 9.53114C19.3239 9.53114 19.2517 9.6298 19.2299 9.85962C19.1989 9.92795 19.1714 9.99774 19.1482 10.0694L19.0229 10.0361C18.9641 9.85853 18.9222 9.67474 18.8979 9.48803C18.8859 9.29072 19.0109 9.17234 19.2422 9.14932C19.264 9.14895 19.2851 9.14384 19.3045 9.13434C19.3239 9.12484 19.3411 9.11095 19.3556 9.09378C19.5242 9.09378 19.8034 9.09378 20.2103 9.07368C20.4919 9.05834 20.7739 9.05834 21.0556 9.07368C21.2555 9.2381 21.2964 9.74087 21.472 9.89507C21.5034 10.0493 21.472 9.81943 21.5878 10.1022C21.6301 10.2225 21.679 10.3394 21.7346 10.4537C21.9096 11.0281 22.1251 11.5883 22.3799 12.1294C22.3799 12.3592 22.6616 12.6983 23.2252 13.8986C23.2456 13.9161 23.2622 13.9377 23.2748 13.9622C23.2875 13.9866 23.2949 14.013 23.2974 14.0404C23.3227 14.0499 23.3477 14.0608 23.372 14.0732C23.3914 14.2377 23.8536 14.6315 23.8536 14.7963H23.8969C24.1039 14.412 24.3232 14.0075 24.5327 13.6034C24.7337 13.2073 24.8914 12.7885 25.0019 12.3545C25.173 11.8999 25.3716 11.4578 25.5969 11.03C25.6596 10.7775 25.7726 10.5246 25.888 10.2086C25.9915 9.81468 26.0662 9.61737 26.0662 9.59728C26.1323 9.38535 26.2693 9.20595 26.4516 9.09159C26.6125 9.12082 26.7773 9.10949 26.9332 9.0587C27.1772 9.1062 27.4183 9.16795 27.6556 9.24322C27.7538 9.25345 27.8528 9.23043 27.9373 9.17745C28.2932 9.14457 28.6512 9.20449 28.98 9.35174C29.0113 9.41751 29.0328 9.49607 29.086 9.62724C29.0427 10.2184 29.074 10.59 29.1993 10.7442C29.1627 10.954 29.1627 11.1688 29.1993 11.3785C29.1993 11.4772 29.1775 11.7728 29.168 12.2986C29.1254 12.4243 29.1043 12.5569 29.1053 12.6903C29.1465 13.4261 29.3342 10.2181 29.4595 11.7172C29.4714 11.9474 29.4813 12.8346 29.5341 14.409C29.4493 14.9622 29.4634 15.5271 29.575 16.0748C29.6006 16.5641 29.5873 17.0544 29.5341 17.5411C29.4989 17.7801 29.4778 18.0212 29.4715 18.2638C29.4341 18.292 29.3912 18.3121 29.3458 18.3212C29.3007 18.3307 29.2539 18.3303 29.2088 18.3194L28.968 18.2083C28.6941 18.1699 28.4178 18.159 28.1421 18.1754C28.1161 18.2339 28.1024 18.2975 28.1013 18.3625L28.0753 18.3307ZM18.4072 15.0145V14.9816H18.5445V15.0145H18.4072ZM18.2315 15.1884V15.1555H18.335V15.1734L18.2315 15.1884ZM15.4694 17.4487C15.801 17.4282 16.1302 17.3734 16.4519 17.2842C16.5459 17.2082 16.6572 17.1596 16.7747 17.1425C16.7747 17.1754 16.8374 17.2612 17.0877 17.3065C17.1099 17.2715 17.1409 17.2433 17.1775 17.2258C17.2141 17.2082 17.2549 17.2024 17.2947 17.2079C17.2577 16.9382 17.2053 16.6704 17.1384 16.4069C16.7216 16.3638 16.5121 16.3638 16.5121 16.3638C16.5121 16.2981 16.5435 16.3638 16.6494 16.5509C16.6012 16.749 16.5385 16.9426 16.4614 17.1297C16.346 17.1629 16.1076 17.2181 15.6475 17.2941V17.3602C15.5866 17.3573 15.5257 17.3686 15.4694 17.3931V17.4487ZM17.5042 12.6636C17.5183 12.6512 17.5348 12.6413 17.5528 12.6358C17.5707 12.6303 17.5894 12.6285 17.6077 12.6307V12.5123H17.4922L17.5042 12.6636ZM16.8152 13.4751H16.8878V13.3765H16.8251L16.8152 13.4751ZM17.2753 11.9588C17.2753 11.585 17.2225 11.4001 17.0346 11.4001C17.0187 11.5956 17.0624 11.7914 17.1599 11.9588H17.2753ZM17.1187 11.3014H17.1549V11.2784H17.1236L17.1187 11.3014ZM16.9142 13.0505C16.8723 12.5394 16.792 12.0322 16.6734 11.5342H16.5575C16.4759 12.3329 16.5262 12.8587 16.7043 13.0655L16.9142 13.0505ZM13.1287 17.5269C13.0973 17.3953 12.96 17.3295 12.6471 17.3295C12.6471 17.418 12.7097 17.4837 12.8879 17.5166L13.1287 17.5269ZM15.8809 13.1517C15.6401 13.086 15.4644 13.0531 15.4331 13.086C15.4018 13.1189 15.4644 13.1189 15.5366 13.1517H15.8809ZM13.2417 16.6273V16.5717C13.1547 16.541 13.0635 16.5268 12.972 16.5286C12.9959 16.5988 13.0442 16.6576 13.1068 16.693L13.2417 16.6273ZM17.1549 11.145C17.1549 10.9905 17.2056 10.7833 17.2366 10.5659C17.2718 10.5539 17.3021 10.5297 17.3229 10.4976C17.3436 10.4658 17.3539 10.4278 17.3521 10.3891L17.0486 9.82016C17.0346 9.80737 17.018 9.79787 17.0001 9.79239C16.9825 9.78655 16.9634 9.78472 16.9451 9.78728C16.9589 10.2553 17.0184 10.7216 17.1233 11.1776L17.1549 11.145ZM14.6938 13.0604H14.7973V13.0275H14.6938V13.0604ZM12.1799 17.4735C12.0996 17.4099 12.038 17.3237 12.0028 17.2247C11.9676 17.1257 11.9595 17.0182 11.9803 16.9145H11.8768C11.849 16.9587 11.83 17.008 11.8208 17.0599C11.812 17.1121 11.8134 17.1648 11.8254 17.2163C11.8374 17.2678 11.8588 17.316 11.8895 17.358C11.9198 17.4001 11.9581 17.4351 12.0021 17.4604L12.1799 17.4735ZM16.466 10.609C16.654 10.3565 16.5794 10.1033 16.2784 9.83039C16.2372 9.96157 15.9122 10.2246 16.0376 10.3891C16.1287 10.4695 16.2097 10.5619 16.2784 10.6646L16.466 10.609ZM14.0992 13.0176V12.9848C13.8426 12.9522 13.5835 12.9479 13.3262 12.972C13.4297 13.0049 13.5043 13.0049 13.5356 13.0377L14.0992 13.0176ZM11.2625 16.005V15.7525H11.1998C11.1903 15.838 11.2009 15.9254 11.2312 16.005H11.2625ZM12.1799 15.4997C12.1799 15.2797 12.1581 14.9081 12.1366 14.3272C12.0894 14.716 12.0831 15.1095 12.1172 15.4997H12.1799ZM12.1486 14.2081H12.1799V14.0868H12.1486V14.2081ZM12.1894 13.8365H12.2521V13.7152H12.1796L12.1894 13.8365ZM15.173 9.07478H15.3078V9.04189H15.173V9.07478ZM16.0689 12.6636C16.1875 12.1254 16.1404 11.5616 15.9341 11.0537C15.852 10.9196 15.7397 10.8082 15.607 10.7303C15.4743 10.6521 15.3254 10.6098 15.1733 10.6061C14.6917 10.6061 14.0464 10.859 13.2952 11.3646C13.0973 11.6971 12.9692 12.0706 12.9195 12.4586C13.442 12.4586 14.2872 12.5576 15.3708 12.6661L16.0689 12.6636ZM14.6097 9.06199C14.7146 9.0682 14.8195 9.06126 14.9227 9.04189H14.5784L14.6097 9.06199ZM14.0873 18.0932C13.2452 18.0965 12.4042 18.0271 11.573 17.8857C11.3723 17.7256 11.1643 17.5765 10.9495 17.4384C10.2704 16.5615 9.93565 15.4164 9.96698 14.0341C9.96205 13.7137 9.99374 13.3936 10.061 13.0812C10.1138 12.3483 10.1236 12.0399 10.1236 12.1608C10.0828 12.1279 10.2296 11.9083 10.4799 11.547C10.6267 11.0606 10.8407 10.5999 11.1157 10.1797C11.2519 10.0807 11.3716 9.95864 11.4695 9.81797C11.7103 9.67657 12.0739 9.40107 12.5749 9.07514C12.9312 8.96407 13.461 8.8223 14.1619 8.61512C14.6048 8.56287 15.0512 8.55191 15.4961 8.58224C16.1633 8.63559 16.5797 8.76676 16.6857 8.98672C16.9986 9.05249 17.3746 9.55562 17.8439 10.4855C17.8633 10.8597 17.9259 11.4969 18.0101 12.4016C18.0414 12.4246 18.0414 12.5558 18.0319 12.7626C18.0762 12.797 18.1121 12.8419 18.1354 12.8941C18.0896 12.968 18.0583 13.0509 18.0439 13.1379C18.0291 13.2248 18.0319 13.3136 18.0512 13.3998C18.059 13.584 18.0801 13.7674 18.1139 13.9479C17.9382 14.0999 17.4468 14.1229 16.5702 14.0341C16.3945 14.067 16.0379 14.1555 15.506 14.2311C14.7836 14.2311 14.3911 14.1781 14.3911 14.1127C14.083 14.1156 13.7764 14.067 13.4832 13.9684C13.1702 14.0239 12.8886 14.0466 12.7125 14.0795C12.6277 14.2026 12.5869 14.3528 12.5971 14.504C12.5753 15.2622 12.7439 15.7982 13.1195 16.0587C13.2955 16.0587 13.3603 16.0587 13.3987 16.028C13.6395 16.005 14.9107 15.9396 17.124 15.841C17.1648 15.7098 17.2683 15.6868 17.4056 15.7525C17.5429 15.8183 17.6126 15.8512 17.7186 15.8837C17.6753 15.9879 17.6503 16.0993 17.6439 16.2126C17.6439 16.465 17.8006 17.057 17.7907 17.2638C17.7953 17.4209 17.7429 17.5736 17.6439 17.6913C17.4683 17.7768 16.9046 17.8981 15.7778 18.118C15.2141 18.118 14.6822 18.1509 14.1932 18.1714C14.1619 18.1385 14.1306 18.1385 14.0873 18.1056V18.0932ZM6.52578 15.017H6.55958V14.9841H6.52825L6.52578 15.017ZM4.77508 15.3784V15.3028C4.83282 15.2878 4.89161 15.2797 4.9511 15.2797L5.01377 15.3583L5.1919 15.3912C5.1919 15.3126 5.1919 15.2268 5.22323 15.2041H4.50084C4.50084 15.2268 4.53217 15.2823 4.554 15.3682L4.77508 15.3784ZM4.16816 15.9323C4.15408 15.8976 4.14775 15.8607 4.1488 15.8231C4.08614 15.8004 4.06466 15.7675 4.03333 15.7675V15.7145C4.002 15.7145 4.002 15.7902 3.99249 15.9323H4.16816ZM2.09253 16.6448H2.17667C2.17667 16.4475 1.29058 16.1746 1.26876 16.0434C1.17476 16.0105 1.92602 16.415 1.89468 16.4475L2.09253 16.6448ZM1.68804 15.5702V15.2746H1.54123C1.518 15.3762 1.52574 15.4829 1.56306 15.5801L1.68804 15.5702ZM1.04979 15.1734C1.03535 14.8822 0.982898 14.595 0.893128 14.3191C0.885735 14.6045 0.900168 14.8902 0.936429 15.1734H1.04979ZM1.77217 13.3136C1.78062 13.1448 1.77323 12.9756 1.75035 12.8079C1.70599 12.9727 1.68135 13.1426 1.67818 13.3136H1.77217ZM1.74331 12.775H1.80597V12.722H1.74331V12.775ZM3.04867 11.779H2.94764C2.89835 12.03 2.93602 12.2902 3.0536 12.5145L3.04867 11.779ZM3.3208 11.8122C3.4243 10.27 3.28947 10.3891 3.25814 11.8122H3.3208ZM2.97651 11.0687C3.00572 10.8688 2.99868 10.6649 2.95468 10.4673C2.92335 10.7402 2.92335 10.9247 2.91384 11.0687H2.97651ZM0.936781 12.1407H0.968112V12.0651H0.936781V12.1407ZM0.664653 13.7707C0.70373 13.3845 0.672046 12.9939 0.570658 12.6208C0.548832 12.6537 0.570658 13.0377 0.570658 13.7707H0.664653ZM0.905449 11.9003H0.989939L1.0093 11.3519H0.924811L0.905449 11.9003ZM8.6426 0.931086V0.898201C8.68978 0.91647 8.73906 0.927797 8.7894 0.931086H8.6426ZM0.936781 11.1549H0.956143V10.8286H0.924459L0.936781 11.1549ZM0.936781 10.6649H0.958607V10.6094H0.936781V10.6649ZM0.936781 10.533H0.968112V10.2802H0.936781V10.533ZM0.936781 9.92905H0.968112V9.67657H0.936781V9.92905ZM0.936781 9.54722H0.968112V9.36014H0.936781V9.54722ZM2.95961 7.75026C2.96066 7.68047 2.94236 7.61178 2.9068 7.55295C2.88392 7.6158 2.87336 7.68303 2.87547 7.75026H2.95961ZM0.883622 8.99878H0.914954V8.97868H0.883622V8.99878ZM0.883622 8.5943H0.914954V8.53912H0.924459L0.883622 8.5943ZM0.883622 8.51866H0.914954V8.2987H0.883622V8.51866ZM3.29193 5.95585H3.35213V5.9332H3.29193V5.95585ZM0.609031 8.23037H0.630857V8.17484H0.609031V8.23037ZM0.934316 8.23037C0.955087 8.00968 0.937133 7.78716 0.88151 7.57341C0.818847 7.78899 0.826592 8.02028 0.903337 8.23037H0.934316ZM6.21282 0.471066H6.24415V0.45097H6.21282V0.471066ZM1.35325 10.6975C1.35325 10.1918 1.35324 9.39303 1.28108 8.38712C1.30818 7.86937 1.30818 7.35053 1.28108 6.83278H1.21841C1.21841 6.88612 1.21841 6.9413 1.18708 6.96432C1.16526 7.97534 1.18708 8.49601 1.24024 8.51866C1.19623 9.26259 1.20961 10.0091 1.28108 10.7504L1.35325 10.6975ZM3.31341 5.03582C3.34474 5.03582 3.34474 5.03582 3.37607 5.00293V4.8111H3.32538L3.31341 5.03582ZM1.9672 5.62701L2.85576 5.7052V5.51812L1.9577 5.4297L1.9672 5.62701ZM1.9672 5.21266L2.86526 5.26601V5.21266H1.9672ZM4.98208 1.77768C5.06622 1.77768 5.0979 1.75503 5.12888 1.67903C5.06798 1.6856 5.00813 1.70022 4.95075 1.72214L4.98208 1.77768ZM0.570658 7.08562C0.60199 7.06516 0.60199 7.00962 0.633321 6.98697H0.580515L0.570658 7.08562ZM0.780123 5.98107H0.861796V5.84953H0.768153L0.780123 5.98107ZM0.883622 5.30109H0.905449V5.24774H0.883622V5.30109ZM0.914954 5.00549H0.946286V4.95251H0.914954V5.00549ZM3.02192 2.35682H3.05325V2.3338H3.02192V2.35682ZM4.07452 1.21901C4.11677 1.06884 4.20055 0.935105 4.31532 0.834989C4.34665 0.867874 4.39945 0.867874 4.46212 0.900759L4.49345 0.551816H4.05516L4.07452 1.21901ZM1.34374 4.52245C1.53138 3.81507 1.64297 3.08759 1.67607 2.35389C1.59122 2.35791 1.50744 2.33489 1.43527 2.28849C1.26911 3.31705 1.19447 4.05768 1.23778 4.52282H1.34374V4.52245ZM0.780123 2.71562C0.592485 2.71562 0.623464 3.10987 0.780123 2.71562V2.71562ZM4.44029 18.0424L2.86561 17.5163C2.40233 17.3591 1.94749 17.1765 1.50251 16.9682C1.4226 16.8176 1.33494 16.6711 1.24024 16.5308C1.24024 16.4424 0.250301 15.0521 0.0626633 14.5091C0.0408367 14.2563 0.0218265 13.9402 0 13.4802C0 12.7677 0.0313316 11.7618 0.0939949 10.4245C0.0939949 9.98751 0.113357 9.45149 0.156658 8.82741C0.0939949 7.25809 0.107724 5.68657 0.197495 4.1187C0.363658 2.46534 2.26362 -0.431068 3.90096 0.124682C4.04565 0.102028 4.43325 0.0790086 5.04721 0.0362586C5.43938 -0.00247213 5.83402 -0.0101452 6.22725 0.0136048C6.51804 0.0421048 6.81058 0.0421048 7.10137 0.0136048C7.29147 0.0812009 7.48756 0.128701 7.68646 0.155009C7.89592 0.0790086 8.04026 0.516374 8.12475 0.526605C8.17404 0.638047 8.25923 0.727566 8.36555 0.779451L8.48102 0.855085C8.43877 0.863855 8.39934 0.88322 8.36555 0.910624C8.3754 1.17589 8.35111 1.44116 8.29303 1.69912L8.24022 2.32101C7.72976 2.78103 6.14522 2.51832 5.53831 2.35389C4.99652 2.30091 4.62089 2.60674 4.27659 3.02364C4.20407 3.09964 4.06959 3.06639 4.00693 3.16505C2.56215 5.34384 2.97369 11.167 3.4845 12.7319C3.50633 13.4897 3.99496 13.9958 4.16359 14.4631C4.34418 14.621 4.57407 14.7028 4.80888 14.6929C5.20774 14.678 5.60343 14.6151 5.98892 14.5059C6.81129 14.3977 7.64034 14.3539 8.46905 14.3747C8.50883 14.409 8.53805 14.4547 8.55318 14.5059C8.63767 16.0372 8.67851 16.9371 8.64718 17.1779C8.55318 17.4505 8.42786 17.6047 8.22086 17.6376C8.00083 17.6774 7.78397 17.7355 7.5731 17.8126C7.19571 17.7801 6.81621 17.8053 6.44622 17.8882C6.1234 17.9339 5.7696 17.9869 5.44431 18.0523C5.38517 18.14 5.30068 18.2057 5.20352 18.2394C5.08805 18.0523 4.57759 18.118 4.46177 18.0325L4.44029 18.0424Z" fill="black"/>
<path d="M29.884 4.97946V0.265269H31.0616C31.3686 0.250288 31.6692 0.358808 31.9019 0.568538C32.0068 0.668654 32.0899 0.791423 32.1452 0.928442C32.2005 1.06546 32.2269 1.21344 32.2223 1.36252C32.2269 1.615 32.1533 1.86273 32.0128 2.06771C31.8688 2.27233 31.665 2.4214 31.4327 2.49265V2.51019C31.7076 2.52663 31.9664 2.65342 32.155 2.86388C32.2448 2.96583 32.3149 3.08494 32.3606 3.21502C32.4064 3.34546 32.4272 3.48358 32.4222 3.62242C32.43 3.80146 32.4018 3.9805 32.3399 4.14785C32.2779 4.31519 32.1829 4.46683 32.0611 4.59325C31.9294 4.72187 31.7748 4.82089 31.6062 4.88629C31.4376 4.95169 31.2584 4.98092 31.0785 4.97215L29.884 4.97946ZM30.1945 0.568538V2.39583H30.818C31.0996 2.41519 31.3781 2.32494 31.6006 2.14298C31.6985 2.05529 31.7759 1.94531 31.8269 1.82144C31.878 1.69758 31.9009 1.56275 31.8945 1.42792C31.8945 0.861942 31.584 0.581327 30.9433 0.581327L30.1945 0.568538ZM30.1945 2.68667V4.68131H31.0278C31.3175 4.70542 31.6052 4.61554 31.8347 4.42846C31.9301 4.33017 32.0044 4.21179 32.0526 4.08135C32.1008 3.95054 32.122 3.81023 32.1142 3.67029C32.1142 3.02575 31.6928 2.69983 30.8525 2.69983L30.1945 2.68667ZM35.2252 4.98165V4.29948H35.2083C35.1101 4.52346 34.9559 4.71565 34.7626 4.85523C34.5711 4.98969 34.3454 5.06094 34.1149 5.06021C33.9828 5.06862 33.8508 5.04888 33.7262 5.00138C33.6016 4.95388 33.4882 4.88044 33.3925 4.78471C33.3055 4.69775 33.2372 4.59215 33.1922 4.4756C33.1471 4.35867 33.126 4.23298 33.1302 4.10729C33.1302 3.5256 33.4939 3.17154 34.2427 3.0484L35.2252 2.8891C35.2252 2.17367 34.965 1.81231 34.4426 1.81231C34.0614 1.82765 33.698 1.9844 33.4168 2.25442V1.8905C33.5615 1.7765 33.7248 1.691 33.8984 1.63765C34.0821 1.57262 34.275 1.5401 34.469 1.54156C34.6109 1.53315 34.7531 1.55727 34.8851 1.61208C35.0175 1.66688 35.1368 1.75165 35.2344 1.85981C35.4304 2.12617 35.5262 2.45904 35.5044 2.79519V4.98385L35.2252 4.98165ZM34.3412 3.30344C34.0899 3.3261 33.8477 3.41233 33.6357 3.55629C33.5632 3.62425 33.5072 3.70975 33.472 3.80475C33.4368 3.90048 33.4235 4.00315 33.4333 4.10437C33.4284 4.1979 33.4421 4.29108 33.4741 4.3784C33.5062 4.46537 33.5555 4.54429 33.6188 4.61006C33.7646 4.74452 33.9547 4.81467 34.1487 4.80444C34.2937 4.80663 34.4373 4.77521 34.5697 4.7131C34.7017 4.65025 34.8196 4.55817 34.9143 4.44344C35.1291 4.1884 35.2407 3.85554 35.2252 3.51573V3.16971L34.3412 3.30344ZM38.5481 4.81979C38.2904 4.97727 37.9965 5.05619 37.6979 5.04998C37.5004 5.05765 37.3044 5.02002 37.1227 4.93854C36.941 4.85706 36.7791 4.73429 36.6478 4.57973C36.3704 4.23737 36.2261 3.79781 36.2437 3.34875C36.225 2.86498 36.3887 2.39327 36.6988 2.03446C36.8446 1.86785 37.0227 1.73667 37.2213 1.64935C37.4198 1.56202 37.6346 1.5211 37.8497 1.52877C38.0975 1.52512 38.3436 1.5759 38.5721 1.67785V2.02131C38.3443 1.87625 38.0824 1.80025 37.8162 1.80135C37.6427 1.7955 37.4702 1.83058 37.311 1.90402C37.1526 1.97746 37.0111 2.08744 36.8984 2.22592C36.6499 2.53979 36.5242 2.94098 36.5468 3.34802C36.5306 3.72363 36.6443 4.09267 36.8671 4.38717C36.9696 4.51652 37.0988 4.61919 37.2445 4.68752C37.3906 4.75621 37.5497 4.78946 37.7099 4.78398C38.0109 4.7891 38.3059 4.69337 38.5527 4.51104L38.5481 4.81979ZM41.149 4.96923L39.6173 3.30125V4.96923H39.3233V0H39.6173V3.20479L41.062 1.61537H41.4422L39.9274 3.2406L41.5672 4.97983L41.149 4.96923ZM45.1943 0.568538V4.97946H44.8908V0.568538H43.5953V0.265269H46.4852V0.568538H45.1943ZM47.4745 5.0624C47.2661 5.0741 47.0576 5.03646 46.8654 4.95206C46.6725 4.86765 46.5007 4.73867 46.362 4.57462C46.0765 4.22348 45.9294 3.77187 45.9501 3.31075C45.9255 2.83319 46.079 2.3644 46.3789 2.00413C46.5243 1.84629 46.6996 1.72279 46.8943 1.6424C47.0886 1.56165 47.2974 1.52585 47.5058 1.53644C47.7075 1.52475 47.9092 1.56056 48.0962 1.64167C48.2827 1.72242 48.4496 1.84665 48.5848 2.00413C48.8707 2.36733 49.0143 2.83064 48.9872 3.30088C49.0048 3.75981 48.8619 4.20923 48.5848 4.56475C48.4454 4.72662 48.2736 4.85487 48.0817 4.93927C47.8899 5.02331 47.6822 5.06204 47.4745 5.05217V5.0624ZM47.4914 1.81231C47.3227 1.80427 47.1541 1.83533 46.9989 1.90402C46.8429 1.97271 46.7038 2.07685 46.5912 2.20875C46.349 2.52115 46.2289 2.91869 46.2539 3.32062C46.2349 3.705 46.3515 4.08281 46.5817 4.38242C46.6922 4.51725 46.8313 4.62358 46.9872 4.6941C47.1432 4.76462 47.3125 4.79567 47.4819 4.7869C47.6494 4.7975 47.817 4.76717 47.9719 4.69848C48.1268 4.62979 48.2637 4.52383 48.3729 4.3901C48.5771 4.06344 48.6862 3.68125 48.6862 3.29065C48.6862 2.89969 48.5771 2.51787 48.3729 2.19121C48.2627 2.0626 48.1261 1.96175 47.9737 1.89598C47.8209 1.83058 47.6561 1.80208 47.4914 1.81231ZM54.7663 4.98165L52.1006 1.19079C52.0489 1.11662 52.0003 1.03988 51.9563 0.960596L51.9151 0.890077H51.8982C51.9021 0.957308 51.9021 1.0249 51.8982 1.09213V4.97983H51.5877V0.265269H51.8285L54.4773 4.0565C54.535 4.13506 54.5952 4.23335 54.6698 4.35721C54.6698 4.19754 54.6698 4.0744 54.6698 3.95785V0.265269H54.9733V4.97946L54.7663 4.98165ZM57.9885 4.98165V4.29948C57.8903 4.52346 57.7361 4.71565 57.5428 4.85523C57.3506 4.98896 57.1253 5.06021 56.8951 5.06021C56.7631 5.06788 56.631 5.04779 56.5064 5.00029C56.3822 4.95315 56.2684 4.87971 56.1723 4.78471C56.0829 4.69921 56.0115 4.59435 55.9625 4.47742C55.9139 4.36087 55.8897 4.23444 55.8904 4.10729C55.8904 3.5256 56.2607 3.17264 57.0007 3.0484L57.9854 2.8891C57.9854 2.17367 57.7446 1.81231 57.2126 1.81231C56.831 1.82546 56.467 1.98221 56.1868 2.25442V1.8905C56.3318 1.77687 56.4948 1.69137 56.6684 1.63765C56.8521 1.57335 57.045 1.54119 57.239 1.54156C57.3823 1.53242 57.5259 1.55617 57.6601 1.61135C57.7938 1.66615 57.9149 1.75129 58.0142 1.86017C58.2082 2.12763 58.3029 2.46013 58.2818 2.79556V4.98421L57.9885 4.98165ZM57.0947 3.30088C56.844 3.32573 56.6025 3.41233 56.3892 3.55337C56.317 3.62206 56.2607 3.70683 56.2255 3.80256C56.1903 3.89756 56.1773 4.00023 56.1871 4.10217C56.1836 4.19571 56.1987 4.28925 56.2318 4.37621C56.2649 4.46317 56.3156 4.54246 56.3797 4.6075C56.5265 4.74233 56.7173 4.81212 56.912 4.80225C57.0567 4.80408 57.1999 4.77265 57.332 4.71017C57.464 4.64769 57.5809 4.55598 57.6752 4.44052C57.885 4.18292 57.9934 3.85152 57.979 3.51317V3.16971L57.0947 3.30088ZM60.5021 4.92575C60.3722 4.99919 60.2278 5.03938 60.0807 5.04194C59.5991 5.04194 59.358 4.7416 59.358 4.15004V1.8905H58.8046V1.615H59.3777V0.740635L59.5195 0.687289L59.6618 0.634308V1.615H60.5116V1.8905H59.6618V4.10729C59.6484 4.2834 59.6871 4.45988 59.7723 4.61262C59.8128 4.66815 59.8667 4.71237 59.9283 4.7405C59.9895 4.76827 60.0568 4.77887 60.1236 4.77192C60.2613 4.769 60.3951 4.72625 60.5116 4.64842L60.5021 4.92575ZM63.2522 4.97946V4.36013H63.2353C63.1512 4.57279 63.0072 4.75365 62.8227 4.87825C62.6379 5.00321 62.4214 5.06569 62.2021 5.05765C61.4434 5.05765 61.0654 4.55196 61.0654 3.55665V1.615H61.3593V3.47773C61.3319 3.82521 61.4061 4.17342 61.5712 4.47596C61.6529 4.58083 61.7575 4.66377 61.8761 4.71712C61.9947 4.77046 62.1239 4.79385 62.2524 4.78435C62.3901 4.78873 62.526 4.75987 62.6516 4.70031C62.7766 4.64075 62.8872 4.55196 62.9752 4.44052C63.1709 4.17635 63.2691 3.8475 63.2519 3.51317V1.615H63.5381V4.97946H63.2522ZM66.0791 1.92594C65.9774 1.85396 65.857 1.81706 65.7348 1.81962C65.6039 1.824 65.4768 1.86456 65.3659 1.93763C65.255 2.01035 65.1645 2.11265 65.1036 2.23433C64.91 2.58729 64.8192 2.99287 64.8438 3.39954V4.97946H64.5643V1.615H64.8438V2.35819H64.8607C64.9146 2.12837 65.0346 1.92192 65.2054 1.76663C65.3557 1.62012 65.5539 1.54046 65.7588 1.54412C65.8686 1.54631 65.9767 1.5675 66.0791 1.60733V1.92594ZM66.6185 3.31112C66.5963 3.6966 66.7033 4.07769 66.9219 4.3879C67.0229 4.51762 67.1514 4.62139 67.2972 4.69044C67.4429 4.75913 67.6021 4.79129 67.7619 4.78471C68.1516 4.77485 68.5265 4.62467 68.8243 4.36013V4.68825C68.4998 4.93196 68.1104 5.06204 67.7112 5.06021C67.5221 5.06642 67.3338 5.02696 67.1606 4.94585C66.9874 4.864 66.8343 4.74269 66.7124 4.58996C66.4361 4.21544 66.2984 3.74848 66.3245 3.27567C66.3101 2.82588 66.4533 2.38633 66.7269 2.03994C66.8501 1.87735 67.0075 1.7469 67.187 1.65921C67.3662 1.57152 67.5623 1.52877 67.7601 1.53425C67.9351 1.52329 68.1097 1.5569 68.2692 1.63217C68.4293 1.70744 68.5695 1.82217 68.6775 1.96687C68.9046 2.32056 69.0166 2.74148 68.9979 3.16715V3.30892L66.6185 3.31112ZM68.687 3.02794C68.6944 2.7064 68.604 2.39071 68.4272 2.12837C68.3442 2.0235 68.2403 1.94056 68.122 1.88538C68.0037 1.83021 67.8745 1.80427 67.7457 1.80975C67.6063 1.80463 67.4679 1.83058 67.3391 1.88538C67.2099 1.94019 67.0937 2.02313 66.9969 2.12837C66.7807 2.37537 66.6533 2.69288 66.6357 3.02794H68.687Z" fill="#8D5D09"/>
</svg>
