<svg width="63" height="63" viewBox="0 0 63 63" fill="none" xmlns="http://www.w3.org/2000/svg">
<path d="M55.5072 26.5412C54.1045 22.7637 51.5697 19.8474 48.1859 18.1002C46.8693 17.4357 46.008 16.1068 45.9342 14.6303L45.9219 14.0765C45.9096 13.5844 45.4912 13.1906 44.999 13.2029C44.6668 13.2152 44.3715 13.3998 44.2238 13.6951L43.9777 14.1873C43.2887 15.4916 41.9475 16.3283 40.4709 16.3652C36.4227 16.5129 32.7313 18.3094 29.852 21.2994C27.2803 15.3808 21.8539 11.2096 15.4801 10.2252L3.79063 8.41639C3.29844 8.34256 2.84317 8.67479 2.76934 9.16697C2.74473 9.30233 2.75704 9.43768 2.79395 9.57303L6.27618 20.881C7.71583 25.5568 10.9273 29.482 15.2217 31.8322C14.3111 32.2383 13.4375 32.7058 12.6008 33.2472C9.217 35.4375 6.91602 38.5506 5.95626 42.2297C5.59942 43.657 4.492 44.789 3.06465 45.1828L2.53555 45.3181C2.05567 45.4412 1.76036 45.9211 1.8834 46.4133C1.96954 46.7332 2.21563 46.9916 2.53555 47.0654L3.06465 47.2008C4.492 47.5945 5.59942 48.7142 5.95626 50.1539C6.91602 53.8453 9.217 56.9461 12.6008 59.1363C15.8738 61.265 19.9344 62.3848 24.3395 62.3848C31.9068 62.3848 38.1699 59.1609 41.2092 53.8576C41.2215 53.8576 41.2461 53.8576 41.2584 53.8576C41.5537 53.8576 41.849 53.833 42.1443 53.7838C48.9488 52.6764 54.3014 46.8931 56.1348 38.6982C57.0822 34.4039 56.8731 30.1957 55.5072 26.5412ZM28.5231 22.8498C27.4648 24.2402 26.5912 25.7414 25.9022 27.3533L25.1639 26.7135L25.3484 17.5711C26.7266 19.1215 27.7971 20.9056 28.5231 22.8498ZM8.76172 22.3699L15.64 20.8687L18.1256 23.0221L9.85684 24.4125C9.45079 23.7603 9.08165 23.0713 8.76172 22.3699ZM10.4844 16.4144L6.97755 17.0666L5.42715 12.0463L10.4844 16.4144ZM6.5961 10.6805L11.7887 11.4803L11.6533 15.0486L6.5961 10.6805ZM7.99883 20.3519L7.51895 18.8015L12.2316 17.9279L13.942 19.4045L8.09727 20.6719C8.06036 20.5611 8.02344 20.4627 7.99883 20.3519ZM19.4791 13.2767L19.3068 21.6562L16.8213 19.5029L17.3012 12.4769C18.0518 12.6984 18.7777 12.9568 19.4791 13.2767ZM21.2633 14.1873C22.0877 14.6795 22.8629 15.2332 23.5889 15.8484L23.392 25.1877L21.0787 23.182L21.2633 14.1873ZM15.5293 12.0709L15.1232 18.0387L13.4129 16.5621L13.5975 11.7633L15.2094 12.0094C15.3078 12.034 15.4186 12.0463 15.5293 12.0709ZM11.0381 26.0367L19.9098 24.5478L22.2231 26.5535L13.0068 28.1039C12.2932 27.464 11.6287 26.775 11.0381 26.0367ZM14.9756 29.5928L23.9826 28.0793L25.2131 29.1375C25.1147 29.4205 25.0285 29.7158 24.9424 30.0111C24.7332 30.0111 24.5363 29.9988 24.3272 29.9988C22.0385 29.9865 19.7498 30.3187 17.5596 30.9709C16.6613 30.5771 15.8 30.1219 14.9756 29.5928ZM13.5729 34.7607C14.8772 33.924 16.2799 33.2596 17.7441 32.792C17.7688 32.7797 17.7934 32.7797 17.818 32.7674C19.9221 32.1152 22.1123 31.783 24.3272 31.7953C31.9807 31.7953 38.1453 35.339 40.4217 41.0361C41.0369 42.5373 40.5816 44.2723 39.3143 45.2935H38.4037C39.4004 42.4758 37.9238 39.3996 35.1061 38.4029C35.0814 38.3906 35.0568 38.3906 35.0322 38.3783C34.1955 37.2463 32.9281 36.348 31.427 35.8435C30.5287 35.5359 29.5813 35.3883 28.6215 35.4129C27.4402 34.2808 25.6315 33.6041 23.6996 33.6041C21.7186 33.6041 19.8852 34.2931 18.7039 35.4744C18.0025 35.5359 17.3135 35.6959 16.6613 35.9297C14.3727 36.7541 12.7115 38.4521 12.2686 40.3347C10.2875 41.1838 9.00782 43.1402 9.02012 45.2935H6.25157C6.94063 44.5553 7.43282 43.6693 7.69122 42.6849C8.54024 39.4488 10.5705 36.7049 13.5729 34.7607ZM21.3617 52.7502L20.4881 51.8765C19.7375 51.126 18.7285 50.683 17.658 50.6584L13.5606 50.523C13.499 50.523 13.4375 50.523 13.376 50.5353C13.376 50.5353 13.3637 50.5353 13.3637 50.523C11.8625 50.0555 10.8289 48.665 10.8412 47.09H36.4473C37.0871 48.1974 37.0871 49.551 36.4596 50.6707L30.8363 50.683C29.2613 50.683 27.8217 51.5812 27.1203 52.984C26.8988 53.4269 27.0711 53.9683 27.5141 54.1898C27.957 54.4113 28.4984 54.239 28.7199 53.7961C28.7199 53.7961 28.7199 53.7838 28.7322 53.7838C29.126 52.984 29.9504 52.4795 30.8363 52.4795L34.0109 52.4672C33.9002 52.541 33.8018 52.6271 33.7279 52.7379C33.125 53.6484 32.0791 54.4236 30.8609 54.842C30.0611 55.125 29.2121 55.2357 28.3631 55.1619C28.0801 55.1373 27.7971 55.248 27.6002 55.4695C26.7881 56.4047 25.2992 56.983 23.7119 56.983C22.1246 56.983 20.6234 56.3924 19.8113 55.4449C19.6514 55.2603 19.4176 55.1373 19.1592 55.1373C18.5193 55.1127 17.8795 54.9896 17.2766 54.7682C15.9231 54.276 14.8279 53.3654 14.2988 52.3564L17.5965 52.4672C18.1994 52.4795 18.7777 52.7256 19.2084 53.1562L20.082 54.0299C20.4266 54.3867 21.0049 54.3867 21.3494 54.0422C21.7063 53.6976 21.7063 53.1193 21.3617 52.7748C21.374 52.7625 21.374 52.7625 21.3617 52.7502ZM13.3637 41.8605C13.3637 41.8605 13.376 41.8605 13.376 41.8482C13.4252 41.8605 13.4867 41.8605 13.5359 41.8605H13.5606L17.658 41.7252C18.7285 41.7006 19.7375 41.2576 20.4881 40.507L21.3617 39.6334C21.7186 39.2889 21.7186 38.7105 21.374 38.366C21.0295 38.0092 20.4512 38.0092 20.1066 38.3537L20.0943 38.366L19.2207 39.2396C18.79 39.6703 18.2117 39.9164 17.6088 39.9287L14.3234 40.0394C14.8525 39.0305 15.96 38.1076 17.3012 37.6277C17.9041 37.4062 18.5439 37.2832 19.1838 37.2586C19.4299 37.2463 19.6637 37.1355 19.8359 36.951C20.6481 36.0035 22.1492 35.4129 23.7365 35.4129C25.3115 35.4129 26.8004 35.9912 27.6248 36.9264C27.8094 37.1478 28.1047 37.2586 28.3877 37.234C29.2367 37.1601 30.0857 37.2709 30.8856 37.5539C32.116 37.9722 33.1619 38.7351 33.7525 39.658C33.8264 39.7687 33.9248 39.8549 34.0356 39.9287L30.8609 39.9164C29.9627 39.9164 29.1506 39.4119 28.7568 38.6121C28.5354 38.1691 27.9939 37.9969 27.551 38.2183C27.108 38.4398 26.9357 38.9689 27.1572 39.4119C27.8586 40.8269 29.2982 41.7129 30.8732 41.7129L36.4842 41.7252C37.1117 42.8326 37.1117 44.1984 36.4719 45.3058H10.8658C10.8289 43.7185 11.8502 42.3281 13.3637 41.8605ZM24.3272 60.5883C20.2789 60.5883 16.5506 59.567 13.5729 57.6351C10.5705 55.691 8.54024 52.9471 7.69122 49.6986C7.43282 48.7265 6.94063 47.8283 6.25157 47.09H9.04473C9.03243 49.2433 10.3121 51.1998 12.2932 52.0488C12.7361 53.9314 14.3973 55.6295 16.6859 56.4539C17.3504 56.7 18.0272 56.8476 18.7285 56.9092C19.9098 58.0904 21.7432 58.7795 23.7242 58.7795C25.6561 58.7795 27.4648 58.115 28.6461 56.9707C29.5936 56.9953 30.5533 56.8476 31.4516 56.54C32.9527 56.0232 34.2201 55.1373 35.0568 54.0053C37.8869 53.0578 39.4004 49.9816 38.4529 47.1638C38.4406 47.1392 38.4406 47.1146 38.4283 47.09H39.3389C40.6063 48.1113 41.0492 49.834 40.4463 51.3474C38.1453 57.0445 31.9807 60.5883 24.3272 60.5883ZM54.3752 38.3045C52.7387 45.6627 48.0506 50.8676 42.1197 51.9627C42.3535 51.3597 42.4889 50.7199 42.5012 50.0678L44.593 47.656C45.0975 47.0654 45.5773 46.4502 46.0203 45.8226C46.3033 45.4166 46.2049 44.8506 45.7865 44.5676C45.3805 44.2846 44.8268 44.383 44.5438 44.789C44.1377 45.3797 43.6947 45.9334 43.2395 46.4748L42.0705 47.816C41.8121 47.2131 41.4553 46.6717 41.0123 46.1918C42.4889 44.6291 42.9195 42.3527 42.1074 40.3717C41.726 39.4365 41.2584 38.5383 40.6924 37.6892L42.3658 30.1957C42.4766 29.7158 42.1689 29.2236 41.6891 29.1129C41.2092 29.0021 40.717 29.3097 40.6063 29.7896V29.8019L39.2527 35.8681C37.4809 33.9363 35.1799 32.4228 32.4975 31.4139C33.0266 29.8265 33.7525 28.3008 34.6508 26.8857C34.9215 26.4674 34.7984 25.9137 34.3801 25.643C33.9617 25.3722 33.408 25.4953 33.1373 25.9137C32.1529 27.4517 31.3654 29.1129 30.7871 30.8478C29.4828 30.491 28.1416 30.2326 26.7881 30.1096C29.0152 23.0467 34.3186 18.3955 40.5201 18.1617C42.009 18.1125 43.424 17.5096 44.4822 16.4637C44.999 17.8541 46.0326 18.9984 47.3492 19.6875C50.327 21.2256 52.5664 23.8096 53.8092 27.1564C55.0643 30.491 55.2488 34.3424 54.3752 38.3045Z" fill="#6ABD18"/>
<path d="M43.4726 21.0287C42.9927 20.918 42.5128 21.2256 42.4021 21.7055L41.4054 26.209C41.2947 26.6889 41.6023 27.181 42.0822 27.2918C42.562 27.4025 43.0542 27.0949 43.165 26.615V26.6027L44.1617 22.0992C44.2601 21.6193 43.9648 21.1394 43.4726 21.0287Z" fill="#6ABD18"/>
<path d="M39.0803 19.4414L36.7547 21.5947C36.2379 22.0746 35.7457 22.5791 35.2782 23.1082C34.9459 23.4773 34.9705 24.0434 35.3397 24.3756C35.7088 24.7078 36.2748 24.6832 36.6071 24.3141C37.0377 23.8342 37.493 23.3666 37.9729 22.9236L40.2985 20.7703C40.6676 20.4381 40.6922 19.8721 40.36 19.5029C40.0401 19.1215 39.4618 19.0969 39.0803 19.4414C39.0926 19.4414 39.0926 19.4414 39.0803 19.4414Z" fill="#6ABD18"/>
<path d="M49.072 34.7607C48.5798 34.6869 48.1246 35.0314 48.0507 35.5236L47.9523 36.188C47.6324 38.3168 46.9802 40.3839 46.0205 42.3035C45.7867 42.7464 45.9589 43.2879 46.4019 43.5216C46.8449 43.7554 47.3863 43.5832 47.6201 43.1402C47.6201 43.1279 47.6324 43.1279 47.6324 43.1156C48.6783 41.0238 49.3919 38.772 49.7365 36.4587L49.8349 35.7943C49.8964 35.2898 49.5642 34.8345 49.072 34.7607Z" fill="#6ABD18"/>
<path d="M49.7724 28.9529C49.7232 28.6453 49.6617 28.3254 49.6001 28.0178C49.5017 27.5256 49.0218 27.218 48.5419 27.3164C48.0498 27.4148 47.7421 27.8947 47.8406 28.3746C47.8406 28.3746 47.8406 28.3746 47.8406 28.3869C47.9021 28.6699 47.9513 28.9652 48.0005 29.2482C48.1359 30.0973 48.222 30.9709 48.2589 31.8322C48.2712 32.3121 48.6773 32.7059 49.1572 32.7059H49.1941C49.6863 32.6936 50.08 32.2752 50.0677 31.7707C50.0185 30.8232 49.9324 29.8881 49.7724 28.9529Z" fill="#6ABD18"/>
<path d="M47.1286 25.8029C47.2885 26.2705 47.8053 26.5166 48.2729 26.3566C48.7405 26.1967 48.9866 25.6799 48.8266 25.2123C48.7036 24.8801 48.5805 24.5355 48.4452 24.2033L47.3747 21.5701C47.1901 21.1148 46.661 20.8934 46.2057 21.0779C45.7505 21.2625 45.529 21.7916 45.7135 22.2469L46.7841 24.8801C46.8948 25.1754 47.0178 25.4953 47.1286 25.8029Z" fill="#6ABD18"/>
<path d="M21.3618 44.1246L21.8909 43.5955C23.2321 42.2542 25.4223 42.2542 26.7635 43.5955L27.2926 44.1246C27.6495 44.4814 28.2155 44.4814 28.56 44.1246C28.9045 43.7677 28.9169 43.2017 28.56 42.8572L28.0309 42.3281C25.9883 40.2855 22.6661 40.2855 20.6112 42.3281L20.0821 42.8572C19.7252 43.214 19.7252 43.78 20.0821 44.1246C20.4389 44.4691 21.0172 44.4814 21.3618 44.1246Z" fill="#6ABD18"/>
<path d="M28.0296 50.0554L28.5587 49.5263C28.9156 49.1695 28.9156 48.6035 28.5587 48.259C28.2019 47.9144 27.6359 47.9021 27.2914 48.259L26.7622 48.7881C25.421 50.1293 23.2308 50.1293 21.8896 48.7881L21.3605 48.259C21.0037 47.9021 20.4376 47.9021 20.0931 48.259C19.7486 48.6158 19.7363 49.1818 20.0931 49.5263L20.6222 50.0554C22.6648 52.098 25.9871 52.098 28.0296 50.0554Z" fill="#6ABD18"/>
<path d="M38.7475 6.10312L37.0125 5.74629C35.5728 5.45098 34.4531 4.33125 34.1701 2.90391L33.8133 1.16895C33.6779 0.479883 33.0873 0 32.3859 0C31.6846 0 31.0939 0.479883 30.9586 1.16895L30.6018 2.90391C30.3064 4.34355 29.199 5.46328 27.7594 5.74629L26.0244 6.10312C25.3354 6.23848 24.8555 6.8291 24.8555 7.53047C24.8555 8.23184 25.3354 8.82246 26.0244 8.95781L27.7594 9.31465C29.199 9.60996 30.3187 10.7297 30.6018 12.157L30.9586 13.892C31.0939 14.5811 31.6846 15.0609 32.3859 15.0609C33.0873 15.0609 33.6779 14.5811 33.8133 13.892L34.1701 12.157C34.4654 10.7174 35.5728 9.59766 37.0125 9.31465L38.7475 8.95781C39.4365 8.82246 39.9164 8.23184 39.9164 7.53047C39.9164 6.8291 39.4365 6.23848 38.7475 6.10312ZM38.4768 7.6043L36.7418 7.96113C34.7607 8.36719 33.2104 9.90527 32.8166 11.8863L32.4598 13.6213C32.4475 13.6582 32.4475 13.6828 32.3859 13.6828C32.3244 13.6828 32.3244 13.6582 32.3121 13.6213L31.9553 11.8863C31.5492 9.90527 30.0111 8.35488 28.0301 7.96113L26.2951 7.6043C26.2582 7.59199 26.2336 7.59199 26.2336 7.53047C26.2336 7.46895 26.2582 7.46895 26.2951 7.45664L28.0301 7.0998C30.0111 6.69375 31.5615 5.15566 31.9553 3.17461L32.3121 1.43965C32.3244 1.40273 32.3244 1.37812 32.3859 1.37812C32.4475 1.37812 32.4475 1.40273 32.4598 1.43965L32.8166 3.17461C33.2227 5.15566 34.7607 6.70605 36.7418 7.0998L38.4768 7.45664C38.5137 7.46895 38.5383 7.46895 38.5383 7.53047C38.5383 7.59199 38.5137 7.59199 38.4768 7.6043Z" fill="#6ABD18"/>
<path d="M61.8064 16.316L61.3512 16.2299C60.4898 16.0576 59.8131 15.3809 59.6408 14.5195L59.5547 14.0643C59.4316 13.4613 58.9148 13.043 58.2996 13.043C57.6844 13.043 57.1676 13.4613 57.0445 14.0643L56.9584 14.5195C56.7861 15.3809 56.1094 16.0576 55.248 16.2299L54.7928 16.316C54.1898 16.4391 53.7715 16.9559 53.7715 17.5711C53.7715 18.1863 54.1898 18.7031 54.7928 18.8262L55.248 18.9123C56.1094 19.0846 56.7861 19.7613 56.9584 20.6227L57.0445 21.0779C57.1676 21.6809 57.6844 22.0992 58.2996 22.0992C58.9148 22.0992 59.4316 21.6809 59.5547 21.0779L59.6408 20.6227C59.8131 19.7613 60.4898 19.0846 61.3512 18.9123L61.8064 18.8262C62.4094 18.7031 62.8277 18.1863 62.8277 17.5711C62.8277 16.9559 62.4094 16.4391 61.8064 16.316ZM58.2996 20.0813C57.9551 18.8631 57.0076 17.9156 55.7895 17.5711C57.0076 17.2266 57.9551 16.2791 58.2996 15.0609C58.6441 16.2791 59.5916 17.2266 60.8098 17.5711C59.5916 17.9156 58.6318 18.8631 58.2996 20.0813Z" fill="#6ABD18"/>
</svg>
