<svg width="59" height="59" viewBox="0 0 59 59" fill="none" xmlns="http://www.w3.org/2000/svg">
<path d="M37.1574 15.5566H10.2039C9.72659 15.5566 9.33963 15.9436 9.33963 16.4209C9.33963 16.8982 9.72659 17.2852 10.2039 17.2852H37.1573C37.6346 17.2852 38.0216 16.8982 38.0216 16.4209C38.0216 15.9436 37.6347 15.5566 37.1574 15.5566ZM36.5813 5.18555H30.8633C30.386 5.18555 29.9991 5.5725 29.9991 6.0498C29.9991 6.52711 30.386 6.91406 30.8633 6.91406H36.2932V10.3711H11.0681V6.91406H26.83C27.3073 6.91406 27.6943 6.52711 27.6943 6.0498C27.6943 5.5725 27.3073 5.18555 26.83 5.18555H10.7801C9.98575 5.18555 9.33963 5.83167 9.33963 6.62598V10.6592C9.33963 11.4535 9.98575 12.0996 10.7801 12.0996H36.5812C37.3755 12.0996 38.0216 11.4535 38.0216 10.6592V6.62598C38.0217 5.83167 37.3755 5.18555 36.5813 5.18555ZM37.1574 19.0137H10.2039C9.72659 19.0137 9.33963 19.4006 9.33963 19.8779C9.33963 20.3552 9.72659 20.7422 10.2039 20.7422H37.1573C37.6346 20.7422 38.0216 20.3552 38.0216 19.8779C38.0216 19.4006 37.6347 19.0137 37.1574 19.0137ZM37.1574 25.9277H27.4892C27.0119 25.9277 26.6249 26.3147 26.6249 26.792C26.6249 27.2693 27.0119 27.6562 27.4892 27.6562H37.1574C37.6347 27.6562 38.0217 27.2693 38.0217 26.792C38.0217 26.3147 37.6347 25.9277 37.1574 25.9277ZM37.1574 22.4707H27.4892C27.0119 22.4707 26.6249 22.8577 26.6249 23.335C26.6249 23.8123 27.0119 24.1992 27.4892 24.1992H37.1574C37.6347 24.1992 38.0217 23.8123 38.0217 23.335C38.0217 22.8577 37.6347 22.4707 37.1574 22.4707ZM47.3613 35.6692V33.7061C47.3613 31.6156 45.8692 29.8674 43.8939 29.4699V4.32129C43.8939 1.93847 41.9555 0 39.5726 0H7.78869C5.40587 0 3.4674 1.93847 3.4674 4.32129V22.5559C1.49217 22.9533 0 24.7015 0 26.792V39.0552C0 39.5325 0.386957 39.9195 0.864258 39.9195C1.34156 39.9195 1.72852 39.5325 1.72852 39.0552V26.792C1.72852 25.3623 2.89158 24.1992 4.32129 24.1992H21.1847C22.1645 24.1992 23.0154 24.8633 23.2536 25.8133L23.8471 28.1894C24.277 29.9109 25.8169 31.1133 27.5917 31.1133H43.04C44.4698 31.1133 45.6328 32.2763 45.6328 33.7061V35.7933C40.0041 36.6195 35.6688 41.4799 35.6688 47.3344C35.6688 51.5305 37.8962 55.2158 41.2303 57.2714H4.32129C2.89158 57.2715 1.72852 56.1084 1.72852 54.6787V43.0884C1.72852 42.6111 1.34156 42.2242 0.864258 42.2242C0.386957 42.2242 0 42.6111 0 43.0884V54.6787C0 57.0615 1.93847 59 4.32129 59H43.04C43.6008 59 44.1408 58.8941 44.6504 58.6878C45.5125 58.8916 46.411 59 47.3345 59C53.7669 59 59 53.7669 59 47.3345C59 40.911 53.7814 35.6838 47.3613 35.6692ZM42.1654 29.3848H27.5917C26.6117 29.3848 25.7614 28.721 25.5241 27.7707L24.9304 25.3939C24.4991 23.6727 22.9587 22.4707 21.1847 22.4707H5.19592V4.32129C5.19592 2.89158 6.35898 1.72852 7.78869 1.72852H39.5726C41.0023 1.72852 42.1654 2.89158 42.1654 4.32129V29.3848ZM47.3345 57.2715C41.8552 57.2715 37.3975 52.8138 37.3975 47.3345C37.3975 41.8552 41.8552 37.3975 47.3345 37.3975C52.8138 37.3975 57.2715 41.8551 57.2715 47.3345C57.2715 52.8139 52.8138 57.2715 47.3345 57.2715ZM51.4864 48.7433H50.2076V41.8791C50.2076 41.0431 49.5275 40.363 48.6916 40.363H45.9774C45.1415 40.363 44.4613 41.0431 44.4613 41.8791V48.7433H43.1826C42.605 48.7433 42.089 49.0881 41.868 49.6218C41.647 50.1554 41.768 50.7641 42.1765 51.1725L46.2626 55.2586C46.5581 55.5541 46.9464 55.7019 47.3346 55.7019C47.7228 55.7019 48.111 55.5541 48.4066 55.2586L52.4927 51.1725C52.9011 50.7641 53.0222 50.1554 52.8012 49.6218C52.5799 49.0881 52.0639 48.7433 51.4864 48.7433ZM47.3345 53.8861L43.9203 50.472H44.6738C45.5097 50.472 46.1899 49.7919 46.1899 48.9559V42.0917H48.4791V48.9559C48.4791 49.7919 49.1592 50.472 49.9951 50.472H50.7486L47.3345 53.8861ZM33.1363 41.2509C33.6136 41.2509 34.0006 40.864 34.0006 40.3867C34.0006 39.9094 33.6136 39.5224 33.1363 39.5224H30.0285C29.5512 39.5224 29.1642 39.9094 29.1642 40.3867V48.0546C29.1642 48.5319 29.5512 48.9188 30.0285 48.9188C30.5058 48.9188 30.8927 48.5319 30.8927 48.0546V45.0123H32.8895C33.3668 45.0123 33.7538 44.6253 33.7538 44.148C33.7538 43.6707 33.3668 43.2838 32.8895 43.2838H30.8927V41.2509H33.1363ZM21.8156 48.9189H21.8188C21.883 48.9187 23.3963 48.9128 24.0007 48.9024C26.2107 48.8638 27.8148 46.9309 27.8148 44.3067C27.8148 41.548 26.251 39.6944 23.9235 39.6944H21.8004C21.5708 39.6944 21.3509 39.7857 21.1887 39.9482C21.0266 40.1107 20.9357 40.3309 20.9361 40.5604V40.5664V47.9331C20.9383 48.427 21.3164 48.9229 21.8156 48.9189ZM23.9235 41.4228C25.5181 41.4228 26.0863 42.9125 26.0863 44.3066C26.0863 46.2619 25.0236 47.1556 23.9705 47.174C23.6746 47.1791 23.14 47.1833 22.6769 47.1859C22.674 46.2994 22.6678 42.3446 22.6661 41.4227H23.9235V41.4228ZM15.0892 48.0547V45.5589C15.547 45.5565 16.0785 45.5541 16.376 45.5541C18.0781 45.5541 19.4627 44.1885 19.4627 42.51C19.4627 40.8315 18.078 39.4658 16.376 39.4658H14.225C13.7977 39.4573 13.3428 39.8442 13.3607 40.3301V48.0546C13.3607 48.5319 13.7477 48.9188 14.225 48.9188C14.7023 48.9188 15.0892 48.532 15.0892 48.0547ZM16.3758 41.1943C17.1121 41.1943 17.7341 41.7968 17.7341 42.51C17.7341 43.2231 17.1121 43.8256 16.3758 43.8256C16.0806 43.8256 15.5556 43.828 15.0994 43.8303C15.097 43.3597 15.0932 41.6865 15.0918 41.1943H16.3758Z" fill="#6ABD18"/>
</svg>
