<svg width="46" height="62" viewBox="0 0 46 62" fill="none" xmlns="http://www.w3.org/2000/svg">
<path d="M44.5415 25.2207C45.1652 24.1525 45.1652 22.8257 44.5412 21.7578L43.3105 19.6513C43.1484 19.3737 43.0857 19.044 43.1342 18.7231L43.501 16.2903C43.688 15.0505 43.2 13.8219 42.2277 13.0835L40.3203 11.6355C40.0682 11.4439 39.8889 11.1645 39.8155 10.8482L39.26 8.45218C38.9781 7.23514 38.0785 6.2963 36.9126 6.00175L34.6169 5.42185C34.3138 5.34525 34.0459 5.15816 33.8626 4.89495L32.475 2.90365C31.7677 1.88882 30.5904 1.37922 29.4029 1.57454L27.0713 1.95743C26.7639 2.0079 26.4479 1.94255 26.1822 1.77337L24.1636 0.488431C23.1403 -0.162871 21.8691 -0.16275 20.8458 0.488431L18.8275 1.77301C18.5617 1.94231 18.246 2.00741 17.9382 1.95707L15.6073 1.57418C14.4198 1.3791 13.2424 1.88845 12.5351 2.90328L11.1478 4.8941C10.9642 5.15731 10.6964 5.3444 10.3932 5.421L8.09766 6.00078C6.93185 6.29509 6.03214 7.23405 5.74993 8.45097L5.19433 10.8471C5.12094 11.1634 4.94181 11.4431 4.68952 11.6344L2.78168 13.0827C1.80939 13.8208 1.3215 15.0493 1.50828 16.2891L1.87513 18.7228C1.92348 19.0439 1.86087 19.3735 1.69878 19.6509L0.467814 21.7579C-0.155957 22.826 -0.155957 24.1528 0.46793 25.2207L1.69866 27.3274C1.86075 27.605 1.92348 27.9346 1.87501 28.2556L1.50817 30.6884C1.32115 31.9281 1.80916 33.1569 2.78145 33.8951L4.68882 35.3432C4.941 35.5345 5.12025 35.8141 5.19364 36.1305L5.74912 38.5265C6.03109 39.7435 6.93069 40.6823 8.09661 40.9769L9.05523 41.219L2.56777 56.3234C2.42991 56.6445 2.46806 57.0179 2.66783 57.3013C2.86748 57.5847 3.19757 57.7342 3.53241 57.6923L8.75238 57.0409L11.7595 61.5416C11.9355 61.8048 12.2227 61.9594 12.5266 61.9594C12.5557 61.9594 12.5851 61.958 12.6143 61.9552C12.9499 61.9223 13.2426 61.7034 13.3805 61.3825L20.006 45.9557L20.8456 46.49C21.3572 46.8156 21.9308 46.9784 22.5045 46.9784C23.0782 46.9784 23.6517 46.8155 24.1634 46.49L25.0332 45.9364L31.6671 61.3825C31.8049 61.7036 32.0976 61.9223 32.4332 61.9552C32.4626 61.9581 32.4919 61.9595 32.521 61.9595C32.8249 61.9595 33.1122 61.8049 33.2881 61.5417L36.2952 57.041L41.5151 57.6924C41.8497 57.734 42.1801 57.5849 42.3797 57.3014C42.5794 57.018 42.6177 56.6446 42.4798 56.3235L35.989 41.2108L36.9115 40.9779C38.0773 40.6835 38.977 39.7446 39.2592 38.5277L39.8148 36.1316C39.8882 35.8152 40.0675 35.5356 40.3196 35.3442L42.2275 33.8959C43.1998 33.1579 43.6877 31.9293 43.5009 30.6895L43.134 28.2558C43.0857 27.9347 43.1483 27.6051 43.3104 27.3277L44.5415 25.2207ZM12.349 59.0102L9.96596 55.4434C9.76839 55.1476 9.43053 54.9893 9.08758 55.0324L4.95086 55.5487L10.8615 41.7865C10.9696 41.8694 11.0665 41.9687 11.1464 42.0836L12.534 44.0749C12.6658 44.264 12.814 44.4355 12.9755 44.5882L9.86439 51.8318C9.65314 52.324 9.86393 52.9016 10.3354 53.1222C10.4596 53.1804 10.5896 53.2079 10.7174 53.2079C11.0747 53.2079 11.4161 52.9929 11.5715 52.6306L14.6716 45.4128C14.9767 45.4565 15.2907 45.4558 15.606 45.404L17.9376 45.0211C18.0772 44.9982 18.2183 45.0003 18.3557 45.024L12.349 59.0102ZM40.0969 55.5484L35.9601 55.0324C35.6168 54.9894 35.2793 55.1476 35.0817 55.4434L32.6986 59.0102L26.6894 45.0185C26.8154 45.0006 26.944 45.0006 27.0712 45.0215L29.402 45.4043C29.73 45.4582 30.0569 45.4565 30.3735 45.4072L33.4759 52.6309C33.6316 52.9933 33.9727 53.2081 34.33 53.2081C34.4579 53.2081 34.5879 53.1806 34.7121 53.1224C35.1835 52.9019 35.3944 52.3241 35.183 51.8321L32.0601 44.5609C32.2107 44.4149 32.35 44.2534 32.4741 44.0752L33.8615 42.0844C33.9489 41.9589 34.0561 41.8513 34.1764 41.7643L40.0969 55.5484ZM42.9439 24.204L41.7129 26.311C41.3205 26.9831 41.1686 27.7815 41.2858 28.5592L41.6526 30.9928C41.7297 31.5046 41.5282 32.0117 41.127 32.3165L39.219 33.7649C38.6083 34.2286 38.174 34.9059 37.9964 35.6721L37.4408 38.0682C37.3243 38.5705 36.953 38.9581 36.4716 39.0797L34.176 39.6595C33.4418 39.8449 32.7928 40.2982 32.3485 40.9357L30.9611 42.9266C30.6692 43.3456 30.1834 43.5557 29.6928 43.4751L27.3619 43.0922C26.6167 42.9699 25.8516 43.1282 25.2076 43.538L23.1893 44.8226C22.767 45.0913 22.242 45.0913 21.8198 44.8226L19.8011 43.5379C19.2991 43.2183 18.7236 43.0518 18.1412 43.0518C17.9766 43.0518 17.8111 43.0651 17.647 43.0921L15.3153 43.475C14.8249 43.5556 14.3391 43.3451 14.0471 42.9263L12.6594 40.935C12.2151 40.2976 11.5662 39.8443 10.8322 39.6589L8.5365 39.079C8.05522 38.9574 7.68386 38.5699 7.56733 38.0674L7.01185 35.6715C6.83423 34.9052 6.40002 34.2276 5.78912 33.7639L3.88186 32.3157C3.48047 32.011 3.27908 31.5037 3.3563 30.9919L3.72314 28.5591C3.84036 27.7813 3.6887 26.9828 3.29601 26.3106L2.06527 24.2039C1.80776 23.763 1.80776 23.2152 2.06527 22.7744L3.29624 20.6674C3.68882 19.9953 3.84059 19.1969 3.72337 18.4192L3.35653 15.9856C3.27943 15.4738 3.48093 14.9667 3.88221 14.6619L5.79016 13.2135C6.40084 12.7498 6.83516 12.0725 7.01278 11.3063L7.56838 8.91022C7.6849 8.40789 8.05615 8.02028 8.53754 7.89866L10.8332 7.31888C11.5674 7.13348 12.2164 6.68016 12.6606 6.04265L14.048 4.05184C14.3399 3.63288 14.8257 3.42244 15.3163 3.50316L17.6472 3.88605C18.3924 4.00864 19.1575 3.85011 19.8015 3.44023L21.8197 2.15565C22.2421 1.887 22.7671 1.887 23.1892 2.15565L25.2079 3.44035C25.8519 3.85035 26.6171 4.00876 27.362 3.88629L29.6937 3.5034C30.1839 3.42317 30.67 3.63325 30.9619 4.05208L32.3496 6.04338C32.7939 6.68077 33.4428 7.13409 34.1769 7.31948L36.4725 7.89939C36.9538 8.02101 37.3252 8.4085 37.4417 8.91095L37.9972 11.3069C38.1748 12.0732 38.609 12.7508 39.2199 13.2145L41.1273 14.6625C41.5287 14.9673 41.7301 15.4746 41.6529 15.9863L41.286 18.4192C41.1688 19.197 41.3205 19.9954 41.7132 20.6677L42.9439 22.7744C43.2015 23.2153 43.2015 23.7631 42.9439 24.204Z" fill="#6ABD18"/>
<path d="M37.5523 15.5187C37.3192 15.0374 36.7568 14.8443 36.2953 15.0873C35.8342 15.3304 35.6491 15.9176 35.882 16.3991C38.8141 22.459 37.6914 29.7586 33.0884 34.5629C27.7374 40.1477 19.2064 40.7073 13.2444 35.8647C12.8366 35.5336 12.249 35.61 11.9316 36.0355C11.6143 36.4611 11.6877 37.0746 12.0954 37.4058C15.1498 39.8868 18.8033 41.1071 22.4452 41.1071C26.7985 41.1071 31.1353 39.3632 34.4115 35.9437C39.5873 30.5416 40.8495 22.3334 37.5523 15.5187Z" fill="#6ABD18"/>
<path d="M33.4496 20.4513C33.2435 19.7888 32.7038 19.3263 32.041 19.2443L26.4119 18.5476L24.0376 13.1751C23.7581 12.5427 23.1699 12.1498 22.5025 12.1498C21.8353 12.1498 21.247 12.5427 20.9675 13.1751L18.5932 18.5477L12.964 19.2444C12.3013 19.3264 11.7615 19.789 11.5555 20.4514C11.3493 21.1135 11.5255 21.8189 12.0153 22.2917L16.177 26.3087L15.0723 32.1119C14.9424 32.7951 15.197 33.4738 15.7369 33.8831C16.0348 34.1089 16.3804 34.2232 16.7282 34.2232C17.011 34.2232 17.2951 34.1477 17.5561 33.9952L22.5024 31.1055L27.4488 33.9952C28.0312 34.3355 28.7281 34.2926 29.268 33.8832C29.808 33.4738 30.0626 32.795 29.9325 32.1119L28.8278 26.3089L32.9896 22.2918C33.4795 21.819 33.6558 21.1137 33.4496 20.4513ZM27.1732 25.2462C26.9343 25.4768 26.8274 25.8203 26.8907 26.1534L28.0212 32.0917L22.9594 29.1344C22.8174 29.0515 22.66 29.01 22.5024 29.01C22.3449 29.01 22.1875 29.0514 22.0455 29.1344L16.9837 32.0917L18.1141 26.1534C18.1776 25.8202 18.0706 25.4768 17.8317 25.2462L13.5729 21.1354L19.3336 20.4225C19.6566 20.3825 19.9366 20.1702 20.073 19.8619L22.5025 14.3641L24.9321 19.8619C25.0685 20.1702 25.3484 20.3825 25.6715 20.4225L31.432 21.1354L27.1732 25.2462Z" fill="#6ABD18"/>
<path d="M30.0818 7.72038C23.5521 4.27652 15.6864 5.59329 10.5095 10.9969C4.49264 17.2768 3.89044 27.2904 9.10878 34.2892C9.29325 34.5365 9.56896 34.666 9.84769 34.666C10.0485 34.666 10.2508 34.5989 10.4216 34.4601C10.8294 34.1288 10.9027 33.5154 10.5854 33.0898C5.94552 26.867 6.48175 17.9626 11.8326 12.3777C16.4367 7.57189 23.4313 6.4007 29.2382 9.46324C29.6992 9.70672 30.262 9.51334 30.495 9.03206C30.7279 8.55079 30.5431 7.9635 30.0818 7.72038Z" fill="#6ABD18"/>
</svg>
