<svg width="52" height="63" viewBox="0 0 52 63" fill="none" xmlns="http://www.w3.org/2000/svg">
<path d="M18.4821 60.7672C18.4821 61.3371 18.0378 61.7991 17.4896 61.7991H0.992811C0.444652 61.7991 0.000283423 61.3371 0.000283423 60.7672L0 36.1282C0 36.1091 0.000567113 36.09 0.00155964 36.071L1.49049 8.17671V1.03185C1.49049 0.461976 1.93486 0 2.48302 0H32.7832C33.3313 0 33.7757 0.461976 33.7757 1.03185V8.17464L34.6399 23.3716C34.6722 23.9405 34.2548 24.429 33.7076 24.4626C33.1632 24.4942 32.6906 24.0623 32.6583 23.4934L31.7925 8.26604C31.7914 8.24569 31.7908 8.2255 31.7908 8.20516V2.06371H29.3841V3.94493C29.3841 4.5148 28.9397 4.97678 28.3915 4.97678C27.8434 4.97678 27.399 4.5148 27.399 3.94493V2.06371H25.154V3.94493C25.154 4.5148 24.7097 4.97678 24.1615 4.97678C23.6134 4.97678 23.169 4.5148 23.169 3.94493V2.06371H20.9237V3.94493C20.9237 4.5148 20.4794 4.97678 19.9312 4.97678C19.3831 4.97678 18.9387 4.5148 18.9387 3.94493V2.06371H16.6939V3.94493C16.6939 4.5148 16.2495 4.97678 15.7014 4.97678C15.1532 4.97678 14.7088 4.5148 14.7088 3.94493V2.06371H12.4636V3.94493C12.4636 4.5148 12.0192 4.97678 11.4711 4.97678C10.9229 4.97678 10.4785 4.5148 10.4785 3.94493V2.06371H8.23358V3.94493C8.23358 4.5148 7.78921 4.97678 7.24105 4.97678C6.69289 4.97678 6.24853 4.5148 6.24853 3.94493V2.06371H3.47555V7.46679H27.0457C27.5938 7.46679 28.0382 7.92877 28.0382 8.49865C28.0382 9.06852 27.5938 9.5305 27.0457 9.5305H3.40635L1.98505 36.1566L1.98534 59.7354H17.4897C18.0379 59.7354 18.4821 60.1973 18.4821 60.7672ZM51.3874 48.7012C51.7749 49.1042 51.7749 49.7575 51.3874 50.1605C51.1936 50.3619 50.9395 50.4627 50.6855 50.4627C50.4316 50.4627 50.1775 50.3619 49.9837 50.1605L48.893 49.0266C47.9291 48.0244 46.4372 47.5901 45.0407 47.7725L46.6111 49.4049C48.3582 51.2212 48.8811 53.4337 48.1561 55.6015C48.1438 55.6476 48.1286 55.6923 48.1106 55.7356C47.8839 56.3677 47.5516 56.9953 47.1113 57.6074C44.8595 60.7376 40.1972 62.9996 35.6244 63C33.6044 63.0001 31.6028 62.559 29.8325 61.5564C29.6648 61.4614 29.5271 61.3182 29.4358 61.1438C26.2882 55.1376 28.893 46.5555 33.2341 43.1806C33.8232 42.7226 34.4272 42.3768 35.0356 42.1412C35.0756 42.1231 35.1172 42.1082 35.1597 42.0957C37.2461 41.3399 39.3757 41.8831 41.1241 43.7008C41.5116 44.1037 41.5116 44.757 41.1239 45.16C40.7366 45.5628 40.108 45.5628 39.7204 45.1598C38.5787 43.9729 37.452 43.7002 36.4533 43.8696C36.6406 46.3864 37.7967 48.9059 39.7007 50.885C41.6042 52.8644 44.0277 54.0665 46.4489 54.2612C46.6118 53.2227 46.3496 52.0513 45.2076 50.8642L43.0078 48.5775C42.5631 48.8928 41.9558 48.7834 41.6413 48.3257C41.3226 47.862 41.4258 47.2175 41.8719 46.8863C44.3708 45.0298 48.1502 45.3355 50.2969 47.5673L51.3874 48.7012ZM45.5214 56.3714C45.5515 56.3295 45.5812 56.2871 45.6109 56.244C42.9553 55.8581 40.3567 54.4863 38.2965 52.3442C36.2362 50.2024 34.917 47.5004 34.5458 44.7399C34.5041 44.7707 34.4631 44.8018 34.4227 44.8332C30.8588 47.604 28.6188 54.8543 31.0424 59.8857C35.8818 62.4052 42.8563 60.0763 45.5214 56.3714ZM26.1833 59.7603C24.172 59.2849 22.3364 58.0036 21.0148 56.1523C19.7008 54.3121 19.0443 52.1107 19.1658 49.9538C19.2428 48.5856 20.3736 47.5374 21.6921 47.6176C23.0083 47.6976 24.0166 48.876 23.9396 50.2438C23.8832 51.2419 24.2055 52.2869 24.8474 53.1863C25.174 53.644 25.7956 53.7397 26.2359 53.4002C26.676 53.0606 26.7682 52.4144 26.4416 51.9567C26.0822 51.453 25.8925 50.8728 25.9213 50.3647C26.0621 47.8605 24.217 45.7039 21.8081 45.5572C19.3997 45.4122 17.3251 47.3289 17.184 49.8331C17.0353 52.4724 17.8296 55.1535 19.4206 57.3821C21.0247 59.6288 23.2699 61.1879 25.7432 61.7725C25.8172 61.7899 25.8912 61.7985 25.9641 61.7985C26.4171 61.7983 26.8265 61.4737 26.9311 60.9951C27.0526 60.4397 26.7177 59.8868 26.1833 59.7603ZM33.0187 26.8441C35.4356 26.8441 37.4018 28.8882 37.4018 31.4009C37.4018 33.9135 35.4356 35.9576 33.0187 35.9576C32.5625 35.9576 32.0479 36.1833 31.6065 36.5767C31.1485 36.985 30.8398 37.5069 30.7596 38.0085C30.7596 38.0086 30.7596 38.0086 30.7596 38.0088C30.5674 39.2075 29.9377 40.2566 28.9865 40.963C28.236 41.5203 27.3563 41.8116 26.4521 41.8116C26.2102 41.8116 25.9666 41.7907 25.7232 41.7485C23.3434 41.3362 21.7298 38.9877 22.1264 36.513C22.5441 33.9053 23.8904 31.4741 25.9174 29.6677C27.9605 27.8469 30.4824 26.8441 33.0187 26.8441ZM33.0187 28.9078C30.9561 28.9078 28.8929 29.7341 27.2094 31.2347C25.5356 32.7263 24.426 34.7212 24.0847 36.8521C23.868 38.2044 24.7494 39.4877 26.0496 39.7128C26.6794 39.8229 27.3129 39.6698 27.8326 39.2837C28.3524 38.8978 28.6964 38.3245 28.8013 37.6696C28.9591 36.6834 29.4965 35.7389 30.3143 35.0101C31.1217 34.2903 32.0822 33.8939 33.0185 33.8939C34.3409 33.8939 35.4166 32.7755 35.4166 31.4009C35.4168 30.0262 34.341 28.9078 33.0187 28.9078ZM43.7687 32.0298C44.0674 31.9682 44.3787 31.7522 44.6226 31.4371C44.856 31.1356 44.985 30.7964 44.9764 30.5066C44.9165 28.4949 46.4423 26.8071 48.3776 26.7448C50.3125 26.6855 51.9365 28.2691 51.9964 30.2811C52.0561 32.3029 51.3777 34.3348 50.0858 36.0029C48.8041 37.6578 47.0457 38.7864 45.1339 39.1807C44.9041 39.2281 44.6729 39.2516 44.4438 39.2516C43.7571 39.2516 43.0859 39.0412 42.5021 38.6356C41.7234 38.0943 41.1941 37.2703 41.0117 36.3152C40.8293 35.3602 41.0155 34.3883 41.536 33.5789C42.0566 32.7695 42.8494 32.2192 43.768 32.0295C43.7685 32.0298 43.7686 32.0298 43.7687 32.0298ZM44.155 34.0541C43.332 34.2239 42.7957 35.0583 42.959 35.9137C43.0381 36.328 43.2678 36.6854 43.6056 36.9202C43.9434 37.1552 44.3491 37.2387 44.7478 37.1566C46.2034 36.8565 47.5501 35.9871 48.54 34.7091C49.5348 33.4244 50.0577 31.8746 50.0125 30.3451C49.9869 29.4873 49.3072 28.807 48.4869 28.807C48.4711 28.807 48.455 28.8073 48.4392 28.8079C47.5979 28.835 46.9346 29.5685 46.9607 30.4432C46.9838 31.2297 46.7028 32.0422 46.169 32.7312C45.6297 33.4277 44.9146 33.8974 44.155 34.0541ZM41.8529 22.5597C42.0466 22.7612 42.3007 22.8621 42.5547 22.8621C42.8087 22.8621 43.0626 22.7612 43.2565 22.5599L43.6898 22.1095C44.0773 21.7068 44.0774 21.0534 43.6899 20.6504C43.3027 20.2475 42.6741 20.2475 42.2863 20.6502L41.853 21.1005C41.4655 21.5033 41.4654 22.1567 41.8529 22.5597ZM40.4229 15.9346C40.677 15.9346 40.9311 15.8338 41.1248 15.6323L41.5578 15.182C41.9453 14.779 41.9452 14.1255 41.5577 13.7228C41.1699 13.3196 40.5413 13.3201 40.1541 13.7229L39.7211 14.1733C39.3336 14.5763 39.3337 15.2297 39.7212 15.6324C39.9149 15.834 40.1689 15.9346 40.4229 15.9346ZM48.8394 10.5569C49.0934 10.5569 49.3473 10.4561 49.5411 10.2547L49.9745 9.80438C50.362 9.40167 50.3621 8.74821 49.9746 8.34519C49.5874 7.94248 48.9588 7.94233 48.571 8.34505L48.1377 8.79538C47.7502 9.1981 47.7501 9.85155 48.1376 10.2546C48.3313 10.4562 48.5853 10.5569 48.8394 10.5569ZM16.529 40.6608C16.1412 40.2576 15.5126 40.2581 15.1254 40.6609C14.7379 41.064 14.738 41.7174 15.1255 42.1201L15.5589 42.5705C15.7527 42.772 16.0066 42.8727 16.2606 42.8727C16.5147 42.8727 16.7687 42.7718 16.9624 42.5703C17.3499 42.1673 17.3498 41.5139 16.9623 41.1111L16.529 40.6608ZM18.1946 34.4868C18.4485 34.4868 18.7026 34.386 18.8964 34.1846C19.284 33.7816 19.284 33.1283 18.8964 32.7253L18.4633 32.2749C18.0756 31.8722 17.4472 31.8722 17.0596 32.2749C16.672 32.6779 16.672 33.3312 17.0596 33.7343L17.4927 34.1846C17.6866 34.386 17.9406 34.4868 18.1946 34.4868ZM9.12501 32.0472C8.7375 32.4499 8.73736 33.1034 9.12487 33.5064L9.5579 33.9567C9.75158 34.1582 10.0057 34.259 10.2598 34.259C10.5137 34.259 10.7676 34.1582 10.9615 33.9568C11.349 33.5541 11.3491 32.9007 10.9616 32.4977L10.5286 32.0473C10.1415 31.6445 9.51295 31.6445 9.12501 32.0472ZM21.4349 29.8971C21.5329 29.9288 21.632 29.9437 21.7293 29.9437C22.1526 29.9437 22.545 29.6596 22.677 29.2172C22.8395 28.673 22.5467 28.0949 22.0232 27.926C21.6171 27.7949 21.3113 27.4621 21.2052 27.0355C21.0281 26.3226 20.5798 25.6688 19.9427 25.1952C19.3117 24.7259 18.5839 24.502 17.8931 24.5656C17.2237 24.6284 16.6308 24.1103 16.5718 23.4142C16.513 22.718 17.0098 22.1019 17.6793 22.0406C18.9366 21.926 20.2415 22.3164 21.351 23.1415C22.463 23.9684 23.2714 25.1758 23.5687 26.4541C23.6974 27.0083 24.2348 27.3484 24.7665 27.2146C25.2994 27.0807 25.6269 26.5231 25.498 25.9693C25.0904 24.2163 23.9999 22.5739 22.5058 21.4632C21.0111 20.3516 19.236 19.8259 17.5051 19.9851C15.7453 20.1462 14.4396 21.7658 14.5945 23.5954C14.7497 25.425 16.3075 26.7834 18.0673 26.6214C18.2804 26.6033 18.5492 26.6964 18.7878 26.8739C19.0428 27.0635 19.2234 27.3107 19.2834 27.5521C19.5629 28.6761 20.3672 29.5527 21.4349 29.8971Z" fill="#6ABD18"/>
</svg>
