<svg width="87" height="104" viewBox="0 0 87 104" fill="none" xmlns="http://www.w3.org/2000/svg">
<g clip-path="url(#clip0_1215_67)">
<path d="M40.9389 54.9919H58.2465C64.4562 55.002 70.408 57.4504 74.7953 61.7995C79.1826 66.1487 81.6468 72.0431 81.6467 78.1886V104.008H17.5001V78.1886C17.5001 72.0365 19.9696 66.1363 24.3652 61.7861C28.7608 57.4359 34.7226 54.9919 40.9389 54.9919Z" fill="#1D1F20"/>
<path d="M18.9405 28.6395L1.37875 19.6978L2.79602 25.1939C3.21519 26.8552 4.17725 28.3328 5.5326 29.3971C6.88795 30.4613 8.56064 31.0525 10.2906 31.0788L19.0946 31.1627L18.9405 28.6395Z" fill="#1D1F20"/>
<path d="M19.6183 30.9263L0 33.2818L5.20691 37.8555C6.23615 38.7604 7.5383 39.3039 8.91144 39.4017C10.2846 39.4996 11.652 39.1463 12.8016 38.3968L21.1896 32.9387L19.6183 30.9263Z" fill="#1D1F20"/>
<path d="M50.7288 73.4395C44.4205 73.4395 38.3706 70.9594 33.91 66.5448C29.4494 62.1303 26.9434 56.1429 26.9434 49.8998L26.9434 17.5327L74.4834 17.5327V49.8998C74.4834 56.1376 71.9817 62.1204 67.5277 66.5341C63.0738 70.9477 57.0318 73.4314 50.7288 73.4395Z" fill="#FAC9AC"/>
<path d="M41.4781 53.1853C41.5501 55.7469 42.629 58.1797 44.4853 59.9664C46.3416 61.7531 48.8288 62.7527 51.4182 62.7527C54.0076 62.7527 56.4948 61.7531 58.3511 59.9664C60.2074 58.1797 61.2863 55.7469 61.3583 53.1853H41.4781Z" fill="white"/>
<path d="M70.1777 29.1882L25.2258 29.1882V18.2493C25.2258 17.07 25.4604 15.9023 25.9164 14.8129C26.3724 13.7234 27.0408 12.7334 27.8833 11.8996C28.7259 11.0657 29.7262 10.4043 30.827 9.953C31.9279 9.50171 33.1078 9.26945 34.2993 9.26945L86.9769 9.26945V12.5397C86.9749 16.9506 85.205 21.1806 82.0557 24.3017C78.9063 27.4228 74.6346 29.1802 70.1777 29.1882Z" fill="#6D4117"/>
<path d="M54.2104 16.3436H79.413V0L33.4983 9.46771L54.2104 16.3436Z" fill="#6D4117"/>
<path d="M28.3376 52.6365L23.9934 48.482C20.3963 48.482 17.4847 43.5271 17.4847 39.9748V19.8044C17.4847 18.2234 18.1193 16.7072 19.2489 15.5892C20.3785 14.4713 21.9106 13.8433 23.5081 13.8433H27.7907L28.3376 52.6365Z" fill="#6D4117"/>
<path d="M28.1142 40.6455L29.1772 55.9524L27.991 56.1277C25.9569 56.0646 24.0276 55.2205 22.6113 53.7742C21.1951 52.328 20.4031 50.393 20.4031 48.379C20.4031 46.365 21.1951 44.43 22.6113 42.9837C24.0276 41.5374 25.9569 40.6934 27.991 40.6302C28.0326 40.6278 28.0744 40.6329 28.1142 40.6455Z" fill="#FAC9AC"/>
<path d="M75.5386 51.4778L28.2682 51.4778C26.8521 51.4778 25.4499 51.2017 24.1416 50.6654C22.8332 50.1291 21.6445 49.343 20.6431 48.352C19.6418 47.361 18.8475 46.1845 18.3056 44.8897C17.7636 43.5949 17.4847 42.2071 17.4847 40.8056V33.1065L75.5386 33.1065V51.4778Z" fill="#1D1F20"/>
<path d="M33.5599 38.8999C33.1975 40.5275 33.4906 42.2308 34.3769 43.6479C35.2632 45.0651 36.6729 46.0844 38.3065 46.4893C39.9401 46.8942 41.6688 46.6528 43.1254 45.8164C44.582 44.9801 45.6518 43.6146 46.1073 42.0101L33.5599 38.8999Z" fill="white"/>
<path d="M67.243 38.5264C67.7762 40.1438 67.6383 41.9045 66.8598 43.4213C66.0812 44.9381 64.7256 46.0867 63.0914 46.6143C61.4571 47.142 59.678 47.0056 58.1454 46.235C56.6127 45.4645 55.4522 44.1229 54.919 42.5056L67.243 38.5264Z" fill="white"/>
<path d="M63.3918 42.2616C64.0086 42.2616 64.5086 41.5313 64.5086 40.6303C64.5086 39.7294 64.0086 38.999 63.3918 38.999C62.7749 38.999 62.2749 39.7294 62.2749 40.6303C62.2749 41.5313 62.7749 42.2616 63.3918 42.2616Z" fill="#1D1F20"/>
<path d="M43.7426 42.2998C43.7426 43.1993 43.242 43.9311 42.6258 43.9311C42.0096 43.9311 41.5012 43.1688 41.5012 42.2998C41.5012 41.4308 42.0019 40.6685 42.6258 40.6685C43.2497 40.6685 43.7426 41.4003 43.7426 42.2998Z" fill="#1D1F20"/>
</g>
<defs>
<clipPath id="clip0_1215_67">
<rect width="87" height="104" fill="white"/>
</clipPath>
</defs>
</svg>
