<svg width="0" height="0" class="hidden">
    <symbol fill="currentColor" xmlns="http://www.w3.org/2000/svg" viewBox="0 0 10 10" id="clock">
      <path
        d="M5 10c-2.757 0-5-2.243-5-5s2.243-5 5-5 5 2.243 5 5-2.243 5-5 5zM5 .625A4.38 4.38 0 00.625 5 4.38 4.38 0 005 9.375 4.38 4.38 0 009.375 5 4.38 4.38 0 005 .625z"></path>
      <path
        d="M7.188 7.708a.31.31 0 01-.221-.091L4.779 5.429a.313.313 0 01-.091-.22V2.291a.313.313 0 01.625 0v2.787l2.095 2.096a.313.313 0 01-.22.533z"></path>
    </symbol>
    <symbol fill="currentColor" xmlns="http://www.w3.org/2000/svg" viewBox="0 0 15 9" id="drop-arrow">
      <path
        d="M7.912 8.38l6.918-6.938a.582.582 0 00-.823-.821L7.5 7.146.993.62a.581.581 0 10-.823.822L7.088 8.38a.58.58 0 00.824 0z"></path>
    </symbol>
    <symbol fill="currentColor" xmlns="http://www.w3.org/2000/svg" viewBox="0 0 22 21" id="facebook">
      <path
        d="M19.25 0H2.75C1.233 0 0 1.177 0 2.625v15.75C0 19.823 1.233 21 2.75 21H11v-7.219H8.25V10.5H11V7.875c0-2.175 1.847-3.938 4.125-3.938h2.75V7.22H16.5c-.759 0-1.375-.069-1.375.656V10.5h3.438l-1.375 3.281h-2.063V21h4.125c1.517 0 2.75-1.177 2.75-2.625V2.625C22 1.177 20.767 0 19.25 0z"></path>
    </symbol>
    <symbol fill="currentColor" xmlns="http://www.w3.org/2000/svg" viewBox="0 0 18 18" id="geo">
      <path
        d="M14.341 2.214a7.548 7.548 0 00-10.68 0 7.548 7.548 0 000 10.68l4.94 4.94a.566.566 0 00.8 0l4.94-4.94a7.548 7.548 0 000-10.68zm-.798 9.881L9 16.637l-4.542-4.542a6.43 6.43 0 010-9.083 6.43 6.43 0 019.084 0 6.43 6.43 0 010 9.083z">
      </path>
      <path
        d="M9.001 4.178a3.374 3.374 0 00-3.376 3.376 3.374 3.374 0 003.376 3.376 3.374 3.374 0 003.376-3.376 3.374 3.374 0 00-3.376-3.376zm1.589 4.965c-.022 0-.554.658-1.589.658a2.246 2.246 0 01-2.247-2.247A2.246 2.246 0 019 5.307c2.017 0 2.987 2.437 1.589 3.836z">
      </path>
    </symbol>
    <symbol fill="currentColor" xmlns="http://www.w3.org/2000/svg" viewBox="0 0 22 21" id="instagram">
      <path
        d="M11 6.234c-2.488 0-4.512 1.932-4.512 4.307 0 2.375 2.024 4.307 4.512 4.307 2.488 0 4.512-1.932 4.512-4.307 0-2.375-2.024-4.307-4.512-4.307zm0 0c-2.488 0-4.512 1.932-4.512 4.307 0 2.375 2.024 4.307 4.512 4.307 2.488 0 4.512-1.932 4.512-4.307 0-2.375-2.024-4.307-4.512-4.307zM18.777 0H3.223C1.443 0 0 1.378 0 3.076v14.848C0 19.622 1.444 21 3.223 21h15.554C20.557 21 22 19.622 22 17.924V3.076C22 1.378 20.556 0 18.777 0zM11 16.078c-3.197 0-5.8-2.486-5.8-5.537 0-3.052 2.603-5.537 5.8-5.537 3.197 0 5.8 2.485 5.8 5.537 0 3.051-2.603 5.537-5.8 5.537zm7.09-11.074c-.71 0-1.29-.554-1.29-1.23 0-.677.58-1.231 1.29-1.231.709 0 1.289.554 1.289 1.23 0 .677-.58 1.23-1.29 1.23zM11 6.234c-2.488 0-4.512 1.932-4.512 4.307 0 2.375 2.024 4.307 4.512 4.307 2.488 0 4.512-1.932 4.512-4.307 0-2.375-2.024-4.307-4.512-4.307zm0 0c-2.488 0-4.512 1.932-4.512 4.307 0 2.375 2.024 4.307 4.512 4.307 2.488 0 4.512-1.932 4.512-4.307 0-2.375-2.024-4.307-4.512-4.307zm0 0c-2.488 0-4.512 1.932-4.512 4.307 0 2.375 2.024 4.307 4.512 4.307 2.488 0 4.512-1.932 4.512-4.307 0-2.375-2.024-4.307-4.512-4.307z"></path>
    </symbol>
    <symbol fill="currentColor" xmlns="http://www.w3.org/2000/svg" viewBox="0 0 14 14" id="loupe">
        <path
          d="M13.829 13.005L9.848 9.024a5.515 5.515 0 001.235-3.481A5.548 5.548 0 005.542 0 5.548 5.548 0 000 5.543a5.548 5.548 0 005.542 5.541 5.515 5.515 0 003.48-1.235l3.982 3.98a.582.582 0 10.825-.824zM5.542 9.917a4.38 4.38 0 01-4.375-4.374 4.38 4.38 0 014.375-4.375 4.38 4.38 0 014.375 4.375 4.38 4.38 0 01-4.375 4.374z"></path>
    </symbol>
    <symbol fill="currentColor" xmlns="http://www.w3.org/2000/svg" viewBox="0 0 19 19" id="mail">
      <path d="M17.33 2.82H1.67C.747 2.82 0 3.572 0 4.49v10.02c0 .923.753 1.67 1.67 1.67h15.66c.915 0 1.67-.744 1.67-1.67V4.49c0-.916-.744-1.67-1.67-1.67zm-.234 1.114l-6.415 6.381c-.316.316-.735.49-1.181.49a1.66 1.66 0 01-1.182-.49L1.904 3.933h15.192zM1.113 14.284V4.717l4.811 4.785-4.81 4.78zm.791.782l4.81-4.778.818.814a2.765 2.765 0 001.968.816c.743 0 1.442-.29 1.967-.815l.82-.815 4.809 4.778H1.904zm15.983-.783l-4.811-4.78 4.81-4.785v9.565z"></path>
    </symbol>
    <symbol fill="currentColor" xmlns="http://www.w3.org/2000/svg" viewBox="0 0 60 60" id="play">
      <path
        d="M51.208 8.791c-11.72-11.72-30.693-11.722-42.416 0-11.722 11.721-11.723 30.695 0 42.417 11.72 11.721 30.694 11.723 42.416 0 11.722-11.72 11.723-30.694 0-42.417zM39.02 31.945l-11.262 8.759c-1.6 1.245-3.976.116-3.976-1.945V21.241c0-2.046 2.36-3.202 3.976-1.945l11.262 8.76a2.465 2.465 0 010 3.889z"></path>
    </symbol>
    <symbol fill="currentColor" xmlns="http://www.w3.org/2000/svg" viewBox="0 0 26 26" id="left-arrow">
      <path d="M.298 13.719l5.308 5.282a1.016 1.016 0 101.433-1.44l-3.563-3.545h21.508a1.016 1.016 0 000-2.032H3.476L7.039 8.44A1.016 1.016 0 005.606 7L.299 12.28l-.001.001a1.016 1.016 0 000 1.438z"></path>
    </symbol>
    <symbol fill="currentColor" xmlns="http://www.w3.org/2000/svg" viewBox="0 0 26 26" id="right-arrow">
      <path d="M25.702 12.281l-5.308-5.282a1.016 1.016 0 00-1.433 1.44l3.563 3.545H1.016a1.016 1.016 0 100 2.032h21.508l-3.563 3.545a1.016 1.016 0 101.433 1.44l5.307-5.281.001-.001a1.016 1.016 0 000-1.438z"></path>
    </symbol>
    <symbol fill="currentColor" xmlns="http://www.w3.org/2000/svg" viewBox="0 0 17 17" id="cart">
      <path
        d="M15.707 5.451h-.882l-.02-.022L10.001.624a.554.554 0 00-.784.784l4.042 4.043H3.74l4.043-4.043A.554.554 0 007 .624L2.195 5.43l-.02.022h-.882A1.293 1.293 0 000 6.745v.739c0 .68.526 1.238 1.193 1.29l1.062 6.374c.135.806.824 1.39 1.64 1.39h9.372c.822 0 1.53-.614 1.646-1.428l.905-6.338A1.295 1.295 0 0017 7.484v-.74c0-.713-.58-1.293-1.293-1.293zm.184 2.033a.185.185 0 01-.184.184h-5.544a.554.554 0 000 1.11h4.535l-.883 6.175a.557.557 0 01-.548.476H3.896a.553.553 0 01-.547-.463L2.317 8.777h4.52a.554.554 0 000-1.109H1.293a.185.185 0 01-.184-.184v-.74c0-.101.083-.184.184-.184h14.413c.102 0 .185.083.185.185v.739z"></path>
      <path
        d="M5.174 9.886a.554.554 0 00-.554.554v3.326a.554.554 0 001.108 0V10.44a.554.554 0 00-.554-.554zm3.326 0a.554.554 0 00-.555.554v3.326a.554.554 0 001.109 0V10.44a.554.554 0 00-.554-.554zm3.326 0a.554.554 0 00-.555.554v3.326a.554.554 0 001.11 0V10.44a.554.554 0 00-.555-.554z"></path>
    </symbol>
    <symbol fill="currentColor" xmlns="http://www.w3.org/2000/svg" viewBox="0 0 17 17" id="user">
      <path
        d="M16.957 14.567a.664.664 0 00-1.3.27.694.694 0 01-.141.582.674.674 0 01-.531.253H2.015a.675.675 0 01-.531-.253.694.694 0 01-.14-.581c.688-3.31 3.608-5.729 6.98-5.81a4.552 4.552 0 00.353 0 7.305 7.305 0 015.9 3.242.664.664 0 101.103-.74 8.638 8.638 0 00-4.476-3.4 4.512 4.512 0 001.812-3.614A4.52 4.52 0 008.5 0a4.52 4.52 0 00-4.516 4.516c0 1.477.714 2.791 1.814 3.616a8.63 8.63 0 00-2.782 1.53 8.663 8.663 0 00-2.973 4.905A2.017 2.017 0 002.015 17h12.97a2.017 2.017 0 001.972-2.433zM5.312 4.516A3.191 3.191 0 018.5 1.328a3.191 3.191 0 013.188 3.188 3.192 3.192 0 01-3.027 3.183 8.752 8.752 0 00-.322 0 3.191 3.191 0 01-3.027-3.183z"></path>
    </symbol>
    <symbol fill="currentColor" xmlns="http://www.w3.org/2000/svg" viewBox="0 0 30 21" id="youtube">
      <path
        d="M28.725 2.005C27.911.545 27.028.276 25.23.174 23.434.051 18.917 0 15.004 0c-3.92 0-8.44.051-10.234.172-1.794.104-2.68.37-3.5 1.833C.43 3.463 0 5.975 0 10.397v.015c0 4.403.431 6.934 1.27 8.377.82 1.46 1.704 1.725 3.498 1.848 1.796.105 6.315.168 10.236.168 3.913 0 8.43-.063 10.228-.166 1.798-.123 2.681-.388 3.495-1.848.846-1.444 1.273-3.974 1.273-8.377v-.015c0-4.424-.427-6.936-1.275-8.394zM11.25 16.077V4.727l9.375 5.675-9.375 5.673z"></path>
    </symbol>
    <symbol fill="currentColor" xmlns="http://www.w3.org/2000/svg" viewBox="0 0 34 34" id="figure">
      <path d="M18.412.544c1.298-.98 2.851-.53 3.523.614l.058.098a2.342 2.342 0 002.61 1.081c1.573-.41 2.836.6 3.019 1.915l.016.113a2.342 2.342 0 001.997 1.997c1.611.224 2.39 1.641 2.057 2.925l-.029.11a2.342 2.342 0 001.08 2.61c1.404.824 1.582 2.431.782 3.49l-.069.09a2.342 2.342 0 000 2.825c.98 1.298.53 2.851-.614 3.523l-.098.058a2.342 2.342 0 00-1.081 2.61c.41 1.573-.6 2.836-1.915 3.019l-.113.016a2.342 2.342 0 00-1.997 1.997c-.224 1.611-1.641 2.39-2.925 2.057l-.11-.029a2.342 2.342 0 00-2.61 1.08c-.824 1.404-2.431 1.582-3.49.782l-.09-.069a2.342 2.342 0 00-2.825 0c-1.298.98-2.851.53-3.523-.614l-.058-.098a2.342 2.342 0 00-2.61-1.081c-1.574.41-2.836-.6-3.019-1.915l-.016-.113a2.342 2.342 0 00-1.997-1.997c-1.611-.224-2.39-1.641-2.057-2.925l.029-.11a2.342 2.342 0 00-1.08-2.61c-1.404-.824-1.582-2.431-.782-3.49l.069-.09a2.342 2.342 0 000-2.825c-.98-1.298-.53-2.851.614-3.523l.098-.058a2.342 2.342 0 001.081-2.61c-.41-1.574.6-2.836 1.915-3.019l.113-.016a2.342 2.342 0 001.997-1.997c.224-1.611 1.641-2.39 2.925-2.057l.11.029a2.342 2.342 0 002.61-1.08c.824-1.404 2.431-1.582 3.49-.782l.09.069a2.342 2.342 0 002.825 0z"></path>
    </symbol>
    <symbol fill="currentColor" xmlns="http://www.w3.org/2000/svg" viewBox="0 0 17 17" id="phone">
      <path d="M13.435 10.531c-.348-.362-.768-.556-1.213-.556-.441 0-.865.19-1.227.552l-1.134 1.13c-.093-.05-.186-.096-.276-.143a4.105 4.105 0 01-.355-.19c-1.062-.675-2.028-1.554-2.953-2.691-.449-.567-.75-1.044-.969-1.529.294-.269.567-.548.832-.818l.302-.305c.753-.753.753-1.729 0-2.482l-.98-.98c-.111-.111-.226-.226-.333-.34a16.945 16.945 0 00-.675-.668C4.106 1.166 3.69.983 3.252.983c-.438 0-.861.183-1.22.528l-.007.007-1.22 1.23a2.625 2.625 0 00-.779 1.67C-.06 5.464.25 6.44.486 7.078c.581 1.568 1.45 3.021 2.745 4.579a16.885 16.885 0 005.622 4.402c.825.391 1.927.854 3.157.933.076.004.155.007.226.007.83 0 1.525-.298 2.07-.89.004-.007.011-.01.015-.018.187-.226.402-.43.628-.65.154-.146.312-.3.466-.462.356-.37.542-.8.542-1.241 0-.445-.19-.872-.553-1.231l-1.97-1.977zm1.284 3.778c-.003 0-.003.004 0 0-.14.15-.283.287-.438.438a9.46 9.46 0 00-.692.717c-.362.388-.79.57-1.35.57-.053 0-.11 0-.164-.003-1.066-.068-2.056-.484-2.799-.84a15.939 15.939 0 01-5.296-4.147C2.757 9.57 1.94 8.206 1.397 6.742 1.063 5.85.941 5.152.995 4.496c.036-.42.198-.768.495-1.066l1.224-1.223c.176-.165.362-.255.545-.255.226 0 .41.136.524.251l.01.011c.22.205.428.416.647.642.11.115.226.23.34.348l.98.98c.38.38.38.732 0 1.112-.104.104-.204.208-.309.309a18.73 18.73 0 01-.9.875c-.007.007-.014.01-.018.018-.309.309-.251.61-.187.815l.011.032c.255.617.614 1.198 1.16 1.89l.003.004c.99 1.22 2.034 2.171 3.186 2.9.147.093.298.168.441.24.13.064.251.125.355.19.015.007.029.018.043.025a.78.78 0 00.356.09c.297 0 .484-.187.545-.248l1.227-1.227c.122-.122.316-.269.542-.269.222 0 .405.14.517.262a.479.479 0 01.007.007l1.977 1.977c.37.366.37.743.003 1.123zM9.186 4.044a4.55 4.55 0 012.476 1.284 4.574 4.574 0 011.284 2.476c.04.237.244.402.477.402.029 0 .054-.004.083-.007a.485.485 0 00.398-.56 5.535 5.535 0 00-1.554-2.996A5.534 5.534 0 009.354 3.09a.487.487 0 00-.56.395.48.48 0 00.392.56zM16.98 7.5a9.105 9.105 0 00-2.558-4.934A9.105 9.105 0 009.488.007a.483.483 0 10-.157.955 8.152 8.152 0 014.41 2.285 8.128 8.128 0 012.285 4.41c.04.237.244.402.477.402.029 0 .054-.004.082-.007a.475.475 0 00.395-.553z"></path>
    </symbol>
    <symbol fill="currentColor" xmlns="http://www.w3.org/2000/svg" viewBox="0 0 15 15" id="paper-clip">
      <path d="M13.729 1.571a4.229 4.229 0 00-5.916.001L.919 8.466a3.23 3.23 0 004.567 4.567L11.73 6.79a2.078 2.078 0 10-2.94-2.94L2.82 9.824a.543.543 0 00.768.767l5.97-5.97a.993.993 0 011.404 1.403L4.72 12.266a2.144 2.144 0 01-3.032-3.032L8.58 2.34a3.145 3.145 0 014.448 4.446L6.135 13.68a.543.543 0 10.765.765l6.894-6.893a4.229 4.229 0 00-.065-5.98z"></path>
    </symbol>
    <symbol fill="currentColor" xmlns="http://www.w3.org/2000/svg" viewBox="0 0 15 15" id="box">
      <path d="M4.402 11.015l-1.875-.796a.469.469 0 00-.366.862l1.875.797a.466.466 0 00.614-.248.467.467 0 00-.248-.615z"></path>
      <path d="M14.993 3.261a.478.478 0 00-.023-.143c-.01-.028-.03-.046-.044-.07-.01-.018-.018-.033-.03-.048a.45.45 0 00-.194-.15l-.007-.005-7.5-2.812a.458.458 0 00-.348.007L.284 2.85c-.006.003-.01.01-.016.013a.454.454 0 00-.164.138.489.489 0 00-.036.05c-.009.017-.023.028-.03.046A.47.47 0 000 3.282v8.438a.47.47 0 00.284.431l6.563 2.813a.466.466 0 00.35.007l.016-.006h.001l7.482-2.806A.468.468 0 0015 11.72V3.283c0-.009-.007-.014-.007-.022zm-8.43 10.56l-5.625-2.41V3.994l5.625 2.41v7.417zm.48-8.231L1.659 3.283 7.043.976l6.153 2.307-1.467.55L9.1 2.654a.46.46 0 00-.412.016l-1.839.781a.471.471 0 00.005.868l1.705.704-1.515.567zm3.27-.225l.937-.352v2.285l-.938.351V5.365zm-.467-.826l-1.604-.661.664-.282 1.575.705-.635.238zm4.216 6.856L7.5 13.855V6.42l1.875-.703v2.61a.471.471 0 00.634.44l1.875-.704a.47.47 0 00.303-.439V4.662l1.876-.703v7.436z"></path>
    </symbol>
    <symbol fill="currentColor" xmlns="http://www.w3.org/2000/svg" viewBox="0 0 15 15" id="shopping-bag">
      <path d="M12.774 4.412H11.03v-2.06A2.356 2.356 0 008.676 0H8.53c-.37 0-.719.086-1.03.238a2.356 2.356 0 00-3.382 2.115v2.059H2.226L1.745 15h11.51l-.48-10.588zM8.657.847c.811 0 1.49.695 1.49 1.506v2.059H8.823v-2.06c0-.548-.19-1.053-.506-1.454 0 0 .05-.051.34-.051zM7.5 1.304c.272.267.441.639.441 1.049v2.059H7.06v-2.06c0-.41.169-.78.44-1.048zM5 2.353A1.472 1.472 0 016.682.898a2.34 2.34 0 00-.506 1.455v2.059H5v-2.06zM3.069 5.294h1.049v8.824h-1.45l.4-8.824zm1.93 8.824V5.294h1.177v.882h.883v-.882h3.088v.882h.882v-.882h.902l.401 8.824H5z"></path>
    </symbol>
  </svg>